<svg width="434" height="316" viewBox="0 0 434 316" fill="none" xmlns="http://www.w3.org/2000/svg">
<g filter="url(#filter0_d)">
<path d="M41.8186 204.368L168.739 277.648L358.449 168.718L231.369 95.3479L41.8186 204.368Z" fill="#E2A1DE"/>
<path opacity="0.32" d="M236.899 118.528C228.039 124.108 219.579 129.048 211.179 134.108C219.829 138.878 231.819 145.648 237.709 149.298C243.469 146.198 263.139 135.108 270.199 129.298L236.899 118.528Z" fill="url(#paint0_linear)"/>
<path opacity="0.32" d="M304.079 162.108C296.559 166.808 289.389 171.038 282.239 175.298C289.589 179.348 299.759 185.098 304.769 188.198C309.659 185.558 326.369 176.148 332.349 171.198L304.079 162.108Z" fill="url(#paint1_linear)"/>
<path opacity="0.32" d="M125.879 251.558C138.399 244.808 182.269 217.068 194.699 210.158L106.579 178.468L50.0786 208.688C63.1386 215.558 107.749 240.348 125.879 251.558Z" fill="url(#paint2_linear)"/>
<path d="M83.7187 179.658L71.0787 94.658C70.9148 93.5539 71.0877 92.426 71.5747 91.4216C72.0617 90.4172 72.8403 89.5831 73.8087 89.028L171.579 33.108C172.373 32.6545 173.268 32.4046 174.182 32.3804C175.097 32.3561 176.003 32.5584 176.821 32.9692C177.639 33.3799 178.342 33.9864 178.868 34.7347C179.395 35.4829 179.728 36.3498 179.839 37.258L190.259 123.598C190.402 124.678 190.225 125.777 189.748 126.756C189.271 127.736 188.517 128.554 187.579 129.108L91.9887 183.708C91.2007 184.162 90.3132 184.416 89.4042 184.447C88.4952 184.477 87.5926 184.284 86.7757 183.884C85.9589 183.484 85.2529 182.89 84.7198 182.153C84.1867 181.416 83.8429 180.559 83.7187 179.658Z" fill="#053855"/>
<path d="M175.969 41.908L76.0386 99.248L86.8986 172.328L185.319 117.358L175.969 41.908Z" fill="#40006B"/>
<path d="M262.949 168.148V171.418L261.289 173.458" fill="#ADCEE1"/>
<path d="M197.058 128.228L261.059 167.898C261.637 168.267 262.111 168.778 262.434 169.383C262.758 169.988 262.921 170.666 262.907 171.352C262.892 172.038 262.702 172.709 262.354 173.3C262.006 173.891 261.512 174.383 260.918 174.728L163.788 229.668C162.431 230.438 160.895 230.836 159.334 230.824C157.774 230.812 156.244 230.389 154.898 229.598L91.1985 192.108C86.5685 188.308 86.9185 181.108 91.1985 180.838L187.808 128.108C189.217 127.289 190.821 126.867 192.45 126.888C194.079 126.91 195.672 127.373 197.058 128.228Z" fill="#88D3D8"/>
<path d="M197.059 125.498L261.059 165.168C261.637 165.537 262.111 166.048 262.434 166.653C262.758 167.258 262.921 167.936 262.907 168.622C262.893 169.308 262.702 169.979 262.354 170.57C262.006 171.161 261.512 171.653 260.919 171.998L163.789 226.938C162.431 227.708 160.895 228.106 159.334 228.094C157.774 228.082 156.244 227.659 154.899 226.868L91.1986 189.398C90.4537 188.963 89.8359 188.34 89.4065 187.592C88.9772 186.843 88.7512 185.996 88.7512 185.133C88.7512 184.27 88.9772 183.422 89.4065 182.674C89.8359 181.926 90.4537 181.303 91.1986 180.868L187.769 125.338C189.185 124.517 190.799 124.098 192.436 124.126C194.073 124.155 195.671 124.629 197.059 125.498Z" fill="white"/>
<path d="M200.989 134.588L224.389 149.168C224.805 149.425 225.147 149.787 225.381 150.216C225.615 150.646 225.734 151.129 225.725 151.619C225.716 152.108 225.579 152.586 225.329 153.007C225.079 153.428 224.724 153.776 224.299 154.018L140.299 201.908C139.043 202.633 137.619 203.015 136.169 203.015C134.719 203.015 133.294 202.633 132.039 201.908C126.639 198.758 117.339 193.088 111.649 189.608C111.14 189.298 110.721 188.862 110.433 188.341C110.144 187.82 109.996 187.233 110.003 186.638C110.01 186.043 110.172 185.46 110.473 184.946C110.774 184.432 111.203 184.005 111.719 183.708C128.719 173.828 184.139 141.598 196.269 134.558C196.984 134.133 197.801 133.911 198.633 133.916C199.465 133.922 200.279 134.154 200.989 134.588Z" fill="#40006B"/>
<path d="M199.739 174.158L170.389 190.658C169.94 190.914 169.566 191.284 169.307 191.731C169.047 192.178 168.91 192.686 168.91 193.203C168.91 193.72 169.047 194.228 169.307 194.675C169.566 195.122 169.94 195.492 170.389 195.748L187.579 205.848C188.171 206.19 188.844 206.371 189.529 206.371C190.213 206.371 190.886 206.19 191.479 205.848L221.479 188.728C221.855 188.514 222.168 188.204 222.386 187.83C222.603 187.456 222.718 187.031 222.718 186.598C222.718 186.165 222.603 185.74 222.386 185.366C222.168 184.992 221.855 184.682 221.479 184.468L203.579 174.178C202.995 173.844 202.334 173.666 201.661 173.663C200.988 173.659 200.326 173.83 199.739 174.158Z" fill="#40006B"/>
<path opacity="0.1" d="M200.989 134.588L224.389 149.168C224.805 149.425 225.147 149.787 225.381 150.216C225.615 150.646 225.734 151.129 225.725 151.619C225.716 152.108 225.579 152.586 225.329 153.007C225.079 153.428 224.724 153.776 224.299 154.018L140.299 201.908C139.043 202.633 137.619 203.015 136.169 203.015C134.719 203.015 133.294 202.633 132.039 201.908C126.639 198.758 117.339 193.088 111.649 189.608C111.14 189.298 110.721 188.862 110.433 188.341C110.144 187.82 109.996 187.233 110.003 186.638C110.01 186.043 110.172 185.46 110.473 184.946C110.774 184.432 111.203 184.005 111.719 183.708C128.719 173.828 184.139 141.598 196.269 134.558C196.984 134.133 197.801 133.911 198.633 133.916C199.465 133.922 200.279 134.154 200.989 134.588Z" fill="#053855"/>
<path opacity="0.1" d="M199.739 174.158L170.389 190.658C169.94 190.914 169.566 191.284 169.307 191.731C169.047 192.178 168.91 192.686 168.91 193.203C168.91 193.72 169.047 194.228 169.307 194.675C169.566 195.122 169.94 195.492 170.389 195.748L187.579 205.848C188.171 206.19 188.844 206.371 189.529 206.371C190.213 206.371 190.886 206.19 191.479 205.848L221.479 188.728C221.855 188.514 222.168 188.204 222.386 187.83C222.603 187.456 222.718 187.031 222.718 186.598C222.718 186.165 222.603 185.74 222.386 185.366C222.168 184.992 221.855 184.682 221.479 184.468L203.579 174.178C202.995 173.844 202.334 173.666 201.661 173.663C200.988 173.659 200.326 173.83 199.739 174.158Z" fill="#053855"/>
<path d="M319.919 175.298C328.827 175.298 336.049 170.212 336.049 163.938C336.049 157.664 328.827 152.578 319.919 152.578C311.01 152.578 303.789 157.664 303.789 163.938C303.789 170.212 311.01 175.298 319.919 175.298Z" fill="#40006B"/>
<path d="M319.929 162.178C326.6 162.178 332.009 159.962 332.009 157.228C332.009 154.494 326.6 152.278 319.929 152.278C313.257 152.278 307.849 154.494 307.849 157.228C307.849 159.962 313.257 162.178 319.929 162.178Z" fill="#974C26"/>
<path d="M320.729 157.348C321.729 156.018 322.629 154.618 323.629 153.048C324.909 151.048 326.109 148.998 327.199 146.888C328.221 145.013 329.093 143.06 329.809 141.048C330.604 138.866 331.242 136.631 331.719 134.358C331.839 133.758 331.949 133.158 332.049 132.558C332.049 132.278 332.099 132.308 332.099 132.348C332.099 132.388 332.099 132.158 332.099 131.828C332.209 130.608 332.289 129.388 332.299 128.158C332.356 123.92 331.539 119.716 329.899 115.808C325.537 122.134 322.597 129.328 321.279 136.898C321.192 137.351 321.112 137.805 321.039 138.258C321.039 138.258 320.919 139.088 320.869 139.418L320.739 140.558C320.679 141.131 320.625 141.708 320.579 142.288C320.399 144.508 320.319 146.748 320.329 148.978C320.379 151.778 320.509 154.568 320.729 157.348ZM325.869 124.008C326.162 123.675 326.462 123.341 326.769 123.008C326.685 123.29 326.664 123.587 326.709 123.878C326.424 123.878 326.14 123.922 325.869 124.008Z" fill="#999A1C"/>
<path d="M321.039 157.548C321.119 155.918 321.159 154.218 321.159 152.368C321.159 149.998 321.049 147.618 320.829 145.258C320.662 143.128 320.327 141.015 319.829 138.938C319.321 136.673 318.653 134.447 317.829 132.278C317.609 131.708 317.379 131.148 317.139 130.588C317.029 130.328 317.049 130.348 317.069 130.388L316.819 129.928C316.249 128.848 315.659 127.768 315.009 126.738C312.767 123.143 309.809 120.049 306.319 117.648C306.067 125.326 307.479 132.967 310.459 140.048C310.632 140.475 310.809 140.898 310.989 141.318L311.469 142.388L311.979 143.388C312.239 143.908 312.505 144.421 312.779 144.928C313.829 146.928 314.969 148.818 316.179 150.688C317.729 153.048 319.349 155.328 321.039 157.548ZM307.339 126.728C307.405 126.288 307.485 125.851 307.579 125.418C307.661 125.699 307.805 125.958 307.999 126.178C307.751 126.326 307.529 126.511 307.339 126.728Z" fill="#999A1C"/>
<path d="M321.109 158.398C320.629 157.488 320.109 156.558 319.499 155.558C318.729 154.278 317.909 153.028 317.029 151.828C316.258 150.729 315.402 149.693 314.469 148.728C313.46 147.669 312.378 146.683 311.229 145.778L310.309 145.088C310.169 144.988 310.189 144.988 310.209 144.998L309.929 144.828C309.269 144.428 308.609 144.038 307.929 143.688C305.557 142.471 302.959 141.756 300.299 141.588C302.643 145.812 305.873 149.48 309.769 152.338L310.469 152.848L311.069 153.268L311.679 153.658L312.609 154.228C313.815 154.948 315.049 155.615 316.309 156.228C317.879 157.048 319.479 157.748 321.109 158.398ZM303.759 146.188C303.652 145.928 303.555 145.668 303.469 145.408C303.604 145.531 303.764 145.623 303.939 145.678C303.856 145.838 303.798 146.01 303.769 146.188H303.759Z" fill="#999A1C"/>
<path d="M320.729 157.348C321.729 156.018 322.629 154.618 323.629 153.048C324.909 151.048 326.109 148.998 327.199 146.888C328.221 145.013 329.093 143.06 329.809 141.048C330.604 138.866 331.242 136.631 331.719 134.358C331.839 133.758 331.949 133.158 332.049 132.558C332.049 132.278 332.099 132.308 332.099 132.348C332.099 132.388 332.099 132.158 332.099 131.828C332.209 130.608 332.289 129.388 332.299 128.158C332.356 123.92 331.539 119.716 329.899 115.808C325.537 122.134 322.597 129.328 321.279 136.898C321.192 137.351 321.112 137.805 321.039 138.258C321.039 138.258 320.919 139.088 320.869 139.418L320.739 140.558C320.679 141.131 320.625 141.708 320.579 142.288C320.399 144.508 320.319 146.748 320.329 148.978C320.379 151.778 320.509 154.568 320.729 157.348ZM325.869 124.008C326.162 123.675 326.462 123.341 326.769 123.008C326.685 123.29 326.664 123.587 326.709 123.878C326.424 123.878 326.14 123.922 325.869 124.008Z" fill="#999A1C"/>
<path d="M321.039 157.548C321.119 155.918 321.159 154.218 321.159 152.368C321.159 149.998 321.049 147.618 320.829 145.258C320.662 143.128 320.327 141.015 319.829 138.938C319.321 136.673 318.653 134.447 317.829 132.278C317.609 131.708 317.379 131.148 317.139 130.588C317.029 130.328 317.049 130.348 317.069 130.388L316.819 129.928C316.249 128.848 315.659 127.768 315.009 126.738C312.767 123.143 309.809 120.049 306.319 117.648C306.067 125.326 307.479 132.967 310.459 140.048C310.632 140.475 310.809 140.898 310.989 141.318L311.469 142.388L311.979 143.388C312.239 143.908 312.505 144.421 312.779 144.928C313.829 146.928 314.969 148.818 316.179 150.688C317.729 153.048 319.349 155.328 321.039 157.548ZM307.339 126.728C307.405 126.288 307.485 125.851 307.579 125.418C307.661 125.699 307.805 125.958 307.999 126.178C307.751 126.326 307.529 126.511 307.339 126.728Z" fill="#999A1C"/>
<path d="M321.109 158.398C320.629 157.488 320.109 156.558 319.499 155.558C318.729 154.278 317.909 153.028 317.029 151.828C316.258 150.729 315.402 149.693 314.469 148.728C313.46 147.669 312.378 146.683 311.229 145.778L310.309 145.088C310.169 144.988 310.189 144.988 310.209 144.998L309.929 144.828C309.269 144.428 308.609 144.038 307.929 143.688C305.557 142.471 302.959 141.756 300.299 141.588C302.643 145.812 305.873 149.48 309.769 152.338L310.469 152.848L311.069 153.268L311.679 153.658L312.609 154.228C313.815 154.948 315.049 155.615 316.309 156.228C317.879 157.048 319.479 157.748 321.109 158.398ZM303.759 146.188C303.652 145.928 303.555 145.668 303.469 145.408C303.604 145.531 303.764 145.623 303.939 145.678C303.856 145.838 303.798 146.01 303.769 146.188H303.759Z" fill="#999A1C"/>
<path d="M61.3585 116.108L38.7185 128.928V154.108C42.1685 152.258 55.2785 144.828 61.3685 141.368L61.3585 116.108Z" fill="#FE9881"/>
<path d="M61.3585 147.708L38.7185 160.558V185.688C42.1685 183.838 55.2785 176.408 61.3685 172.948L61.3585 147.708Z" fill="#FE9881"/>
<path d="M224.059 123.528L250.059 108.088C250.587 107.774 251.189 107.609 251.804 107.609C252.418 107.609 253.02 107.774 253.549 108.088L274.099 120.288C274.612 120.594 275.037 121.03 275.329 121.551C275.622 122.073 275.773 122.662 275.767 123.26C275.761 123.858 275.598 124.444 275.295 124.96C274.992 125.475 274.558 125.902 274.039 126.198L249.179 140.288C248.666 140.577 248.087 140.729 247.499 140.729C246.91 140.729 246.331 140.577 245.819 140.288L224.109 128.108C223.7 127.883 223.359 127.554 223.12 127.154C222.881 126.755 222.752 126.298 222.747 125.832C222.742 125.367 222.86 124.908 223.091 124.503C223.321 124.098 223.655 123.761 224.059 123.528Z" fill="#146666"/>
<path d="M222.769 125.758V121.508L225.699 122.428L224.839 125.848L222.769 125.758Z" fill="#146666"/>
<path d="M275.739 122.948V118.968L273.269 120.128L274.429 122.428L275.739 122.948Z" fill="#146666"/>
<path d="M224.059 119.248L250.059 103.808C250.587 103.495 251.189 103.329 251.804 103.329C252.418 103.329 253.02 103.495 253.549 103.808L274.099 116.008C274.612 116.314 275.037 116.75 275.329 117.271C275.622 117.793 275.773 118.382 275.767 118.98C275.761 119.578 275.598 120.164 275.295 120.68C274.992 121.195 274.558 121.622 274.039 121.918L249.179 136.008C248.666 136.297 248.087 136.449 247.499 136.449C246.91 136.449 246.331 136.297 245.819 136.008L224.109 123.808C223.705 123.582 223.368 123.253 223.132 122.856C222.896 122.458 222.769 122.005 222.764 121.542C222.759 121.08 222.876 120.624 223.103 120.222C223.331 119.819 223.66 119.483 224.059 119.248Z" fill="#2C9390"/>
<path d="M246.269 113.868L249.199 112.618L255.389 124.508L252.459 125.758L246.269 113.868Z" fill="white"/>
<path d="M260.579 116.838C261.912 116.813 263.236 117.061 264.469 117.568C265.469 118.028 266.009 118.568 266.009 119.298C266.009 120.028 265.469 120.568 264.369 121.028C261.816 121.934 259.025 121.909 256.489 120.958C255.489 120.498 254.959 119.958 254.949 119.228C254.939 118.498 255.479 117.958 256.579 117.488C257.852 116.994 259.215 116.773 260.579 116.838ZM262.819 119.298C262.819 119.018 262.579 118.778 262.109 118.558C261.588 118.331 261.026 118.215 260.459 118.218C259.895 118.194 259.333 118.289 258.809 118.498C258.339 118.698 258.099 118.938 258.109 119.208C258.119 119.478 258.349 119.728 258.819 119.948C259.339 120.173 259.901 120.289 260.469 120.288C261.032 120.312 261.595 120.217 262.119 120.008C262.589 119.808 262.819 119.568 262.819 119.298Z" fill="white"/>
<path d="M246.789 119.108C246.789 119.798 246.239 120.378 245.149 120.848C242.592 121.754 239.797 121.726 237.259 120.768C236.259 120.298 235.729 119.768 235.719 119.038C235.709 118.308 236.269 117.768 237.359 117.308C239.911 116.397 242.703 116.422 245.239 117.378C246.269 117.878 246.779 118.458 246.789 119.108ZM239.599 119.768C240.119 119.993 240.681 120.109 241.249 120.108C241.812 120.13 242.374 120.035 242.899 119.828C243.369 119.628 243.599 119.388 243.599 119.118C243.599 118.848 243.359 118.598 242.889 118.378C241.834 117.947 240.656 117.929 239.589 118.328C239.119 118.528 238.889 118.768 238.889 119.038C238.889 119.308 239.129 119.558 239.599 119.778" fill="white"/>
<path d="M232.499 120.468L258.499 105.028C259.027 104.715 259.629 104.549 260.244 104.549C260.858 104.549 261.46 104.715 261.989 105.028L282.539 117.228C283.052 117.534 283.477 117.97 283.769 118.491C284.062 119.013 284.213 119.602 284.207 120.2C284.201 120.798 284.038 121.384 283.735 121.9C283.432 122.415 282.998 122.842 282.479 123.138L257.579 137.228C257.066 137.517 256.487 137.669 255.899 137.669C255.31 137.669 254.731 137.517 254.219 137.228L232.579 125.018C232.176 124.794 231.839 124.468 231.602 124.073C231.365 123.677 231.236 123.227 231.228 122.766C231.22 122.305 231.333 121.85 231.556 121.447C231.779 121.044 232.104 120.706 232.499 120.468Z" fill="#146666"/>
<path d="M231.208 122.698L231.218 118.448L234.148 119.368L233.288 122.788L231.208 122.698Z" fill="#146666"/>
<path d="M284.188 119.888V115.908L281.708 117.068L282.878 119.368L284.188 119.888Z" fill="#146666"/>
<path d="M232.499 116.188L258.499 100.748C259.027 100.435 259.63 100.269 260.244 100.269C260.858 100.269 261.461 100.435 261.989 100.748L282.539 112.948C283.052 113.254 283.477 113.69 283.77 114.211C284.062 114.733 284.213 115.322 284.207 115.92C284.201 116.518 284.038 117.104 283.735 117.62C283.432 118.135 282.998 118.562 282.479 118.858L257.579 132.948C257.066 133.237 256.487 133.389 255.899 133.389C255.31 133.389 254.731 133.237 254.219 132.948L232.579 120.748C232.174 120.525 231.835 120.198 231.596 119.802C231.357 119.406 231.227 118.954 231.219 118.491C231.211 118.029 231.325 117.572 231.55 117.168C231.774 116.763 232.102 116.425 232.499 116.188Z" fill="#2C9390"/>
<path d="M248.749 116.908C249.779 116.893 250.801 117.094 251.749 117.498C252.599 117.888 253.009 118.338 252.989 118.848C252.969 119.358 252.489 119.848 251.569 120.208L249.739 120.988L252.669 122.318L250.759 123.128L241.869 119.108L245.609 117.518C246.602 117.102 247.671 116.894 248.749 116.908ZM250.409 118.908C250.409 118.688 250.239 118.498 249.879 118.338C249.471 118.166 249.031 118.08 248.589 118.088C248.137 118.078 247.688 118.159 247.269 118.328L245.499 119.078L248.049 120.238L249.819 119.488C250.199 119.328 250.389 119.138 250.399 118.918" fill="white"/>
<path d="M258.119 112.168L267.049 116.238L265.139 117.038L261.509 115.388L257.709 116.998L261.339 118.658L259.429 119.468L250.499 115.408L252.409 114.598L255.979 116.218L259.779 114.608L256.209 112.978L258.119 112.168Z" fill="white"/>
<path d="M267.269 109.048C268.299 109.033 269.321 109.234 270.269 109.638C271.119 110.028 271.529 110.478 271.509 110.988C271.489 111.498 271.009 111.988 270.089 112.348L268.259 113.128L271.189 114.458L269.279 115.268L260.349 111.208L264.089 109.618C265.098 109.21 266.181 109.016 267.269 109.048ZM268.929 111.048C268.929 110.828 268.759 110.638 268.399 110.478C267.991 110.305 267.551 110.22 267.109 110.228C266.657 110.218 266.208 110.299 265.789 110.468L264.019 111.218L266.569 112.378L268.339 111.628C268.719 111.468 268.909 111.278 268.919 111.058" fill="white"/>
<path d="M47.3687 131.758C47.6052 131.701 47.8521 131.701 48.0887 131.758C48.2635 131.819 48.4312 131.9 48.5887 131.998C48.7068 132.069 48.8116 132.161 48.8987 132.268L48.9987 132.398L48.1587 134.108L48.0887 134.008C48.0293 133.937 47.9622 133.874 47.8887 133.818C47.7878 133.734 47.6726 133.67 47.5487 133.628C47.3869 133.595 47.2204 133.595 47.0587 133.628C46.8445 133.649 46.6369 133.714 46.4487 133.818C45.8197 134.182 45.3171 134.73 45.0087 135.388C44.6299 136.092 44.4307 136.878 44.4287 137.678C44.397 137.986 44.4325 138.298 44.5326 138.591C44.6327 138.885 44.7951 139.153 45.0087 139.378C45.208 139.548 45.4572 139.648 45.7186 139.665C45.9801 139.681 46.2398 139.612 46.4587 139.468C46.6921 139.349 46.9076 139.197 47.0987 139.018C47.287 138.849 47.4578 138.661 47.6087 138.458C47.742 138.271 47.862 138.091 47.9687 137.918C48.0522 137.78 48.1257 137.636 48.1887 137.488L48.2587 137.328L49.0587 138.118L48.9587 138.358C48.912 138.458 48.8087 138.648 48.6487 138.928C48.4922 139.199 48.3185 139.459 48.1287 139.708C47.9092 139.986 47.6649 140.244 47.3987 140.478C47.1205 140.734 46.8074 140.95 46.4687 141.118C46.1095 141.353 45.6841 141.466 45.2555 141.441C44.8269 141.416 44.4178 141.254 44.0887 140.978C43.7358 140.644 43.4626 140.236 43.2895 139.782C43.1164 139.328 43.0477 138.842 43.0887 138.358C43.1143 137.09 43.4582 135.848 44.0887 134.748C44.5892 133.652 45.408 132.732 46.4387 132.108C46.7244 131.935 47.0397 131.816 47.3687 131.758Z" fill="black"/>
<path d="M51.1287 137.818V135.678L49.6287 136.428V134.868L51.1187 134.098V131.958L52.1187 131.428V133.588L53.6187 132.818V134.418L52.1187 135.168V137.328L51.1287 137.818Z" fill="black"/>
<path d="M55.7485 135.548V133.348L54.2485 134.098V132.488L55.7385 131.718V129.518L56.7385 128.988V131.198L58.2385 130.428V132.108L56.7385 132.858V135.068L55.7485 135.548Z" fill="black"/>
<path d="M47.0186 165.968C47.2126 165.927 47.4145 165.944 47.5986 166.018C47.7408 166.082 47.8751 166.163 47.9986 166.258C48.096 166.33 48.1805 166.418 48.2486 166.518L48.3286 166.648L47.6486 168.238L47.5786 168.108C47.5323 168.039 47.4787 167.975 47.4186 167.918C47.3387 167.837 47.2436 167.772 47.1386 167.728C47.0104 167.697 46.8768 167.697 46.7486 167.728C46.5698 167.747 46.3982 167.808 46.2486 167.908C45.715 168.286 45.3073 168.815 45.0786 169.428C44.7677 170.137 44.6077 170.903 44.6086 171.678C44.5529 172.277 44.7202 172.875 45.0786 173.358C45.2215 173.521 45.4222 173.623 45.6384 173.641C45.8547 173.66 46.0698 173.594 46.2386 173.458C46.4324 173.341 46.6077 173.196 46.7586 173.028C46.9127 172.858 47.05 172.674 47.1686 172.478C47.2752 172.298 47.3719 172.125 47.4586 171.958C47.5274 171.822 47.5875 171.682 47.6386 171.538L47.6986 171.378L48.3386 172.158L48.2486 172.398C48.2086 172.498 48.1252 172.685 47.9986 172.958C47.8734 173.219 47.7332 173.473 47.5786 173.718C47.4044 173.985 47.2069 174.236 46.9886 174.468C46.7712 174.711 46.5184 174.92 46.2386 175.088C45.9586 175.307 45.6063 175.412 45.2522 175.382C44.8981 175.353 44.5682 175.19 44.3286 174.928C43.7455 174.197 43.4662 173.269 43.5486 172.338C43.5539 171.113 43.8198 169.903 44.3286 168.788C44.7142 167.784 45.3851 166.915 46.2586 166.288C46.4859 166.128 46.7451 166.019 47.0186 165.968Z" fill="black"/>
<path d="M51.1187 168.808C50.9256 168.729 50.7146 168.705 50.5087 168.738C50.2692 168.76 50.0282 168.76 49.7887 168.738C49.6602 168.724 49.5372 168.678 49.4307 168.605C49.3242 168.532 49.2376 168.433 49.1787 168.318C48.9841 167.935 48.8977 167.506 48.9287 167.078C48.9388 166.354 49.106 165.641 49.4187 164.988C49.6844 164.36 50.1253 163.822 50.6887 163.438C50.8683 163.319 51.0684 163.234 51.2787 163.188C51.4332 163.151 51.5943 163.151 51.7487 163.188C51.8617 163.219 51.9695 163.266 52.0687 163.328C52.144 163.374 52.2087 163.435 52.2587 163.508L52.3187 163.588L51.6687 165.188L51.5587 165.048C51.4694 164.975 51.3625 164.927 51.2487 164.908C51.1646 164.89 51.0777 164.89 50.9934 164.907C50.9091 164.924 50.8293 164.959 50.7587 165.008C50.5436 165.151 50.3737 165.352 50.2687 165.588C50.1475 165.83 50.0825 166.097 50.0787 166.368C50.0787 166.661 50.1621 166.841 50.3287 166.908C50.5226 166.984 50.7328 167.008 50.9387 166.978C51.1783 166.958 51.4192 166.958 51.6587 166.978C51.7882 166.993 51.9119 167.04 52.0185 167.115C52.1251 167.19 52.2111 167.291 52.2687 167.408C52.4604 167.806 52.5432 168.248 52.5087 168.688C52.5061 169.48 52.3286 170.262 51.9887 170.978C51.6926 171.635 51.1999 172.183 50.5787 172.548C50.374 172.672 50.146 172.754 49.9087 172.788C49.7348 172.832 49.5527 172.832 49.3787 172.788C49.2471 172.738 49.1227 172.671 49.0087 172.588C48.9201 172.528 48.8423 172.454 48.7787 172.368L48.6987 172.268L49.3487 170.778L49.4887 170.948C49.6301 171.057 49.8011 171.121 49.9795 171.132C50.1578 171.143 50.3353 171.099 50.4887 171.008C50.7506 170.849 50.9593 170.616 51.0887 170.338C51.2316 170.049 51.3068 169.731 51.3087 169.408C51.3487 169.081 51.2854 168.881 51.1187 168.808Z" fill="black"/>
<path d="M55.3685 166.238C55.1778 166.151 54.9663 166.12 54.7585 166.148C54.5191 166.17 54.278 166.17 54.0385 166.148C53.9083 166.131 53.7843 166.082 53.6778 166.005C53.5713 165.928 53.4856 165.826 53.4285 165.708C53.2378 165.31 53.155 164.868 53.1885 164.428C53.2002 163.687 53.3707 162.957 53.6885 162.288C53.951 161.653 54.3921 161.107 54.9585 160.718C55.1375 160.598 55.3377 160.513 55.5485 160.468C55.703 160.431 55.8641 160.431 56.0185 160.468C56.1321 160.502 56.2399 160.552 56.3385 160.618C56.4144 160.667 56.4791 160.732 56.5285 160.808L56.5885 160.898L55.9385 162.528L55.8285 162.388C55.7392 162.315 55.6323 162.267 55.5185 162.248C55.4344 162.229 55.3473 162.228 55.2628 162.245C55.1784 162.263 55.0985 162.298 55.0285 162.348C54.812 162.494 54.6419 162.698 54.5385 162.938C54.4184 163.184 54.3535 163.454 54.3485 163.728C54.3485 164.028 54.4319 164.215 54.5985 164.288C54.7911 164.369 55.0017 164.396 55.2085 164.368C55.4481 164.347 55.689 164.347 55.9285 164.368C56.0598 164.386 56.1844 164.436 56.291 164.515C56.3976 164.594 56.4827 164.698 56.5385 164.818C56.73 165.23 56.8126 165.685 56.7785 166.138C56.7766 166.95 56.5992 167.751 56.2585 168.488C55.9728 169.153 55.487 169.712 54.8685 170.088C54.6645 170.214 54.4362 170.296 54.1985 170.328C54.0205 170.357 53.838 170.34 53.6685 170.278C53.5399 170.224 53.4189 170.153 53.3085 170.068C53.2198 170.004 53.1421 169.927 53.0785 169.838L52.9985 169.728L53.6485 168.208L53.7785 168.388C53.8888 168.486 54.0237 168.551 54.1685 168.578C54.2754 168.605 54.3867 168.608 54.4952 168.59C54.6037 168.571 54.707 168.529 54.7985 168.468C55.0619 168.306 55.2708 168.069 55.3985 167.788C55.5484 167.476 55.6238 167.134 55.6185 166.788C55.5919 166.501 55.5085 166.318 55.3685 166.238Z" fill="black"/>
<path d="M81.1887 101.878L84.2987 122.818L104.139 110.988L101.069 90.3079L81.1887 101.878Z" fill="white"/>
<path d="M85.1887 126.648L90.5687 162.848L110.389 150.868L105.069 115.078L85.1887 126.648Z" fill="white"/>
<path d="M156.987 87.7705C157.89 76.8062 152.385 67.4038 144.69 66.7699C136.995 66.1359 130.025 74.5103 129.122 85.4747C128.218 96.439 133.724 105.841 141.419 106.475C149.114 107.109 156.084 98.7349 156.987 87.7705Z" fill="white"/>
<path d="M126.129 84.858C126.157 84.7842 126.194 84.7138 126.239 84.648C126.066 84.4851 125.932 84.2855 125.848 84.0639C125.763 83.8423 125.729 83.6045 125.749 83.368C125.766 83.2165 125.813 83.07 125.889 82.9376C125.965 82.8052 126.067 82.6896 126.189 82.598C126.077 82.4688 126.009 82.308 125.993 82.138C125.977 81.968 126.015 81.7974 126.101 81.6499C126.187 81.5024 126.316 81.3854 126.472 81.3151C126.628 81.2449 126.801 81.2249 126.969 81.258C128.159 81.498 128.969 83.058 129.589 83.988C130.059 84.678 130.509 85.378 130.919 86.098C130.989 85.098 131.139 84.028 131.219 83.098C131.299 82.168 132.799 82.098 132.799 83.098C132.711 84.6499 132.869 86.2059 133.269 87.708C133.426 87.7856 133.568 87.8906 133.689 88.018C138.126 92.6797 143.688 96.1231 149.839 98.018C150.146 98.1212 150.411 98.3225 150.593 98.591C150.775 98.8595 150.863 99.1802 150.845 99.504C150.827 99.8278 150.703 100.137 150.492 100.383C150.282 100.629 149.996 100.8 149.679 100.868C149.663 101.16 149.559 101.441 149.38 101.673C149.202 101.905 148.957 102.078 148.679 102.168C148.633 102.396 148.541 102.612 148.406 102.801C148.272 102.991 148.099 103.15 147.899 103.268L148.899 103.718C150.589 104.428 149.849 107.218 148.129 106.508C141.682 103.823 136.019 99.5506 131.669 94.088C131.169 93.608 130.669 93.088 130.189 92.638C129.429 91.868 125.759 88.178 126.669 86.638C126.339 85.988 125.859 85.578 126.129 84.858Z" fill="#FBB5AD"/>
<path d="M151.579 67.698C153.309 68.388 154.639 72.098 154.489 72.888L153.139 72.198L152.899 71.928C152.653 70.4646 152.209 69.0416 151.579 67.698Z" fill="#FBB5AD"/>
<path d="M151.349 70.7279C151.439 70.6613 151.541 70.6106 151.649 70.5779L151.769 70.4779C152.439 69.9579 153.489 70.6279 154.089 70.9679C154.87 71.3812 155.608 71.8738 156.289 72.4379C156.599 72.859 156.82 73.3387 156.939 73.8479C157.189 74.4679 157.459 75.0779 157.739 75.6779C158.33 76.9311 158.998 78.1467 159.739 79.3179C161.2 81.6053 162.925 83.7131 164.879 85.5979C165.789 86.4779 164.399 87.8479 163.489 86.9779L162.839 86.3279C162.702 86.4173 162.542 86.465 162.379 86.465C162.215 86.465 162.055 86.4173 161.919 86.3279C161.759 86.2197 161.609 86.0994 161.469 85.9679L161.259 85.7879C161.195 85.9318 161.098 86.0587 160.975 86.158C160.853 86.2574 160.709 86.3265 160.555 86.3596C160.401 86.3927 160.241 86.389 160.089 86.3488C159.937 86.3085 159.796 86.2328 159.679 86.1279L159.009 85.4379C158.797 85.3598 158.625 85.2018 158.529 84.9979C158.529 84.9979 158.429 86.3379 158.399 86.2879C157.329 85.1579 156.069 82.0479 155.009 80.1979C155.014 80.1091 154.989 80.0211 154.939 79.9479C154.109 78.6179 154.219 77.8179 154.119 76.2979C154.122 75.4193 154.045 74.5423 153.889 73.6779L152.179 72.3079C151.759 71.9879 151.309 71.5079 151.389 71.0279C151.36 70.9305 151.347 70.8293 151.349 70.7279Z" fill="#FBB5AD"/>
<path d="M144.879 95.248C151.069 97.068 152.119 96.368 155.059 96.248C157.999 96.128 161.059 92.048 161.059 92.048C161.059 92.048 161.799 82.878 167.259 90.048C171.339 95.408 172.899 110.928 173.429 118.448C171.429 120.058 168.699 120.668 166.159 121.048C164.483 121.326 162.787 121.466 161.089 121.468C160.054 121.456 159.033 121.231 158.089 120.808L155.189 107.348C150.525 107.601 145.912 106.281 142.089 103.598L144.879 95.248Z" fill="#FE9881"/>
<path d="M158.159 84.2278C158.159 84.2278 154.159 91.8578 158.109 93.9878C162.059 96.1178 165.109 92.5778 165.459 91.6578C165.809 90.7378 165.719 83.6678 158.159 84.2278Z" fill="#FBB5AD"/>
<path d="M157.859 83.108C158.858 82.4565 159.988 82.0297 161.169 81.857C162.35 81.6844 163.554 81.77 164.699 82.108C166.704 82.4738 168.55 83.4438 169.989 84.888C170.498 84.5419 171.093 84.3414 171.709 84.308C172.45 84.2528 173.191 84.4341 173.823 84.8257C174.455 85.2174 174.947 85.7993 175.229 86.488C175.469 87.1319 175.481 87.8388 175.262 88.4905C175.044 89.1421 174.608 89.699 174.029 90.068C173.132 90.537 172.086 90.634 171.118 90.338V90.518C170.988 91.958 172.349 92.688 172.879 93.908C173.14 94.4662 173.214 95.0943 173.089 95.698C172.949 96.298 172.329 96.948 172.349 97.558C172.45 98.0319 172.671 98.4722 172.989 98.838C173.271 99.2558 173.502 99.7056 173.679 100.178C170.819 101.718 167.239 101.708 164.139 101.068C160.724 100.47 157.594 98.7826 155.219 96.258C155.356 95.9411 155.561 95.6578 155.819 95.428C156.351 95.0673 156.921 94.7655 157.519 94.528C158.369 94.038 157.519 92.528 157.519 91.758C157.569 90.388 158.569 89.818 159.709 89.348C160.529 89.008 160.569 88.508 160.569 87.668C160.641 87.005 160.501 86.3363 160.169 85.758C159.922 85.7931 159.67 85.74 159.459 85.608C159.032 85.3511 158.575 85.1495 158.099 85.008C157.867 84.9159 157.679 84.7409 157.569 84.5171C157.46 84.2934 157.439 84.0369 157.508 83.798C157.503 83.6626 157.532 83.528 157.593 83.4072C157.655 83.2864 157.746 83.1833 157.859 83.108Z" fill="#56403D"/>
<path d="M160.879 86.108C159.587 85.8295 158.337 85.3858 157.159 84.788C157.159 84.658 156.779 79.908 165.209 81.558C173.639 83.208 169.639 93.298 169.639 93.298" fill="#56403D"/>
<path d="M170.079 191.108C170.983 190.944 171.828 190.543 172.529 189.948C172.964 189.137 173.142 188.212 173.039 187.298C173.039 186.444 173.039 185.591 173.039 184.738C173.086 184.701 173.125 184.654 173.152 184.6C173.18 184.547 173.196 184.488 173.199 184.428C173.246 183.732 173.246 183.034 173.199 182.338L176.709 181.998C177.315 184.193 177.802 186.42 178.169 188.668C178.069 189.358 174.739 193.898 173.049 194.208C171.359 194.518 166.649 193.038 166.259 192.388V192.328C167.509 191.988 168.799 191.588 170.079 191.108Z" fill="#FBB5AD"/>
<path d="M145.869 178.658C147.029 178.428 151.809 179.208 151.809 179.208C151.809 179.208 152.479 175.308 152.389 175.118L157.389 175.468C157.389 175.468 158.019 182.718 158.019 183.678C158.019 185.438 155.849 185.988 155.369 185.918C155.027 185.802 154.693 185.666 154.369 185.508C154.55 184.602 154.643 183.681 154.649 182.758C154.649 182.338 154.539 182.038 154.139 181.888C153.181 181.765 152.208 181.854 151.289 182.148C150.399 182.318 149.519 182.528 148.629 182.688C146.629 181.688 145.009 180.688 144.869 180.258C144.499 179.238 144.099 178.998 145.869 178.658Z" fill="#FBB5AD"/>
<path d="M144.199 178.958L144.319 178.828C144.699 178.458 145.699 178.488 146.169 178.478C148.067 178.49 149.958 178.732 151.799 179.198C151.799 179.198 147.279 178.578 147.109 179.388C147.036 179.713 147.04 180.049 147.12 180.372C147.2 180.695 147.353 180.995 147.569 181.248C149.459 182.928 152.399 181.078 154.239 180.248L157.649 178.778L157.869 181.558C157.987 182.829 157.987 184.107 157.869 185.378C157.639 185.768 155.609 186.828 155.189 186.618C154.769 186.408 153.429 185.618 153.429 185.618L153.699 182.268C153.699 182.268 150.879 183.488 149.549 183.148C148.579 182.908 143.029 180.538 144.199 178.958Z" fill="#56403D"/>
<path d="M174.909 188.788C174.909 188.788 173.079 194.518 172.409 194.888C171.739 195.258 164.699 193.018 165.749 191.678C166.419 190.818 170.669 190.828 171.049 190.678C171.049 190.678 168.819 191.408 168.819 191.768C168.819 192.128 171.629 193.428 171.819 193.158C172.009 192.888 175.029 187.878 175.029 187.878L177.909 186.878L180.279 192.148L178.279 193.008C178.279 193.008 177.659 194.608 177.459 194.608C176.767 193.656 176.149 192.653 175.609 191.608C175.476 192.334 175.24 193.038 174.909 193.698C174.619 193.908 172.279 195.828 171.219 194.358L173.219 192.148" fill="#56403D"/>
<path d="M160.279 177.408C155.849 178.248 151.159 177.478 147.829 174.458C147.749 167.078 147.069 160.458 147.289 153.048C147.639 141.048 149.389 129.208 157.839 119.818L173.219 117.458C179.459 129.328 180.729 183.638 180.729 183.638C180.729 183.638 172.959 188.638 166.939 186.238L164.579 140.988C164.579 140.988 160.509 145.808 159.769 148.508C159.279 150.448 160.369 168.318 160.279 177.408Z" fill="#999A1C"/>
<path d="M115.469 148.188L150.469 128.138C150.641 128.037 150.766 127.872 150.817 127.679C150.868 127.486 150.839 127.28 150.739 127.108C150.689 127.022 150.622 126.948 150.544 126.888C150.465 126.828 150.375 126.785 150.28 126.759C150.086 126.709 149.881 126.737 149.709 126.838L114.709 146.888C114.536 146.989 114.411 147.154 114.36 147.347C114.31 147.54 114.338 147.745 114.439 147.918C114.539 148.09 114.705 148.215 114.898 148.266C115.091 148.317 115.296 148.289 115.469 148.188Z" fill="white"/>
<path d="M114.979 143.338L149.979 123.288C150.151 123.187 150.276 123.022 150.327 122.829C150.378 122.636 150.349 122.43 150.249 122.258C150.148 122.086 149.983 121.96 149.79 121.91C149.596 121.859 149.391 121.887 149.219 121.988L114.219 142.038C114.046 142.139 113.921 142.304 113.87 142.497C113.82 142.69 113.848 142.896 113.949 143.068C114.049 143.24 114.215 143.366 114.408 143.416C114.601 143.467 114.806 143.439 114.979 143.338Z" fill="white"/>
<path d="M113.899 138.168L148.899 118.118C149.071 118.017 149.196 117.852 149.247 117.659C149.298 117.466 149.269 117.26 149.169 117.088C149.068 116.916 148.903 116.79 148.709 116.74C148.516 116.689 148.311 116.717 148.139 116.818L113.139 136.868C112.966 136.969 112.841 137.134 112.79 137.327C112.74 137.52 112.768 137.726 112.869 137.898C112.969 138.07 113.134 138.196 113.328 138.246C113.521 138.297 113.726 138.269 113.899 138.168Z" fill="white"/>
<path d="M104.519 92.2878L121.299 82.6678C121.471 82.567 121.596 82.4019 121.647 82.2087C121.698 82.0156 121.669 81.8102 121.569 81.6378C121.468 81.4654 121.303 81.3401 121.11 81.2895C120.916 81.2389 120.711 81.267 120.539 81.3678L103.759 90.9878C103.586 91.0886 103.461 91.2537 103.41 91.4469C103.36 91.6401 103.388 91.8454 103.489 92.0178C103.589 92.1902 103.755 92.3155 103.948 92.3661C104.141 92.4168 104.346 92.3886 104.519 92.2878Z" fill="white"/>
<path d="M105.059 97.1079L121.839 87.4879C122.011 87.3871 122.136 87.222 122.187 87.0288C122.238 86.8357 122.209 86.6303 122.109 86.4579C122.008 86.2855 121.843 86.1602 121.65 86.1096C121.456 86.0589 121.251 86.0871 121.079 86.1879L104.299 95.8079C104.126 95.9087 104.001 96.0738 103.95 96.267C103.9 96.4601 103.928 96.6655 104.029 96.8379C104.129 97.0103 104.295 97.1356 104.488 97.1862C104.681 97.2368 104.886 97.2087 105.059 97.1079Z" fill="white"/>
</g>
<defs>
<filter id="filter0_d" x="0.578613" y="-25.8921" width="475" height="364" filterUnits="userSpaceOnUse" color-interpolation-filters="sRGB">
<feFlood flood-opacity="0" result="BackgroundImageFix"/>
<feColorMatrix in="SourceAlpha" type="matrix" values="0 0 0 0 0 0 0 0 0 0 0 0 0 0 0 0 0 0 127 0"/>
<feOffset dx="43" dy="6"/>
<feGaussianBlur stdDeviation="16"/>
<feColorMatrix type="matrix" values="0 0 0 0 0 0 0 0 0 0 0 0 0 0 0 0 0 0 0.25 0"/>
<feBlend mode="normal" in2="BackgroundImageFix" result="effect1_dropShadow"/>
<feBlend mode="normal" in="SourceGraphic" in2="effect1_dropShadow" result="shape"/>
</filter>
<linearGradient id="paint0_linear" x1="231.439" y1="144.568" x2="243.499" y2="127.718" gradientUnits="userSpaceOnUse">
<stop stop-color="#AA4200" stop-opacity="0"/>
<stop offset="0.98" stop-color="#AA003D"/>
</linearGradient>
<linearGradient id="paint1_linear" x1="15258.1" y1="4964.75" x2="15442.8" y2="4469.04" gradientUnits="userSpaceOnUse">
<stop stop-color="#AA4200" stop-opacity="0"/>
<stop offset="0.98" stop-color="#AA003D"/>
</linearGradient>
<linearGradient id="paint2_linear" x1="14961.8" y1="17385.3" x2="16213.7" y2="13925" gradientUnits="userSpaceOnUse">
<stop stop-color="#AA4200" stop-opacity="0"/>
<stop offset="0.98" stop-color="#AA003D"/>
</linearGradient>
</defs>
</svg>
