<svg width="270" height="270" viewBox="0 0 270 270" fill="none" xmlns="http://www.w3.org/2000/svg">
<path d="M264.039 176.112L99.0387 268.112C97.4712 268.985 95.6926 269.409 93.8995 269.335C92.1064 269.26 90.3688 268.692 88.8787 267.692L5.2887 211.692C3.9007 210.763 2.77521 209.492 2.02054 208.002C1.26587 206.512 0.907471 204.853 0.979797 203.184C1.05212 201.516 1.55276 199.894 2.43353 198.475C3.3143 197.056 4.5455 195.887 6.0087 195.082L162.909 108.612C164.347 107.82 165.962 107.404 167.604 107.404C169.246 107.404 170.861 107.82 172.299 108.612L263.999 159.092C265.52 159.93 266.789 161.16 267.674 162.655C268.559 164.149 269.027 165.853 269.031 167.59C269.036 169.327 268.575 171.033 267.697 172.531C266.819 174.03 265.556 175.266 264.039 176.112Z" fill="#FFE922"/>
<path opacity="0.32" d="M75.1788 216.072L130.559 248.582L117.659 255.722L62.9488 224.632C70.3488 219.622 68.7788 222.262 75.1788 216.072Z" fill="url(#paint0_linear)"/>
<path d="M41.2588 197.442L23.3788 194.662L38.9388 210.522" fill="#FFC65A"/>
<path d="M41.2588 211.222C38.3262 211.222 35.9488 208.137 35.9488 204.332C35.9488 200.527 38.3262 197.442 41.2588 197.442C44.1915 197.442 46.5688 200.527 46.5688 204.332C46.5688 208.137 44.1915 211.222 41.2588 211.222Z" fill="#40006B"/>
<path d="M102.049 246.822L38.9386 210.522L43.2486 197.942L106.579 234.382L102.049 246.822Z" fill="#40006B"/>
<path d="M104.119 247.362C101.186 247.362 98.8087 244.277 98.8087 240.472C98.8087 236.667 101.186 233.582 104.119 233.582C107.051 233.582 109.429 236.667 109.429 240.472C109.429 244.277 107.051 247.362 104.119 247.362Z" fill="#40006B"/>
<path opacity="0.52" d="M104.119 247.362C101.186 247.362 98.8087 244.277 98.8087 240.472C98.8087 236.667 101.186 233.582 104.119 233.582C107.051 233.582 109.429 236.667 109.429 240.472C109.429 244.277 107.051 247.362 104.119 247.362Z" fill="#505A63"/>
<path d="M23.3787 194.702L30.1787 195.702C30.1787 195.702 27.6487 196.552 28.3787 199.702L23.3787 194.702Z" fill="#895415"/>
<path style="mix-blend-mode:multiply" d="M237.529 183.812C231.029 178.232 226.299 173.022 219.529 167.722L243.199 165.332L258.259 171.272C251.499 175.642 244.519 179.702 237.529 183.812Z" fill="url(#paint1_linear)"/>
<path d="M240.889 155.012C241.313 155.01 241.733 154.918 242.119 154.742L242.309 155.992L222.309 156.502V155.012H240.889Z" fill="#EF8A3F"/>
<path d="M242.129 154.782L242.309 155.982L231.259 162.362V160.812C234.979 159.012 238.569 156.932 242.129 154.782Z" fill="#EF8A3F"/>
<path d="M230.969 68.4817C231.622 68.59 232.293 68.4921 232.889 68.2017L245.569 166.062C244.799 166.532 243.999 166.952 243.219 167.392L230.389 68.3917L230.969 68.4817Z" fill="#EF8A3F"/>
<path d="M228.049 68.3718C228.511 68.4224 228.977 68.4224 229.439 68.3718C229.809 68.3718 230.189 68.3718 230.559 68.4318L221.989 168.772C221.338 168.453 220.67 168.169 219.989 167.922L219.649 167.752H219.589L228.049 68.3718Z" fill="#EF8A3F"/>
<path d="M229.439 68.3718C229.951 68.3744 230.462 68.4112 230.969 68.4818C231.168 68.4976 231.369 68.4976 231.569 68.4818L232.409 174.482C231.979 174.329 231.517 174.291 231.069 174.372H230.349H229.929L229.089 68.3718H229.439Z" fill="#EF8A3F"/>
<path d="M243.269 70.0618V91.9818C243.269 91.9818 218.049 92.7318 218.049 91.9818V70.0618" fill="#40006B"/>
<path d="M230.659 75.8619C223.694 75.8619 218.049 73.2472 218.049 70.0219C218.049 66.7965 223.694 64.1819 230.659 64.1819C237.623 64.1819 243.269 66.7965 243.269 70.0219C243.269 73.2472 237.623 75.8619 230.659 75.8619Z" fill="#40006B"/>
<path opacity="0.46" d="M230.659 75.8619C223.694 75.8619 218.049 73.2472 218.049 70.0219C218.049 66.7965 223.694 64.1819 230.659 64.1819C237.623 64.1819 243.269 66.7965 243.269 70.0219C243.269 73.2472 237.623 75.8619 230.659 75.8619Z" fill="#091114"/>
<path d="M230.659 98.1517C223.694 98.1517 218.049 95.537 218.049 92.3117C218.049 89.0863 223.694 86.4717 230.659 86.4717C237.623 86.4717 243.269 89.0863 243.269 92.3117C243.269 95.537 237.623 98.1517 230.659 98.1517Z" fill="#40006B"/>
<path d="M65.7886 134.542C65.7886 129.952 72.9586 129.942 72.9286 134.542C72.7886 154.242 72.0153 173.908 70.6086 193.542C70.2786 198.092 63.1486 198.132 63.4686 193.542C64.8753 173.908 65.6486 154.242 65.7886 134.542Z" fill="#091114"/>
<path d="M110.099 118.162L135.499 152.942C138.209 156.652 132.019 160.222 129.339 156.542L103.939 121.762C101.179 118.052 107.419 114.492 110.099 118.162Z" fill="#091114"/>
<path d="M11.7687 77.4218L145.179 0.621773C145.775 0.279048 146.448 0.0926186 147.136 0.0798094C147.824 0.0670002 148.503 0.228227 149.112 0.548507C149.72 0.868787 150.238 1.33772 150.617 1.91174C150.996 2.48576 151.224 3.14623 151.279 3.83177L159.839 110.252C159.9 111.025 159.74 111.8 159.377 112.485C159.014 113.171 158.463 113.738 157.789 114.122L27.2087 188.122C26.6214 188.453 25.9612 188.634 25.287 188.648C24.6128 188.661 23.9457 188.508 23.3453 188.201C22.745 187.894 22.2301 187.443 21.8468 186.888C21.4635 186.333 21.2236 185.692 21.1487 185.022L9.7587 81.4018C9.67145 80.6149 9.81503 79.8196 10.1719 79.1129C10.5288 78.4062 11.0836 77.8186 11.7687 77.4218Z" fill="#D15713"/>
<path d="M25.1388 103.092L81.6688 71.4419L89.5288 137.542L32.8588 169.372L25.1388 103.092Z" fill="#40006B"/>
<path d="M132.179 32.8918C132.179 32.8918 132.099 56.0618 136.309 60.6618L118.779 70.9018C116.962 68.5639 115.743 65.8177 115.229 62.9018C114.849 60.2918 113.579 43.0318 113.579 43.0318L132.179 32.8918Z" fill="#40006B"/>
<path d="M110.749 45.2817C110.749 45.2817 110.669 68.4517 114.879 73.0517L97.3387 83.2917C95.5219 80.9537 94.3033 78.2076 93.7887 75.2917C93.4087 72.7017 92.1787 55.4417 92.1787 55.4417L110.749 45.2817Z" fill="#40006B"/>
<path d="M66.2487 75.8518L68.1887 83.3118L36.3987 100.612L34.1487 94.0918L66.2487 75.8518Z" fill="#091114"/>
<path d="M101.029 53.1019C99.394 53.1019 98.0688 51.7767 98.0688 50.1419C98.0688 48.5071 99.394 47.1819 101.029 47.1819C102.664 47.1819 103.989 48.5071 103.989 50.1419C103.989 51.7767 102.664 53.1019 101.029 53.1019Z" fill="#E28133"/>
<path d="M104.159 130.832L98.7986 89.4618L134.869 67.8318L104.159 130.832Z" fill="#AD3C04"/>
<path d="M135.889 68.3618L104.159 86.9118V130.832L135.889 111.842V68.3618Z" fill="#FF876A"/>
<path d="M121.079 40.4819C119.477 40.4819 118.179 39.1835 118.179 37.5819C118.179 35.9803 119.477 34.6819 121.079 34.6819C122.68 34.6819 123.979 35.9803 123.979 37.5819C123.979 39.1835 122.68 40.4819 121.079 40.4819Z" fill="#E28133"/>
<path opacity="0.32" d="M157.529 185.032L228.659 224.942L202.659 240.502L133.079 200.972C142.459 194.582 149.379 192.902 157.529 185.032Z" fill="url(#paint2_linear)"/>
<path d="M135.799 79.0717C135.799 79.0717 136.379 75.0717 135.799 73.5917C135.32 71.6995 135.008 69.7687 134.869 67.8217C134.49 67.7363 134.094 67.7904 133.752 67.9742C133.41 68.1579 133.146 68.4589 133.009 68.8217C132.459 70.1517 133.609 73.4217 133.609 73.4217C133.609 73.4217 130.329 80.2317 133.609 83.3317C136.889 86.4317 135.799 79.0717 135.799 79.0717Z" fill="#FFAC99"/>
<path d="M157.579 100.332L135.799 79.0718C135.799 79.0718 130.869 89.7918 135.799 94.7018L155.799 114.582" fill="#091114"/>
<path d="M161.649 188.232C161.649 188.232 164.649 192.402 164.409 194.842C164.169 197.282 160.329 201.392 159.459 203.132C158.589 204.872 158.359 205.642 159.459 206.912C160.559 208.182 169.929 200.012 170.179 198.702C170.429 197.392 168.869 192.382 168.869 192.382L173.029 197.642L176.029 195.852L169.599 185.022" fill="#EA7554"/>
<path d="M160.459 207.042C160.709 206.792 168.139 204.212 168.139 204.212C168.139 204.212 171.629 200.582 171.529 199.212C171.429 197.842 170.149 192.332 168.849 192.392C167.549 192.452 167.399 199.722 167.399 199.722L160.459 207.042Z" fill="#AF4127"/>
<path d="M151.619 195.152L150.619 206.262C150.619 206.262 148.219 208.022 147.619 207.862C147.019 207.702 145.269 207.252 145.249 206.972C145.229 206.692 146.099 199.122 145.849 198.972C145.599 198.822 141.919 204.752 140.769 204.882C139.619 205.012 130.769 199.882 131.649 197.942C132.529 196.002 136.749 197.012 138.849 197.002C140.296 196.933 141.692 196.44 142.86 195.582C144.029 194.725 144.919 193.542 145.419 192.182" fill="#EA7554"/>
<path d="M146.049 165.052L140.669 193.532C140.669 193.532 143.779 197.592 154.879 197.082L163.179 176.882" fill="#FFC65A"/>
<path d="M143.669 120.352C143.669 120.352 135.379 132.452 137.929 152.032C140.189 169.392 157.529 189.842 157.529 189.842C157.529 189.842 162.719 192.132 173.529 181.922L161.619 162.992C161.619 162.992 173.229 136.102 159.519 118.992" fill="#FFC65A"/>
<path d="M120.299 97.1419C120.299 96.821 120.171 96.5132 119.944 96.2863C119.717 96.0594 119.41 95.9319 119.089 95.9319C118.768 95.9319 118.46 96.0594 118.233 96.2863C118.006 96.5132 117.879 96.821 117.879 97.1419C117.879 97.9519 117.879 98.7719 117.879 99.5819L117.609 99.0519C116.662 96.7988 115.955 94.4526 115.499 92.0519C115.199 90.4919 112.959 91.1919 113.169 92.6919C113.33 93.8684 113.577 95.0315 113.909 96.1719L113.669 96.0719C113.464 96.0097 113.249 95.9896 113.036 96.0127C112.823 96.0357 112.617 96.1015 112.43 96.2061C112.244 96.3107 112.08 96.4519 111.949 96.6213C111.818 96.7907 111.723 96.9848 111.669 97.1919C111.549 97.5635 111.529 97.9598 111.609 98.3419H111.429C111.165 98.4263 110.924 98.5723 110.727 98.7678C110.531 98.9634 110.383 99.2029 110.297 99.4666C110.211 99.7303 110.189 100.011 110.233 100.285C110.277 100.558 110.385 100.818 110.549 101.042C110.249 101.28 110.043 101.616 109.969 101.992C109.916 102.418 109.981 102.851 110.157 103.242C110.334 103.634 110.614 103.969 110.969 104.212C111.799 104.902 112.709 105.802 113.469 106.542C114.469 107.542 115.599 108.482 116.529 109.262C117.459 110.042 118.999 107.472 119.019 106.612C119.191 106.668 119.375 106.681 119.554 106.649C119.732 106.618 119.9 106.543 120.044 106.432C120.187 106.32 120.3 106.175 120.374 106.01C120.448 105.844 120.481 105.663 120.469 105.482C120.275 102.715 120.219 99.9352 120.299 97.1419Z" fill="#FFAC99"/>
<path d="M115.459 99.7017C114.885 98.5083 114.359 97.2984 113.879 96.0717C113.779 95.8117 113.349 95.9217 113.459 96.1917C113.952 97.4583 114.492 98.7017 115.079 99.9217C115.179 100.202 115.589 99.9817 115.459 99.7017Z" fill="#AF594A"/>
<path d="M144.929 93.6519C142.851 95.5103 140.974 97.5817 139.329 99.8319C137.769 102.362 131.489 109.282 128.909 107.202C126.329 105.122 121.749 101.142 121.749 101.142C121.749 101.142 115.219 105.632 115.899 110.302C115.899 110.302 121.699 122.152 130.739 119.532C139.779 116.912 142.029 113.532 142.029 113.532L143.399 121.232C143.399 121.232 154.619 124.742 159.809 119.532C159.809 119.532 163.219 97.3919 160.709 94.0919" fill="#091114"/>
<path d="M143.679 80.2418C143.599 80.5018 143.399 88.5318 146.129 89.2418C148.859 89.9518 153.499 88.1018 154.709 85.5518C155.919 83.0018 154.189 74.9018 149.889 74.4318C145.589 73.9618 144.449 77.9018 143.679 80.2418Z" fill="#FFAC99"/>
<path d="M146.989 81.7018C148.789 82.9218 147.649 85.2318 146.889 86.7018C146.323 87.8403 146.048 89.1012 146.089 90.3718C146.112 91.5592 145.695 92.7133 144.919 93.6118C144.319 94.365 143.805 95.1835 143.389 96.0518C147.375 96.7768 151.455 96.8275 155.459 96.2018C158.757 95.9358 162.038 95.4952 165.289 94.8818C165.25 94.1928 165.091 93.516 164.819 92.8818C164.049 91.1118 162.819 90.1618 163.079 88.0818C163.309 86.4718 163.719 84.8918 163.159 83.3018C162.599 81.7118 161.159 80.9018 159.869 79.9318C159.483 79.6496 159.122 79.3352 158.789 78.9918L158.509 78.5118C157.845 77.0561 157.034 75.6722 156.089 74.3818C155.034 73.324 153.673 72.6244 152.199 72.3818C150.66 72.098 149.08 72.1289 147.554 72.4727C146.028 72.8164 144.587 73.4659 143.319 74.3818C143.319 74.3818 140.979 76.6318 141.709 79.0418C142.439 81.4518 145.379 80.6318 146.989 81.7018Z" fill="#E28133"/>
<path d="M144.939 170.922C144.939 170.922 154.429 187.352 157.529 189.852L154.889 197.082C154.889 197.082 143.859 181.602 144.939 170.922Z" fill="#EA7554"/>
<path d="M161.399 162.122C158.37 155.725 156.685 148.775 156.449 141.702C156.449 141.142 155.549 141.132 155.569 141.702C155.813 148.932 157.538 156.035 160.639 162.572C160.879 163.072 161.639 162.632 161.399 162.122Z" fill="#EA7554"/>
<defs>
<linearGradient id="paint0_linear" x1="119.579" y1="254.592" x2="107.759" y2="245.282" gradientUnits="userSpaceOnUse">
<stop stop-color="white" stop-opacity="0"/>
<stop offset="0.98" stop-color="#AA6800"/>
</linearGradient>
<linearGradient id="paint1_linear" x1="224.049" y1="149.062" x2="247.359" y2="181.052" gradientUnits="userSpaceOnUse">
<stop stop-color="#F15A24"/>
<stop offset="1" stop-color="white"/>
</linearGradient>
<linearGradient id="paint2_linear" x1="-11563" y1="13753.5" x2="-14875.1" y2="10012.4" gradientUnits="userSpaceOnUse">
<stop stop-color="white" stop-opacity="0"/>
<stop offset="0.98" stop-color="#AA6800"/>
</linearGradient>
</defs>
</svg>
