<svg width="336" height="310" viewBox="0 0 336 310" fill="none" xmlns="http://www.w3.org/2000/svg">
<g filter="url(#filter0_d)">
<ellipse cx="164.911" cy="149.009" rx="132.279" ry="129.555" fill="#E6E6E6" fill-opacity="0.6"/>
</g>
<path opacity="0.2" d="M289.974 39.1665C300.453 39.1665 308.948 30.8465 308.948 20.5833C308.948 10.32 300.453 2 289.974 2C279.495 2 271 10.32 271 20.5833C271 30.8465 279.495 39.1665 289.974 39.1665Z" fill="#FFD200"/>
<path d="M301.724 22.7255C302.208 20.878 302.223 18.9424 301.767 17.088C301.311 15.2336 300.398 13.5168 299.108 12.0879C297.818 10.6589 296.19 9.56129 294.367 8.89102C292.544 8.22076 290.58 7.99825 288.649 8.24297C286.717 8.48769 284.876 9.19218 283.287 10.2948C281.698 11.3975 280.409 12.8647 279.533 14.5681C278.656 16.2715 278.22 18.1593 278.26 20.0663C278.301 21.9734 278.819 23.8415 279.767 25.5074C280.961 27.6295 281.273 30.1205 280.638 32.4622L280.544 32.8517L291.972 35.717L292.047 35.4296C292.691 33.0532 294.253 31.0149 296.403 29.7452C299.038 28.1686 300.945 25.6521 301.724 22.7255Z" fill="#FFD200"/>
<path d="M283.27 33.5841C283.174 33.5621 283.09 33.5068 283.032 33.4283C282.975 33.3499 282.948 33.2537 282.958 33.1576L284.283 18.2373C284.288 18.1836 284.304 18.1314 284.329 18.0836C284.355 18.0359 284.39 17.9936 284.432 17.9591C284.474 17.9246 284.523 17.8986 284.575 17.8827C284.628 17.8668 284.683 17.8612 284.738 17.8663C284.792 17.8697 284.845 17.8839 284.893 17.908C284.941 17.932 284.984 17.9655 285.018 18.0063C285.053 18.0471 285.079 18.0944 285.094 18.1453C285.109 18.1961 285.114 18.2495 285.107 18.3022L283.782 33.2225C283.778 33.2757 283.764 33.3278 283.739 33.3754C283.715 33.4231 283.681 33.4655 283.639 33.5001C283.598 33.5347 283.55 33.5608 283.498 33.5768C283.446 33.5928 283.391 33.5985 283.337 33.5934L283.27 33.5841Z" fill="white"/>
<path d="M289.292 35.0957H289.226C289.126 35.0512 289.048 34.9696 289.009 34.8689C288.97 34.7681 288.973 34.6563 289.018 34.5579L295.172 20.8521C295.192 20.8019 295.223 20.7562 295.262 20.718C295.302 20.6798 295.348 20.6498 295.4 20.6299C295.451 20.6099 295.506 20.6004 295.561 20.602C295.616 20.6035 295.671 20.616 295.721 20.6388C295.821 20.6833 295.899 20.7649 295.938 20.8657C295.977 20.9664 295.974 21.0782 295.929 21.1767L289.775 34.8824C289.731 34.9661 289.659 35.0328 289.572 35.0715C289.484 35.1102 289.385 35.1188 289.292 35.0957Z" fill="white"/>
<path d="M293.386 34.2274L280.297 30.9456L277.653 41.0607L290.742 44.3425L293.386 34.2274Z" fill="#24285B"/>
<path d="M290.618 22.9201C290.325 22.8172 290.062 22.6487 289.848 22.4281C289.634 22.2075 289.476 21.9409 289.387 21.6497C289.264 21.3623 289.103 21.2046 288.932 21.1768C288.535 21.1119 287.929 21.6219 287.702 21.8723C287.627 21.9467 287.526 21.9902 287.42 21.994C287.313 21.9979 287.209 21.9616 287.129 21.8928C287.049 21.8239 286.999 21.7277 286.99 21.6239C286.98 21.5201 287.011 21.4165 287.077 21.3344C287.181 21.2232 288.109 20.2217 289.065 20.4071C289.312 20.4576 289.542 20.5693 289.733 20.7317C289.923 20.894 290.068 21.1016 290.154 21.3344C290.305 21.6683 290.542 22.0856 290.883 22.1319C291.224 22.1783 291.716 21.7703 291.83 21.6219C291.862 21.5733 291.904 21.5318 291.953 21.5004C292.003 21.4689 292.059 21.4481 292.117 21.4394C292.175 21.4307 292.235 21.4342 292.292 21.4498C292.349 21.4653 292.402 21.4926 292.447 21.5297C292.492 21.5668 292.529 21.6129 292.555 21.665C292.581 21.717 292.595 21.7739 292.596 21.8317C292.598 21.8895 292.587 21.947 292.564 22.0004C292.541 22.0538 292.507 22.1018 292.464 22.1412C292.26 22.396 291.998 22.6008 291.698 22.7392C291.399 22.8776 291.071 22.9459 290.741 22.9387L290.618 22.9201Z" fill="white"/>
<g clip-path="url(#clip0)">
<path d="M245.097 179.744C245.097 179.744 257.517 177.584 256.68 185.747H245.097V179.744Z" fill="#F4A28C"/>
<path d="M217.527 164.894L213.775 184.469H234.846L231.974 161.969L217.527 164.894Z" fill="#C9C9C9"/>
<path d="M266.27 101.705H182.679V162.716H266.27V101.705Z" fill="#24285B"/>
<path d="M238.347 142.044H212.05V144.699H238.347V142.044Z" fill="#40006B"/>
<path d="M250.064 149.009H223.766V151.664H250.064V149.009Z" fill="#FFD200"/>
<path d="M266.27 157.469H182.679V169.016H266.27V157.469Z" fill="#E6E6E6"/>
<path d="M227.786 135.626H205.718V138.281H227.786V135.626Z" fill="#40006B"/>
<path d="M254.444 135.626H232.375V138.281H254.444V135.626Z" fill="#40006B"/>
<path d="M231.781 128.237H212.05V130.892H231.781V128.237Z" fill="#FFD200"/>
<path d="M256.646 128.237H236.915V130.892H256.646V128.237Z" fill="#FFD200"/>
<path d="M207.427 142.044H197.536V144.699H207.427V142.044Z" fill="white"/>
<path d="M217.276 149.009H207.385V151.664H217.276V149.009Z" fill="white"/>
<path d="M201.095 135.626H191.204V138.281H201.095V135.626Z" fill="white"/>
<path opacity="0.14" d="M193.6 123.125C193.6 123.125 234.436 118.715 225.425 169.025L228.532 181.292L215.785 173.858L216.807 169.034H210.057L193.6 123.125Z" fill="black"/>
<path d="M193.599 108.95C194.242 108.95 194.763 108.39 194.763 107.699C194.763 107.009 194.242 106.448 193.599 106.448C192.956 106.448 192.435 107.009 192.435 107.699C192.435 108.39 192.956 108.95 193.599 108.95Z" fill="#40006B"/>
<path d="M196.866 108.95C197.509 108.95 198.03 108.39 198.03 107.699C198.03 107.009 197.509 106.448 196.866 106.448C196.223 106.448 195.702 107.009 195.702 107.699C195.702 108.39 196.223 108.95 196.866 108.95Z" fill="#FFD200"/>
<path d="M201.095 115.439H191.204V118.094H201.095V115.439Z" fill="white"/>
<path d="M207.427 122.081H197.536V124.736H207.427V122.081Z" fill="white"/>
<path d="M231.781 122.081H212.05V124.736H231.781V122.081Z" fill="#FFD200"/>
<path d="M256.646 122.081H236.915V124.736H256.646V122.081Z" fill="#FFD200"/>
<path d="M207.427 128.237H197.536V130.892H207.427V128.237Z" fill="white"/>
<path d="M225.424 115.439H205.048V118.094H225.424V115.439Z" fill="#40006B"/>
<path d="M244.151 115.439H229.688V118.094H244.151V115.439Z" fill="#40006B"/>
<path d="M225.425 166.172C227.141 166.172 228.532 164.678 228.532 162.833C228.532 160.989 227.141 159.494 225.425 159.494C223.709 159.494 222.317 160.989 222.317 162.833C222.317 164.678 223.709 166.172 225.425 166.172Z" fill="#A5A5A5"/>
<path d="M107.17 181.319H65.1523V184.469H107.17V181.319Z" fill="#C9C9C9"/>
<path d="M81.902 179.744C81.902 179.744 69.4818 177.584 70.3193 185.747H81.902V179.744Z" fill="#F4A28C"/>
<path d="M105.001 164.894L101.249 184.469H122.32L119.447 161.969L105.001 164.894Z" fill="#C9C9C9"/>
<path d="M150.242 101.705H66.6514V162.716H150.242V101.705Z" fill="#24285B"/>
<path d="M122.319 142.044H96.022V144.699H122.319V142.044Z" fill="#40006B"/>
<path d="M150.242 157.469H66.6514V169.016H150.242V157.469Z" fill="#E6E6E6"/>
<path d="M111.759 135.626H89.6909V138.281H111.759V135.626Z" fill="#40006B"/>
<path d="M115.753 128.237H96.022V130.892H115.753V128.237Z" fill="#FFD200"/>
<path d="M91.3992 142.044H81.5083V144.699H91.3992V142.044Z" fill="white"/>
<path d="M101.248 149.009H91.3574V151.664H101.248V149.009Z" fill="white"/>
<path d="M85.0676 135.626H75.1768V138.281H85.0676V135.626Z" fill="white"/>
<path d="M74.1133 108.95C74.7563 108.95 75.2775 108.39 75.2775 107.699C75.2775 107.009 74.7563 106.448 74.1133 106.448C73.4704 106.448 72.9492 107.009 72.9492 107.699C72.9492 108.39 73.4704 108.95 74.1133 108.95Z" fill="white"/>
<path d="M77.5723 108.95C78.2153 108.95 78.7365 108.39 78.7365 107.699C78.7365 107.009 78.2153 106.448 77.5723 106.448C76.9294 106.448 76.4082 107.009 76.4082 107.699C76.4082 108.39 76.9294 108.95 77.5723 108.95Z" fill="#40006B"/>
<path d="M80.8384 108.95C81.4814 108.95 82.0026 108.39 82.0026 107.699C82.0026 107.009 81.4814 106.448 80.8384 106.448C80.1955 106.448 79.6743 107.009 79.6743 107.699C79.6743 108.39 80.1955 108.95 80.8384 108.95Z" fill="#FFD200"/>
<path d="M85.0676 115.439H75.1768V118.094H85.0676V115.439Z" fill="white"/>
<path d="M91.3992 122.081H81.5083V124.736H91.3992V122.081Z" fill="white"/>
<path d="M115.753 122.081H96.022V124.736H115.753V122.081Z" fill="#FFD200"/>
<path d="M91.3992 128.237H81.5083V130.892H91.3992V128.237Z" fill="white"/>
<path d="M109.397 115.439H89.021V118.094H109.397V115.439Z" fill="#40006B"/>
<path opacity="0.45" d="M164.747 276.773C239.447 276.773 300.004 268.34 300.004 257.936C300.004 247.533 239.447 239.099 164.747 239.099C90.0475 239.099 29.4912 247.533 29.4912 257.936C29.4912 268.34 90.0475 276.773 164.747 276.773Z" fill="#E6E6E6"/>
<path d="M144.279 121.118C144.279 121.118 115.125 123.27 112.889 140.667C111.65 150.333 114.112 159.072 116.549 164.967C116.921 165.862 117.093 166.838 117.051 167.818C117.01 168.797 116.756 169.753 116.31 170.609C115.865 171.464 115.239 172.196 114.484 172.746C113.729 173.296 112.864 173.65 111.96 173.777L81.9019 178.277V185.793L123.727 184.461C127.97 184.326 132.019 182.522 135.107 179.392C138.194 176.261 140.105 172.022 140.477 167.477L144.279 121.118Z" fill="#40006B"/>
<path d="M182.679 121.118C182.679 121.118 211.832 123.27 214.068 140.667C215.308 150.333 212.845 159.072 210.408 164.967C210.037 165.862 209.865 166.838 209.907 167.818C209.948 168.797 210.202 169.753 210.647 170.609C211.093 171.464 211.718 172.196 212.474 172.746C213.229 173.296 214.093 173.65 214.998 173.777L245.056 178.277V185.793L203.223 184.416C198.98 184.279 194.932 182.475 191.844 179.345C188.757 176.214 186.846 171.976 186.473 167.433L182.679 121.118Z" fill="#40006B"/>
<path opacity="0.46" d="M144.279 121.118C144.279 121.118 115.125 123.27 112.889 140.667C111.65 150.333 114.112 159.072 116.549 164.967C116.921 165.862 117.093 166.838 117.051 167.818C117.01 168.797 116.756 169.753 116.31 170.609C115.865 171.464 115.239 172.196 114.484 172.746C113.729 173.296 112.864 173.65 111.96 173.777L81.9019 178.277V185.793L123.727 184.461C127.97 184.326 132.019 182.522 135.107 179.392C138.194 176.261 140.105 172.022 140.477 167.477L144.279 121.118Z" fill="white"/>
<path opacity="0.46" d="M182.679 121.118C182.679 121.118 211.832 123.27 214.068 140.667C215.308 150.333 212.845 159.072 210.408 164.967C210.037 165.862 209.865 166.838 209.907 167.818C209.948 168.797 210.202 169.753 210.647 170.609C211.093 171.464 211.718 172.196 212.474 172.746C213.229 173.296 214.093 173.65 214.998 173.777L245.056 178.277V185.793L203.223 184.416C198.98 184.279 194.932 182.475 191.844 179.345C188.757 176.214 186.846 171.976 186.473 167.433L182.679 121.118Z" fill="white"/>
<path d="M273.832 191.417H53.9883V257.945H273.832V191.417Z" fill="#C9C9C9"/>
<path d="M273.832 184.469H53.9883V200.732H273.832V184.469Z" fill="#E6E6E6"/>
<path d="M160.786 121.118L164.346 104.441C164.346 104.441 164.463 96.6294 169.128 98.4474C173.793 100.265 175.191 109.319 172.679 112.379C170.166 115.439 168.491 111.263 168.491 111.263V120.488L160.786 121.118Z" fill="#F4A28C"/>
<path opacity="0.1" d="M222.317 185.027C222.317 185.027 202.996 189.446 211.07 197.825C219.143 206.204 214.688 217.985 209.093 221.387C203.499 224.789 180.325 228.893 187.729 257.594H161.607L159.681 242.294L142.931 223.286L150.25 204.953L170.845 174.866L184.797 187.295L192.435 184.469L222.317 185.027Z" fill="black"/>
<path d="M156.138 120.353C156.138 120.353 127.077 117.572 123.283 138.659C119.489 159.746 146.532 199.544 146.532 199.544L184.219 197.969C184.219 197.969 242.769 109.589 156.138 120.353Z" fill="#40006B"/>
<path d="M159.672 242.268C159.672 242.268 161.347 244.644 160.25 246.894C159.153 249.144 160.736 251.052 162.394 249.486C164.052 247.92 164.739 241.386 164.739 241.386L160.996 239.037L159.672 242.268Z" fill="#40006B"/>
<path d="M146.532 199.544C146.532 199.544 144.019 213.719 149.673 214.394C155.326 215.069 195.316 216.986 202.016 210.965C208.716 204.944 207.041 196.619 184.219 197.969L146.532 199.544Z" fill="#24285B"/>
<path d="M146.205 201.992C146.205 201.992 128.735 216.662 137.738 227.462C146.741 238.262 159.722 244.562 159.722 244.562L161.607 239.387C161.607 239.387 134.388 216.662 160.141 212.162L146.205 201.992Z" fill="#24285B"/>
<path d="M168.567 154.247H158.29C147.708 154.247 139.128 163.467 139.128 174.84C139.128 186.212 147.708 195.432 158.29 195.432H168.567C179.149 195.432 187.729 186.212 187.729 174.84C187.729 163.467 179.149 154.247 168.567 154.247Z" fill="#FFD200"/>
<path d="M167.997 174.839H158.433V216.086H167.997V174.839Z" fill="#FFD200"/>
<path opacity="0.08" d="M167.997 174.839H158.433V216.086H167.997V174.839Z" fill="black"/>
<path d="M182.679 210.965H144.279V223.286H182.679V210.965Z" fill="#FFD200"/>
<path d="M161.884 109.905L161.942 105.954C161.967 105.044 161.821 104.139 161.514 103.291C161.206 102.444 160.742 101.672 160.15 101.022C159.906 100.818 159.703 100.564 159.55 100.275C159.398 99.9861 159.301 99.6678 159.263 99.3383C159.226 99.0088 159.25 98.6746 159.333 98.3549C159.416 98.0353 159.557 97.7364 159.748 97.4755C161.674 94.5145 163.299 96.4315 165.242 93.8125C167.185 91.1935 168.651 90.6805 170.92 93.8125C173.19 96.9445 174.974 93.2905 176.272 97.1245C177.57 100.959 176.431 102.876 171.406 103.227C167.135 103.524 168.458 108.726 164.497 111.462C164.24 111.648 163.941 111.754 163.632 111.769C163.323 111.784 163.016 111.707 162.745 111.545C162.475 111.384 162.251 111.145 162.099 110.856C161.947 110.566 161.872 110.237 161.884 109.905Z" fill="#24285B"/>
<path d="M166.272 223.277H160.175V251.745H166.272V223.277Z" fill="#FFD200"/>
<path opacity="0.08" d="M166.272 223.277H160.175V251.745H166.272V223.277Z" fill="black"/>
<path d="M160.175 251.744L148.383 263.444H178.985L166.263 251.744H160.175Z" fill="#FFD200"/>
<path d="M262.802 206.519H240.189V248.594H262.802V206.519Z" fill="#A5A5A5"/>
<path d="M234.888 200.732H229.587V257.945H234.888V200.732Z" fill="#E6E6E6"/>
<path d="M273.832 200.732H268.531V257.945H273.832V200.732Z" fill="#E6E6E6"/>
<path d="M273.841 248.594H234.369V257.936H273.841V248.594Z" fill="#E6E6E6"/>
<path d="M65.1521 200.732H53.9883V257.945H65.1521V200.732Z" fill="#E6E6E6"/>
<path opacity="0.42" d="M96.9773 241.764H65.1523V248.595H96.9773V241.764Z" fill="#A5A5A5"/>
<path d="M113.091 248.324H65.1523V257.936H113.091V248.324Z" fill="#A5A5A5"/>
<path d="M128.124 115.439H113.66V118.094H128.124V115.439Z" fill="#40006B"/>
<path d="M111.558 166.172C113.274 166.172 114.665 164.678 114.665 162.833C114.665 160.989 113.274 159.494 111.558 159.494C109.842 159.494 108.451 160.989 108.451 162.833C108.451 164.678 109.842 166.172 111.558 166.172Z" fill="#A5A5A5"/>
<path d="M190.141 108.95C190.784 108.95 191.305 108.39 191.305 107.699C191.305 107.009 190.784 106.448 190.141 106.448C189.498 106.448 188.977 107.009 188.977 107.699C188.977 108.39 189.498 108.95 190.141 108.95Z" fill="white"/>
<path d="M281.035 88.1425H248.582V112.118H281.035V88.1425Z" fill="#FFD200"/>
<path d="M260.449 104.837C260.282 104.838 260.119 104.778 259.988 104.666L255.148 100.535C255.06 100.46 254.989 100.364 254.939 100.255C254.89 100.146 254.864 100.027 254.863 99.9054C254.862 99.7836 254.887 99.6632 254.935 99.5528C254.982 99.4423 255.052 99.3445 255.139 99.2664L260.005 95.0634C260.161 94.9364 260.357 94.8796 260.552 94.9052C260.746 94.9307 260.924 95.0366 261.047 95.2004C261.17 95.3642 261.229 95.573 261.211 95.7827C261.193 95.9923 261.1 96.1862 260.951 96.3234L256.814 99.9234L260.943 103.424C261.021 103.489 261.087 103.571 261.135 103.663C261.184 103.756 261.215 103.858 261.227 103.963C261.239 104.069 261.231 104.176 261.204 104.278C261.176 104.38 261.131 104.475 261.069 104.558C260.993 104.654 260.898 104.73 260.79 104.778C260.682 104.827 260.565 104.847 260.449 104.837Z" fill="white"/>
<path d="M269.259 104.838C269.146 104.838 269.035 104.811 268.933 104.758C268.831 104.705 268.742 104.627 268.673 104.532C268.611 104.449 268.565 104.353 268.538 104.251C268.511 104.149 268.503 104.042 268.515 103.936C268.526 103.831 268.557 103.729 268.606 103.636C268.655 103.544 268.72 103.463 268.799 103.398L272.919 99.8965L268.79 96.2965C268.703 96.2344 268.629 96.1534 268.572 96.0587C268.516 95.9641 268.478 95.8578 268.462 95.7467C268.446 95.6356 268.452 95.5221 268.478 95.4135C268.505 95.3048 268.553 95.2034 268.618 95.1155C268.684 95.0277 268.765 94.9555 268.858 94.9035C268.951 94.8515 269.053 94.8208 269.157 94.8133C269.261 94.8059 269.366 94.8219 269.464 94.8603C269.563 94.8988 269.653 94.9588 269.728 95.0365L274.602 99.2395C274.689 99.3176 274.759 99.4154 274.807 99.5259C274.855 99.6363 274.879 99.7567 274.879 99.8785C274.878 99.9996 274.851 100.119 274.802 100.228C274.753 100.337 274.682 100.433 274.594 100.509L269.728 104.64C269.598 104.761 269.432 104.831 269.259 104.838Z" fill="white"/>
<path d="M262.819 104.837C262.709 104.84 262.6 104.815 262.5 104.765C262.32 104.675 262.18 104.512 262.111 104.312C262.042 104.111 262.049 103.889 262.132 103.694L265.675 95.3515C265.716 95.2545 265.774 95.1673 265.847 95.0947C265.92 95.0221 266.005 94.9656 266.098 94.9285C266.191 94.8913 266.29 94.8741 266.389 94.878C266.488 94.8818 266.585 94.9066 266.675 94.951C266.766 94.9953 266.847 95.0582 266.914 95.1363C266.982 95.2143 267.034 95.3059 267.069 95.4058C267.104 95.5056 267.12 95.6118 267.116 95.7183C267.112 95.8248 267.089 95.9295 267.048 96.0265L263.522 104.369C263.462 104.514 263.363 104.636 263.237 104.72C263.112 104.803 262.966 104.844 262.819 104.837Z" fill="white"/>
<path opacity="0.58" d="M79.2722 231.575C79.2722 231.575 71.5589 229.307 69.8755 221.594C69.8755 221.594 81.835 219.002 82.17 232.259L79.2722 231.575Z" fill="#40006B"/>
<path opacity="0.73" d="M80.1769 230.792C80.1769 230.792 74.7834 221.63 79.532 213.071C79.532 213.071 88.6189 219.272 84.557 230.81L80.1769 230.792Z" fill="#40006B"/>
<path d="M81.5669 230.792C81.5669 230.792 84.4144 221.126 93.0239 219.29C93.0239 219.29 94.6319 225.59 87.4461 230.819L81.5669 230.792Z" fill="#40006B"/>
<path d="M75.9727 230.54L77.5304 242.042L87.3794 242.087L88.8366 230.603L75.9727 230.54Z" fill="#24285B"/>
<path d="M255.324 219.263C256.924 219.263 258.221 217.869 258.221 216.149C258.221 214.43 256.924 213.035 255.324 213.035C253.723 213.035 252.426 214.43 252.426 216.149C252.426 217.869 253.723 219.263 255.324 219.263Z" fill="white"/>
<path opacity="0.18" d="M259.821 223.277H244.051V244.544H259.821V223.277Z" fill="white"/>
<path opacity="0.2" d="M9.9738 90.1665C-0.505219 90.1665 -9.00012 81.8465 -9.00012 71.5833C-9.00012 61.32 -0.505219 53 9.9738 53C20.4528 53 28.9478 61.32 28.9478 71.5833C28.9478 81.8465 20.4528 90.1665 9.9738 90.1665Z" fill="#FFD200"/>
<path d="M-1.77595 73.7254C-2.26043 71.8779 -2.27533 69.9423 -1.81938 68.0878C-1.36342 66.2334 -0.450508 64.5166 0.83956 63.0876C2.12963 61.6587 3.75752 60.5611 5.58088 59.8908C7.40423 59.2205 9.3675 58.998 11.299 59.2427C13.2304 59.4874 15.0713 60.1919 16.6604 61.2946C18.2496 62.3972 19.5387 63.8645 20.415 65.5679C21.2914 67.2714 21.7282 69.1592 21.6873 71.0662C21.6464 72.9732 21.1291 74.8414 20.1805 76.5073C18.9871 78.6294 18.6751 81.1205 19.3095 83.4622L19.4041 83.8517L7.97618 86.717L7.90042 86.4296C7.25647 84.0532 5.6948 82.0149 3.54513 80.7452C0.910078 79.1686 -0.997526 76.652 -1.77595 73.7254Z" fill="#FFD200"/>
<path d="M16.6774 84.5844C16.7734 84.5624 16.8579 84.507 16.9154 84.4286C16.9728 84.3501 16.9993 84.2539 16.9898 84.1578L15.6643 69.2373C15.6595 69.1836 15.644 69.1314 15.6185 69.0836C15.5931 69.0359 15.5582 68.9936 15.5159 68.9591C15.4737 68.9246 15.4249 68.8986 15.3723 68.8827C15.3198 68.8668 15.2646 68.8612 15.2098 68.8663C15.1558 68.8697 15.103 68.8839 15.0548 68.908C15.0066 68.932 14.9639 68.9655 14.9293 69.0063C14.8947 69.0471 14.869 69.0944 14.8538 69.1453C14.8385 69.1962 14.834 69.2495 14.8406 69.3022L16.1661 84.2227C16.1697 84.276 16.1841 84.328 16.2085 84.3757C16.233 84.4234 16.267 84.4658 16.3085 84.5004C16.35 84.535 16.3981 84.561 16.4501 84.5771C16.5021 84.5931 16.5569 84.5987 16.6111 84.5936L16.6774 84.5844Z" fill="white"/>
<path d="M10.6556 86.096H10.7219C10.8221 86.0514 10.9002 85.9699 10.9392 85.8691C10.9782 85.7683 10.975 85.6565 10.9302 85.5581L4.77596 71.8523C4.75538 71.8021 4.72457 71.7565 4.68541 71.7183C4.64625 71.6801 4.59957 71.6501 4.54819 71.6301C4.49681 71.6102 4.44181 71.6007 4.38656 71.6022C4.33131 71.6037 4.27694 71.6163 4.2268 71.6391C4.1266 71.6836 4.04846 71.7651 4.00943 71.8659C3.97041 71.9667 3.97369 72.0785 4.01853 72.1769L10.1727 85.8827C10.2168 85.9664 10.2885 86.033 10.3762 86.0717C10.4639 86.1105 10.5623 86.119 10.6556 86.096Z" fill="white"/>
<path d="M6.56167 85.2277L19.6504 81.9458L22.2945 92.0611L9.20574 95.343L6.56167 85.2277Z" fill="#24285B"/>
<path d="M9.33008 73.9201C9.62228 73.8172 9.88581 73.6487 10.0996 73.4281C10.3133 73.2075 10.4713 72.9409 10.5609 72.6497C10.684 72.3623 10.845 72.2046 11.0154 72.1768C11.413 72.1119 12.019 72.6219 12.2462 72.8723C12.3208 72.9467 12.4217 72.9902 12.5281 72.994C12.6345 72.9979 12.7384 72.9616 12.8184 72.8928C12.8983 72.8239 12.9484 72.7277 12.9582 72.6239C12.968 72.5201 12.9368 72.4165 12.8711 72.3344C12.767 72.2232 11.8391 71.2217 10.8828 71.4071C10.6355 71.4576 10.4056 71.5693 10.2149 71.7317C10.0243 71.894 9.87937 72.1016 9.794 72.3344C9.64251 72.6683 9.40582 73.0856 9.06497 73.1319C8.72413 73.1783 8.23179 72.7703 8.11817 72.6219C8.0862 72.5733 8.04404 72.5318 7.99448 72.5004C7.94491 72.4689 7.88907 72.4481 7.83068 72.4394C7.77228 72.4307 7.71267 72.4342 7.65578 72.4498C7.59889 72.4653 7.54603 72.4926 7.50071 72.5297C7.45539 72.5668 7.41864 72.6129 7.3929 72.665C7.36717 72.717 7.35304 72.7739 7.35144 72.8317C7.34984 72.8895 7.36081 72.947 7.38363 73.0004C7.40645 73.0538 7.4406 73.1018 7.4838 73.1412C7.68809 73.396 7.95017 73.6008 8.24927 73.7392C8.54836 73.8776 8.87626 73.9459 9.20699 73.9387L9.33008 73.9201Z" fill="white"/>
</g>
<defs>
<filter id="filter0_d" x="9.63184" y="0.454315" width="310.558" height="305.11" filterUnits="userSpaceOnUse" color-interpolation-filters="sRGB">
<feFlood flood-opacity="0" result="BackgroundImageFix"/>
<feColorMatrix in="SourceAlpha" type="matrix" values="0 0 0 0 0 0 0 0 0 0 0 0 0 0 0 0 0 0 127 0"/>
<feOffset dy="4"/>
<feGaussianBlur stdDeviation="11.5"/>
<feColorMatrix type="matrix" values="0 0 0 0 0 0 0 0 0 0 0 0 0 0 0 0 0 0 0.25 0"/>
<feBlend mode="normal" in2="BackgroundImageFix" result="effect1_dropShadow"/>
<feBlend mode="normal" in="SourceGraphic" in2="effect1_dropShadow" result="shape"/>
</filter>
<clipPath id="clip0">
<rect width="335" height="270" fill="white" transform="translate(0.547363 39.9925)"/>
</clipPath>
</defs>
</svg>
