<svg width="122" height="138" viewBox="0 0 122 138" fill="none" xmlns="http://www.w3.org/2000/svg">
<g opacity="0.7" filter="url(#filter0_d)">
<path d="M30.4844 35.5058C30.4844 32.7443 32.723 30.5058 35.4844 30.5058L86.0108 30.5058C88.7722 30.5058 91.0108 32.7444 91.0108 35.5058V85.4095C91.0108 87.0789 90.1776 88.6383 88.7897 89.5661L63.9146 106.196C61.1095 108.071 57.4293 107.985 54.7152 105.98L32.5136 89.5802C31.2374 88.6375 30.4844 87.145 30.4844 85.5584V35.5058Z" fill="#6D28FE"/>
</g>
<g clip-path="url(#clip0)">
<path d="M60.7471 83.5399C59.9717 83.5399 59.3408 82.9091 59.3408 82.1337C59.3408 82.1088 59.3415 82.084 59.3428 82.0594L51.4726 78.7995C51.215 79.0855 50.842 79.2656 50.4277 79.2656C49.6523 79.2656 49.0214 78.6347 49.0214 77.8593C49.0214 77.0839 49.6523 76.4531 50.4277 76.4531C51.2031 76.4531 51.8339 77.0839 51.8339 77.8593C51.8339 77.8843 51.8333 77.909 51.832 77.9336L59.7022 81.1935C59.9598 80.9075 60.3328 80.7274 60.7471 80.7274C61.1614 80.7274 61.5344 80.9075 61.7919 81.1935L69.6621 77.9336C69.6608 77.9089 69.6602 77.8843 69.6602 77.8593C69.6602 77.0839 70.2911 76.4531 71.0664 76.4531C71.8418 76.4531 72.4727 77.0839 72.4727 77.8593C72.4727 78.6347 71.8418 79.2656 71.0664 79.2656C70.6521 79.2656 70.2791 79.0855 70.0216 78.7995L62.1514 82.0594C62.1527 82.0841 62.1533 82.1088 62.1533 82.1337C62.1533 82.9091 61.5224 83.5399 60.7471 83.5399ZM60.7471 81.6649C60.4886 81.6649 60.2783 81.8752 60.2783 82.1337C60.2783 82.3922 60.4886 82.6024 60.7471 82.6024C61.0056 82.6024 61.2158 82.3922 61.2158 82.1337C61.2158 81.8752 61.0056 81.6649 60.7471 81.6649ZM71.0664 77.3905C70.8079 77.3905 70.5976 77.6008 70.5976 77.8593C70.5976 78.1178 70.8079 78.328 71.0664 78.328C71.3249 78.328 71.5351 78.1178 71.5351 77.8593C71.5351 77.6008 71.3249 77.3905 71.0664 77.3905ZM50.4278 77.3905C50.1693 77.3905 49.959 77.6008 49.959 77.8593C49.959 78.1178 50.1693 78.328 50.4278 78.328C50.6863 78.328 50.8965 78.1178 50.8965 77.8593C50.8965 77.6008 50.6862 77.3905 50.4278 77.3905ZM60.7471 77.9149C55.0263 77.9149 50.3721 73.2608 50.3721 67.5399C50.3721 61.8191 55.0263 57.1649 60.7471 57.1649C62.7751 57.1649 64.7398 57.7502 66.4286 58.8575C66.6451 58.9994 66.7055 59.2901 66.5636 59.5066C66.4216 59.7231 66.1309 59.7834 65.9145 59.6416C65.3849 59.2943 64.8254 59.0036 64.2441 58.7716C64.6646 59.1988 65.0564 59.707 65.4121 60.2914C65.6336 60.6551 65.8366 61.0413 66.0201 61.4462H67.9558C67.7232 61.1727 67.4736 60.9104 67.2074 60.6603C67.0187 60.483 67.0094 60.1864 67.1868 59.9977C67.364 59.8089 67.6607 59.7997 67.8493 59.977C69.9292 61.9308 71.1221 64.6874 71.1221 67.5399C71.1221 73.2608 66.4679 77.9149 60.7471 77.9149ZM61.2158 73.6337V76.9438C62.4838 76.7609 63.6753 75.8386 64.6114 74.3009C64.7419 74.0868 64.8653 73.8643 64.9814 73.6337H61.2158ZM56.5127 73.6337C56.6289 73.8642 56.7523 74.0868 56.8827 74.3009C57.8189 75.8387 59.0104 76.7609 60.2783 76.9438V73.6337H56.5127ZM66.0201 73.6337C65.8366 74.0386 65.6337 74.4247 65.4122 74.7885C65.0575 75.371 64.667 75.878 64.248 76.3043C65.6904 75.726 66.9586 74.8011 67.9481 73.6338H66.0201V73.6337ZM53.546 73.6337C54.5354 74.8011 55.8037 75.726 57.2461 76.3043C56.8271 75.8779 56.4366 75.3709 56.0819 74.7884C55.8604 74.4247 55.6574 74.0386 55.4739 73.6336H53.546V73.6337ZM66.3983 72.6962H68.6483C69.5391 71.3357 70.0883 69.7321 70.1731 68.0087H67.2407C67.1949 69.6776 66.9046 71.2772 66.3983 72.6962ZM61.2158 72.6962H65.3984C65.9416 71.3031 66.254 69.6973 66.3029 68.0087H61.2158V72.6962ZM56.0958 72.6962H60.2783V68.0087H55.1913C55.2401 69.6973 55.5525 71.3031 56.0958 72.6962ZM52.8459 72.6962H55.0959C54.5894 71.2772 54.2993 69.6776 54.2534 68.0087H51.3211C51.4058 69.7321 51.9551 71.3357 52.8459 72.6962ZM67.2407 67.0712H70.1733C70.0918 65.3761 69.5689 63.7725 68.6579 62.3837H66.3983C66.9046 63.8027 67.1949 65.4023 67.2407 67.0712ZM61.2158 67.0712H66.3029C66.2541 65.3826 65.9417 63.7768 65.3984 62.3837H61.2158V63.4774C61.2158 63.7364 61.006 63.9462 60.7471 63.9462C60.4881 63.9462 60.2783 63.7364 60.2783 63.4774V62.3837H56.0958C55.5525 63.7768 55.2401 65.3826 55.1913 67.0712H60.2783V65.3524C60.2783 65.0935 60.4881 64.8837 60.7471 64.8837C61.006 64.8837 61.2158 65.0935 61.2158 65.3524V67.0712ZM51.3211 67.0712H54.2534C54.2993 65.4023 54.5895 63.8027 55.0959 62.3837H52.8459C51.9551 63.7442 51.4058 65.3478 51.3211 67.0712ZM61.2158 61.4462H64.9814C64.8653 61.2157 64.7419 60.9931 64.6114 60.7789C63.6753 59.2412 62.4838 58.319 61.2158 58.1361V61.4462ZM56.5127 61.4462H60.2783V58.1361C59.0104 58.319 57.8189 59.2413 56.8827 60.7789C56.7523 60.9931 56.6289 61.2157 56.5127 61.4462ZM53.546 61.4462H55.474C55.6575 61.0413 55.8604 60.6552 56.0819 60.2914C56.4366 59.7089 56.8271 59.2019 57.2461 58.7756C55.8037 59.3539 54.5354 60.2788 53.546 61.4462ZM72.0769 75.8882C72.0171 75.8882 71.9563 75.8767 71.8977 75.8524C71.6585 75.7533 71.5449 75.4791 71.644 75.2399L74.4006 68.5848C74.1146 68.3273 73.9346 67.9543 73.9346 67.5399C73.9346 67.1256 74.1146 66.7526 74.4006 66.4951L71.1408 58.6249C71.1161 58.6262 71.0914 58.6268 71.0664 58.6268C70.2911 58.6268 69.6602 57.9959 69.6602 57.2206C69.6602 56.4452 70.2911 55.8143 71.0664 55.8143C71.8418 55.8143 72.4727 56.4452 72.4727 57.2206C72.4727 57.6349 72.2926 58.0079 72.0066 58.2654L75.2665 66.1356C75.2912 66.1343 75.3159 66.1337 75.3408 66.1337C76.1162 66.1337 76.7471 66.7646 76.7471 67.5399C76.7471 68.3153 76.1162 68.9462 75.3408 68.9462C75.3159 68.9462 75.2911 68.9455 75.2665 68.9443L72.5101 75.5987C72.4354 75.7792 72.2608 75.8882 72.0769 75.8882ZM75.3408 67.0712C75.0823 67.0712 74.8721 67.2814 74.8721 67.5399C74.8721 67.7984 75.0823 68.0087 75.3408 68.0087C75.5993 68.0087 75.8096 67.7984 75.8096 67.5399C75.8096 67.2814 75.5993 67.0712 75.3408 67.0712ZM71.0664 56.7519C70.8079 56.7519 70.5976 56.9621 70.5976 57.2206C70.5976 57.4791 70.8079 57.6894 71.0664 57.6894C71.3249 57.6894 71.5351 57.4791 71.5351 57.2206C71.5351 56.9621 71.3249 56.7519 71.0664 56.7519ZM49.4173 75.8882C49.2333 75.8882 49.0588 75.7793 48.984 75.5987L46.2276 68.9443C46.2029 68.9456 46.1783 68.9462 46.1533 68.9462C45.3779 68.9462 44.7471 68.3153 44.7471 67.5399C44.7471 66.7646 45.3779 66.1337 46.1533 66.1337C46.1783 66.1337 46.203 66.1344 46.2276 66.1356L49.4875 58.2654C49.2015 58.0079 49.0214 57.6349 49.0214 57.2206C49.0214 56.4452 49.6523 55.8143 50.4277 55.8143C50.842 55.8143 51.215 55.9944 51.4726 56.2804L59.3428 53.0205C59.3414 52.9958 59.3408 52.9711 59.3408 52.9462C59.3408 52.1708 59.9717 51.5399 60.7471 51.5399C61.5224 51.5399 62.1533 52.1708 62.1533 52.9462C62.1533 52.9711 62.1526 52.9959 62.1514 53.0205L68.8151 55.7807C69.0543 55.8798 69.1679 56.1539 69.0688 56.3931C68.9697 56.6323 68.6954 56.7461 68.4563 56.6468L61.7919 53.8864C61.5344 54.1723 61.1613 54.3524 60.7471 54.3524C60.3328 54.3524 59.9598 54.1724 59.7022 53.8864L51.832 57.1463C51.8333 57.1709 51.8339 57.1956 51.8339 57.2206C51.8339 57.9959 51.2031 58.6268 50.4277 58.6268C50.4028 58.6268 50.378 58.6261 50.3534 58.6249L47.0935 66.4951C47.3795 66.7526 47.5596 67.1256 47.5596 67.5399C47.5596 67.9543 47.3795 68.3273 47.0935 68.5848L49.8501 75.2399C49.9492 75.4791 49.8356 75.7533 49.5964 75.8524C49.5378 75.8767 49.477 75.8882 49.4173 75.8882ZM46.1533 67.0712C45.8948 67.0712 45.6846 67.2814 45.6846 67.5399C45.6846 67.7984 45.8948 68.0087 46.1533 68.0087C46.4118 68.0087 46.6221 67.7984 46.6221 67.5399C46.6221 67.2814 46.4118 67.0712 46.1533 67.0712ZM50.4278 56.7519C50.1693 56.7519 49.959 56.9621 49.959 57.2206C49.959 57.4791 50.1693 57.6894 50.4278 57.6894C50.6863 57.6894 50.8965 57.4791 50.8965 57.2206C50.8965 56.9621 50.6862 56.7519 50.4278 56.7519ZM60.7471 52.4774C60.4886 52.4774 60.2783 52.6877 60.2783 52.9462C60.2783 53.2047 60.4886 53.4149 60.7471 53.4149C61.0056 53.4149 61.2158 53.2047 61.2158 52.9462C61.2158 52.6877 61.0056 52.4774 60.7471 52.4774Z" fill="white"/>
</g>
<defs>
<filter id="filter0_d" x="0.484375" y="0.505768" width="120.526" height="137.039" filterUnits="userSpaceOnUse" color-interpolation-filters="sRGB">
<feFlood flood-opacity="0" result="BackgroundImageFix"/>
<feColorMatrix in="SourceAlpha" type="matrix" values="0 0 0 0 0 0 0 0 0 0 0 0 0 0 0 0 0 0 127 0"/>
<feOffset/>
<feGaussianBlur stdDeviation="15"/>
<feColorMatrix type="matrix" values="0 0 0 0 0 0 0 0 0 0 0 0 0 0 0 0 0 0 0.25 0"/>
<feBlend mode="normal" in2="BackgroundImageFix" result="effect1_dropShadow"/>
<feBlend mode="normal" in="SourceGraphic" in2="effect1_dropShadow" result="shape"/>
</filter>
<clipPath id="clip0">
<rect width="32" height="32" fill="white" transform="translate(44.7471 51.5399)"/>
</clipPath>
</defs>
</svg>
