<svg width="457" height="315" viewBox="0 0 457 315" fill="none" xmlns="http://www.w3.org/2000/svg">
<g filter="url(#filter0_d)">
<path d="M177.93 59.0254L21.4996 150.025C19.9889 150.916 18.739 152.188 17.8752 153.714C17.0114 155.241 16.5642 156.967 16.5784 158.721C16.5926 160.474 17.0677 162.193 17.956 163.705C18.8443 165.218 20.1147 166.469 21.6396 167.335L213.13 274.495C215.443 275.791 218.046 276.482 220.698 276.504C223.35 276.527 225.964 275.881 228.3 274.625L375.43 195.495C377.3 194.48 378.866 192.985 379.968 191.164C381.07 189.343 381.668 187.262 381.701 185.134C381.734 183.006 381.2 180.907 380.154 179.054C379.108 177.2 377.588 175.658 375.75 174.585L177.93 59.0254Z" fill="#AAACF9"/>
<path opacity="0.32" d="M247.599 118.595L307.209 155.725L294.889 169.965L230.099 129.965C236.749 125.445 241.799 124.195 247.599 118.595Z" fill="url(#paint0_linear)"/>
<path d="M240.9 122.605L231.34 127.205C230.981 127.379 230.676 127.647 230.457 127.981C230.239 128.315 230.116 128.702 230.1 129.1C230.085 129.499 230.178 129.894 230.37 130.244C230.562 130.594 230.845 130.884 231.19 131.085L253.85 144.315C254.343 144.614 254.934 144.707 255.495 144.574C256.056 144.441 256.542 144.093 256.85 143.605L262.36 135.045" fill="#56403D"/>
<path d="M288.469 97.8355L212.219 53.9155C211.695 53.6127 211.1 53.4537 210.494 53.4546C209.889 53.4555 209.294 53.6163 208.77 53.9207C208.247 54.2251 207.813 54.6623 207.512 55.1882C207.212 55.714 207.056 56.3099 207.059 56.9155V102.616C207.059 103.118 207.191 103.612 207.442 104.047C207.693 104.483 208.054 104.844 208.49 105.095L289.749 151.976C290.03 152.14 290.349 152.227 290.674 152.228C290.999 152.229 291.318 152.144 291.6 151.981C291.881 151.819 292.115 151.584 292.276 151.302C292.438 151.02 292.522 150.701 292.519 150.375V104.875C292.522 103.45 292.149 102.049 291.438 100.813C290.727 99.577 289.703 98.5501 288.469 97.8355Z" fill="#40006B"/>
<path d="M212.23 57.3653L286.16 99.9053C286.949 100.359 287.606 101.013 288.062 101.801C288.519 102.59 288.759 103.484 288.76 104.395V138.655C288.759 138.983 288.673 139.305 288.509 139.588C288.345 139.872 288.11 140.108 287.826 140.272C287.542 140.436 287.221 140.522 286.893 140.523C286.566 140.524 286.244 140.438 285.96 140.275L210.56 97.0053C210.278 96.8438 210.043 96.6108 209.88 96.33C209.717 96.0491 209.63 95.7302 209.63 95.4053V58.8753C209.63 58.5711 209.71 58.2723 209.862 58.0087C210.014 57.7452 210.233 57.5261 210.496 57.3733C210.759 57.2205 211.057 57.1394 211.362 57.138C211.666 57.1366 211.965 57.215 212.23 57.3653Z" fill="white"/>
<path d="M241.419 120.459C241.227 119.461 241.779 118.516 242.652 118.348C243.525 118.18 244.389 118.852 244.581 119.85C244.773 120.848 244.221 121.793 243.348 121.961C242.475 122.13 241.611 121.457 241.419 120.459Z" fill="#AB643C"/>
<path d="M283.149 101.825C282.702 101.825 282.339 101.436 282.339 100.955C282.339 100.475 282.702 100.085 283.149 100.085C283.597 100.085 283.959 100.475 283.959 100.955C283.959 101.436 283.597 101.825 283.149 101.825Z" fill="#659FE4"/>
<path d="M280.579 100.545C280.132 100.545 279.769 100.156 279.769 99.6754C279.769 99.1949 280.132 98.8054 280.579 98.8054C281.027 98.8054 281.389 99.1949 281.389 99.6754C281.389 100.156 281.027 100.545 280.579 100.545Z" fill="#C5E9FF"/>
<path opacity="0.32" d="M176.91 73.9854L217.05 98.0954L197.48 109.625L159.4 87.4854C166.1 82.9454 171.11 79.5854 176.91 73.9854Z" fill="url(#paint1_linear)"/>
<path opacity="0.32" d="M141.259 149.795L190.389 173.545L135.479 211.045L97.3994 188.905C104.099 184.365 135.469 155.395 141.259 149.795Z" fill="url(#paint2_linear)"/>
<path opacity="0.32" d="M244.609 183.635L302.479 220.035L227.189 267.915L177.749 235.215C184.449 230.675 238.819 189.235 244.609 183.635Z" fill="url(#paint3_linear)"/>
<path opacity="0.32" d="M310.23 183.025L350.37 207.135L330.8 218.665L292.75 196.525C299.42 191.985 304.43 188.625 310.23 183.025Z" fill="url(#paint4_linear)"/>
<path d="M331.87 189.035C331.62 189.435 312.23 200.295 312.23 200.295L298.81 192.765L292.73 189.225L300.21 184.885L312.29 177.885L331.87 189.035Z" fill="#967371"/>
<path d="M312.229 200.295V207.815L292.729 196.525V189.225L312.229 200.295Z" fill="#56403D"/>
<path d="M331.87 189.035V196.535L312.23 207.815V200.295L331.87 189.035Z" fill="#56403D"/>
<path d="M311.79 193.225C307.653 193.225 304.3 191.354 304.3 189.045C304.3 186.737 307.653 184.865 311.79 184.865C315.926 184.865 319.28 186.737 319.28 189.045C319.28 191.354 315.926 193.225 311.79 193.225Z" fill="#56403D"/>
<path d="M310.23 167.055C310.23 166.255 310.877 165.605 311.675 165.605C312.473 165.605 313.12 166.255 313.12 167.055V188.825C313.12 189.626 312.473 190.275 311.675 190.275C310.877 190.275 310.23 189.626 310.23 188.825V167.055Z" fill="#6D5351"/>
<path d="M311.67 171.985C307.351 171.985 303.85 168.484 303.85 164.165C303.85 159.847 307.351 156.345 311.67 156.345C315.988 156.345 319.49 159.847 319.49 164.165C319.49 168.484 315.988 171.985 311.67 171.985Z" fill="#ED1C24"/>
<path d="M311.43 156.315C310.411 157.262 309.595 158.404 309.03 159.674C308.464 160.944 308.161 162.315 308.14 163.705C308.032 165.506 308.571 167.286 309.66 168.724C310.75 170.161 312.317 171.162 314.08 171.545C313.015 171.894 311.888 172.009 310.775 171.883C309.662 171.757 308.589 171.393 307.628 170.816C306.668 170.239 305.844 169.462 305.21 168.538C304.577 167.614 304.15 166.565 303.958 165.461C303.766 164.357 303.813 163.225 304.097 162.142C304.381 161.058 304.895 160.048 305.604 159.181C306.313 158.314 307.2 157.609 308.205 157.114C309.21 156.62 310.31 156.347 311.43 156.315Z" fill="#E01B2A"/>
<path d="M315.09 160.095C315.875 160.76 316.479 161.613 316.843 162.576C317.207 163.538 317.319 164.577 317.17 165.595C317.869 164.134 317.991 162.462 317.51 160.915C316.75 158.195 315.09 160.095 315.09 160.095Z" fill="white"/>
<path d="M150.3 117.865C161.54 114.675 176.1 122.175 185.96 126.685C200.57 133.55 214.752 141.291 228.43 149.865C239.88 156.865 247.83 164.015 250.65 177.735C251.14 183.845 251.4 189.955 250.65 191.735C249.11 195.735 204.76 235.155 182.59 237.315C160.42 239.475 190.78 185.575 188.07 181.265C185.36 176.955 161.07 163.405 157.34 164.635C153.61 165.865 103.41 195.405 99.4396 189.275C86.7496 169.595 127.51 124.315 150.3 117.865Z" fill="#40006B"/>
<path d="M97.2694 177.366C97.2694 177.366 98.9894 186.516 106.959 184.856C114.929 183.196 150.559 154.806 157.269 156.416C163.979 158.026 190.389 173.546 190.389 173.546L188.009 184.036L155.109 167.316C155.109 167.316 117.109 192.566 104.279 191.716C91.4494 190.866 97.2694 177.366 97.2694 177.366Z" fill="#40006B"/>
<path d="M179.129 230.685C182.459 230.435 185.609 228.985 188.529 227.445C192.309 225.445 196.059 223.365 199.789 221.285C207.843 216.83 215.575 211.818 222.929 206.285C228.739 201.885 234.699 197.635 240.379 193.065C244.329 189.885 248.229 186.355 250.969 182.065C251.219 186.515 251.249 190.375 250.709 191.765C249.169 195.765 204.819 235.185 182.649 237.345C176.999 237.895 174.769 234.805 174.519 229.825C175.951 230.52 177.543 230.817 179.129 230.685Z" fill="#40006B"/>
<path opacity="0.52" d="M97.2694 177.366C97.2694 177.366 98.9894 186.516 106.959 184.856C114.929 183.196 150.559 154.806 157.269 156.416C163.979 158.026 190.389 173.546 190.389 173.546L188.009 184.036L155.109 167.316C155.109 167.316 117.109 192.566 104.279 191.716C91.4494 190.866 97.2694 177.366 97.2694 177.366Z" fill="#505A63"/>
<path opacity="0.52" d="M179.129 230.685C182.459 230.435 185.609 228.985 188.529 227.445C192.309 225.445 196.059 223.365 199.789 221.285C207.843 216.83 215.575 211.818 222.929 206.285C228.739 201.885 234.699 197.635 240.379 193.065C244.329 189.885 248.229 186.355 250.969 182.065C251.219 186.515 251.249 190.375 250.709 191.765C249.169 195.765 204.819 235.185 182.649 237.345C176.999 237.895 174.769 234.805 174.519 229.825C175.951 230.52 177.543 230.817 179.129 230.685Z" fill="#505A63"/>
<path d="M154.41 146.905C145.065 146.905 137.49 141.412 137.49 134.635C137.49 127.859 145.065 122.365 154.41 122.365C163.754 122.365 171.33 127.859 171.33 134.635C171.33 141.412 163.754 146.905 154.41 146.905Z" fill="#505A63"/>
<path d="M220.06 186.905C209.991 186.905 201.83 180.991 201.83 173.695C201.83 166.4 209.991 160.485 220.06 160.485C230.128 160.485 238.29 166.4 238.29 173.695C238.29 180.991 230.128 186.905 220.06 186.905Z" fill="#505A63"/>
<path d="M190.389 166.855C185.557 166.855 181.639 164.653 181.639 161.935C181.639 159.218 185.557 157.015 190.389 157.015C195.222 157.015 199.139 159.218 199.139 161.935C199.139 164.653 195.222 166.855 190.389 166.855Z" fill="#757575"/>
<path d="M198.33 163.995C198.33 163.995 196.62 160.235 193.87 159.835C191.12 159.435 185.66 158.525 183.65 160.225C181.64 161.925 181.8 162.845 181.8 162.845C182.608 164.073 183.708 165.08 185.001 165.778C186.294 166.476 187.74 166.843 189.21 166.845C194.59 167.115 197.7 165.085 198.33 163.995Z" fill="#494949"/>
<path d="M190.069 164.625C186.999 164.625 184.509 162.772 184.509 160.485C184.509 158.199 186.999 156.345 190.069 156.345C193.14 156.345 195.629 158.199 195.629 160.485C195.629 162.772 193.14 164.625 190.069 164.625Z" fill="#090502"/>
<path d="M190.39 161.585C186.849 161.585 183.98 159.539 183.98 157.015C183.98 154.491 186.849 152.445 190.39 152.445C193.93 152.445 196.8 154.491 196.8 157.015C196.8 159.539 193.93 161.585 190.39 161.585Z" fill="#757575"/>
<path d="M196.75 157.225C196.59 159.655 193.75 161.585 190.35 161.585C186.95 161.585 183.94 159.585 183.94 157.015C183.948 156.675 184.009 156.338 184.12 156.015C186.97 159.435 192.46 158.945 196.75 157.225Z" fill="#494949"/>
<path d="M172.889 159.635C168.057 159.635 164.139 157.433 164.139 154.715C164.139 151.998 168.057 149.795 172.889 149.795C177.722 149.795 181.639 151.998 181.639 154.715C181.639 157.433 177.722 159.635 172.889 159.635Z" fill="#757575"/>
<path d="M180.83 156.785C180.83 156.785 179.12 153.025 176.37 152.625C173.62 152.225 168.16 151.315 166.15 153.015C164.14 154.715 164.3 155.635 164.3 155.635C165.108 156.863 166.208 157.87 167.501 158.568C168.794 159.266 170.24 159.633 171.71 159.635C177.09 159.895 180.2 157.865 180.83 156.785Z" fill="#494949"/>
<path d="M172.569 157.405C169.499 157.405 167.009 155.552 167.009 153.265C167.009 150.979 169.499 149.125 172.569 149.125C175.64 149.125 178.129 150.979 178.129 153.265C178.129 155.552 175.64 157.405 172.569 157.405Z" fill="#090502"/>
<path d="M172.89 154.365C169.349 154.365 166.48 152.319 166.48 149.795C166.48 147.271 169.349 145.225 172.89 145.225C176.43 145.225 179.3 147.271 179.3 149.795C179.3 152.319 176.43 154.365 172.89 154.365Z" fill="#757575"/>
<path d="M179.3 150.015C179.14 152.445 176.3 154.375 172.9 154.375C169.5 154.375 166.49 152.375 166.49 149.805C166.498 149.465 166.559 149.128 166.67 148.805C169.47 152.215 174.96 151.735 179.3 150.015Z" fill="#494949"/>
<path d="M208.89 148.675L202.39 144.865C202.031 144.648 201.619 144.534 201.2 144.534C200.78 144.534 200.369 144.648 200.01 144.865L199.92 144.915C199.584 145.127 199.309 145.421 199.121 145.771C198.933 146.12 198.838 146.512 198.846 146.908C198.854 147.305 198.965 147.692 199.167 148.033C199.369 148.375 199.656 148.658 200 148.855L206.59 152.615C206.953 152.822 207.365 152.925 207.783 152.914C208.2 152.904 208.607 152.78 208.96 152.555C209.282 152.342 209.546 152.05 209.726 151.708C209.906 151.365 209.996 150.983 209.989 150.596C209.982 150.209 209.878 149.831 209.686 149.495C209.493 149.159 209.22 148.877 208.89 148.675Z" fill="#505A63"/>
<path d="M192.69 139.045L186.19 135.235C185.831 135.018 185.419 134.904 185 134.904C184.58 134.904 184.169 135.018 183.81 135.235L183.72 135.285C183.384 135.497 183.109 135.791 182.921 136.14C182.733 136.49 182.638 136.881 182.646 137.278C182.654 137.674 182.765 138.062 182.967 138.403C183.169 138.745 183.456 139.028 183.8 139.225L190.39 142.985C190.753 143.191 191.165 143.295 191.583 143.284C192 143.274 192.407 143.15 192.76 142.925C193.082 142.712 193.346 142.42 193.526 142.078C193.706 141.735 193.796 141.353 193.789 140.966C193.782 140.579 193.678 140.2 193.486 139.865C193.294 139.529 193.02 139.247 192.69 139.045Z" fill="#505A63"/>
<path d="M166.659 138.755C166.279 138.815 158.799 143.035 158.799 143.035L141.149 132.315L149.149 127.465L166.659 138.735" fill="#090502"/>
<path d="M165.81 132.615L149.47 142.125C149.47 142.125 142.38 137.595 142.57 137.375C142.76 137.155 158.57 128.375 158.57 128.375L165.81 132.615Z" fill="#090502"/>
<path d="M165.81 130.995V132.615L163.35 132.115L165.81 130.995Z" fill="#090502"/>
<path d="M141.149 130.705V132.335L143.149 131.925L141.149 130.705Z" fill="#090502"/>
<path d="M142.569 135.745V137.365L143.619 138.075L143.959 136.915L142.569 135.745Z" fill="#090502"/>
<path d="M166.659 138.765V137.135L164.379 137.455L165.369 138.345L166.659 138.765Z" fill="#090502"/>
<path d="M166.659 137.135C166.279 137.195 158.799 141.415 158.799 141.415L141.149 130.705L149.149 125.855L166.659 137.125" fill="#757575"/>
<path d="M165.81 130.995L149.47 140.505C149.47 140.505 142.38 135.975 142.57 135.755C142.76 135.535 158.57 126.755 158.57 126.755L165.81 130.995Z" fill="#757575"/>
<path d="M227.19 181.615C224.947 181.615 223.13 180.536 223.13 179.205C223.13 177.874 224.947 176.795 227.19 176.795C229.432 176.795 231.25 177.874 231.25 179.205C231.25 180.536 229.432 181.615 227.19 181.615Z" fill="#C6172B"/>
<path d="M231.25 179.205V176.275H223.13V179.205" fill="#C6172B"/>
<path d="M227.19 178.685C224.947 178.685 223.13 177.606 223.13 176.275C223.13 174.944 224.947 173.865 227.19 173.865C229.432 173.865 231.25 174.944 231.25 176.275C231.25 177.606 229.432 178.685 227.19 178.685Z" fill="#F62435"/>
<path d="M226.04 172.375C223.797 172.375 221.98 171.296 221.98 169.965C221.98 168.634 223.797 167.555 226.04 167.555C228.282 167.555 230.1 168.634 230.1 169.965C230.1 171.296 228.282 172.375 226.04 172.375Z" fill="#D38A09"/>
<path d="M230.1 169.965V167.035H221.98V169.965" fill="#D38A09"/>
<path d="M226.04 169.445C223.797 169.445 221.98 168.366 221.98 167.035C221.98 165.704 223.797 164.625 226.04 164.625C228.282 164.625 230.1 165.704 230.1 167.035C230.1 168.366 228.282 169.445 226.04 169.445Z" fill="#F4BD21"/>
<path d="M213.53 172.375C211.287 172.375 209.47 171.296 209.47 169.965C209.47 168.634 211.287 167.555 213.53 167.555C215.772 167.555 217.59 168.634 217.59 169.965C217.59 171.296 215.772 172.375 213.53 172.375Z" fill="#0071BC"/>
<path d="M217.59 169.965V167.035H209.47V169.965" fill="#0071BC"/>
<path d="M213.53 169.445C211.287 169.445 209.47 168.366 209.47 167.035C209.47 165.704 211.287 164.625 213.53 164.625C215.772 164.625 217.59 165.704 217.59 167.035C217.59 168.366 215.772 169.445 213.53 169.445Z" fill="#29ABE2"/>
<path d="M214.849 180.675C212.607 180.675 210.789 179.596 210.789 178.265C210.789 176.934 212.607 175.855 214.849 175.855C217.092 175.855 218.909 176.934 218.909 178.265C218.909 179.596 217.092 180.675 214.849 180.675Z" fill="#39B54A"/>
<path d="M218.909 178.265V175.325H210.789V178.265" fill="#39B54A"/>
<path d="M214.849 177.736C212.607 177.736 210.789 176.657 210.789 175.326C210.789 173.995 212.607 172.916 214.849 172.916C217.092 172.916 218.909 173.995 218.909 175.326C218.909 176.657 217.092 177.736 214.849 177.736Z" fill="#3AD84A"/>
<path d="M172.93 92.0555C164.021 92.0555 156.8 86.9694 156.8 80.6954C156.8 74.4215 164.021 69.3354 172.93 69.3354C181.838 69.3354 189.06 74.4215 189.06 80.6954C189.06 86.9694 181.838 92.0555 172.93 92.0555Z" fill="#40006B"/>
<path d="M172.92 78.9354C166.248 78.9354 160.84 76.7192 160.84 73.9854C160.84 71.2516 166.248 69.0354 172.92 69.0354C179.591 69.0354 185 71.2516 185 73.9854C185 76.7192 179.591 78.9354 172.92 78.9354Z" fill="#974C26"/>
<path d="M172.11 74.1054C171.11 72.7754 170.21 71.3754 169.21 69.8054C167.93 67.8054 166.73 65.7554 165.64 63.6454C164.618 61.7703 163.745 59.8176 163.03 57.8054C162.234 55.6238 161.596 53.3881 161.12 51.1154C161 50.5154 160.89 49.9154 160.79 49.3154C160.79 49.0354 160.74 49.0654 160.74 49.1054C160.74 49.1454 160.74 48.9154 160.74 48.5854C160.63 47.3654 160.55 46.1454 160.54 44.9154C160.483 40.6776 161.3 36.4735 162.94 32.5654C167.301 38.8912 170.241 46.0859 171.56 53.6554C171.646 54.1088 171.726 54.5621 171.8 55.0154C171.8 55.0154 171.92 55.8454 171.97 56.1754L172.06 57.3154C172.12 57.8888 172.173 58.4654 172.22 59.0454C172.4 61.2654 172.48 63.5054 172.47 65.7354C172.47 68.5254 172.33 71.3154 172.11 74.1054ZM166.97 40.7654C166.676 40.4321 166.376 40.0988 166.07 39.7654C166.153 40.0475 166.174 40.3445 166.13 40.6354C166.415 40.6353 166.698 40.6791 166.97 40.7654Z" fill="#999A1C"/>
<path d="M171.809 74.3155C171.729 72.6855 171.689 70.9855 171.689 69.1355C171.689 66.7655 171.799 64.3855 172.019 62.0255C172.186 59.8959 172.521 57.7827 173.019 55.7055C173.527 53.4407 174.195 51.2151 175.019 49.0455C175.239 48.4755 175.469 47.9155 175.709 47.3555C175.819 47.0955 175.799 47.1155 175.779 47.1555L176.029 46.6955C176.599 45.6155 177.189 44.5355 177.839 43.5055C180.081 39.9108 183.039 36.8165 186.529 34.4155C186.781 42.0934 185.369 49.7349 182.389 56.8155C182.216 57.2422 182.039 57.6655 181.859 58.0855L181.379 59.1555L180.869 60.1555C180.609 60.6755 180.343 61.1889 180.069 61.6955C179.019 63.6955 177.879 65.5855 176.669 67.4555C175.119 69.8055 173.499 72.0855 171.809 74.3155ZM185.509 43.4955C185.443 43.0555 185.363 42.6189 185.269 42.1855C185.187 42.4666 185.043 42.726 184.849 42.9455C185.092 43.0882 185.311 43.2669 185.499 43.4755L185.509 43.4955Z" fill="#999A1C"/>
<path d="M171.75 75.1554C172.23 74.2454 172.75 73.3154 173.36 72.3154C174.13 71.0354 174.95 69.7854 175.83 68.5854C176.6 67.4866 177.456 66.4501 178.39 65.4854C179.398 64.4261 180.481 63.4402 181.63 62.5354L182.55 61.8454C182.69 61.7454 182.67 61.7454 182.65 61.7554L182.93 61.5854C183.59 61.1854 184.25 60.7954 184.93 60.4454C187.296 59.2192 189.89 58.4942 192.55 58.3154C190.205 62.5399 186.975 66.2071 183.08 69.0654L182.38 69.5754L181.78 69.9954L181.17 70.3854L180.24 70.9554C179.033 71.6754 177.8 72.3421 176.54 72.9554C174.97 73.7954 173.36 74.5054 171.75 75.1554ZM189.07 62.9454C189.176 62.6854 189.273 62.4254 189.36 62.1654C189.224 62.2885 189.064 62.3806 188.89 62.4354C188.976 62.595 189.037 62.7671 189.07 62.9454Z" fill="#999A1C"/>
<path d="M172.11 74.1054C171.11 72.7754 170.21 71.3754 169.21 69.8054C167.93 67.8054 166.73 65.7554 165.64 63.6454C164.618 61.7703 163.745 59.8176 163.03 57.8054C162.234 55.6238 161.596 53.3881 161.12 51.1154C161 50.5154 160.89 49.9154 160.79 49.3154C160.79 49.0354 160.74 49.0654 160.74 49.1054C160.74 49.1454 160.74 48.9154 160.74 48.5854C160.63 47.3654 160.55 46.1454 160.54 44.9154C160.483 40.6776 161.3 36.4735 162.94 32.5654C167.301 38.8912 170.241 46.0859 171.56 53.6554C171.646 54.1088 171.726 54.5621 171.8 55.0154C171.8 55.0154 171.92 55.8454 171.97 56.1754L172.06 57.3154C172.12 57.8888 172.173 58.4654 172.22 59.0454C172.4 61.2654 172.48 63.5054 172.47 65.7354C172.47 68.5254 172.33 71.3154 172.11 74.1054ZM166.97 40.7654C166.676 40.4321 166.376 40.0988 166.07 39.7654C166.153 40.0475 166.174 40.3445 166.13 40.6354C166.415 40.6353 166.698 40.6791 166.97 40.7654Z" fill="#999A1C"/>
<path d="M171.809 74.3155C171.729 72.6855 171.689 70.9855 171.689 69.1355C171.689 66.7655 171.799 64.3855 172.019 62.0255C172.186 59.8959 172.521 57.7827 173.019 55.7055C173.527 53.4407 174.195 51.2151 175.019 49.0455C175.239 48.4755 175.469 47.9155 175.709 47.3555C175.819 47.0955 175.799 47.1155 175.779 47.1555L176.029 46.6955C176.599 45.6155 177.189 44.5355 177.839 43.5055C180.081 39.9108 183.039 36.8165 186.529 34.4155C186.781 42.0934 185.369 49.7349 182.389 56.8155C182.216 57.2422 182.039 57.6655 181.859 58.0855L181.379 59.1555L180.869 60.1555C180.609 60.6755 180.343 61.1889 180.069 61.6955C179.019 63.6955 177.879 65.5855 176.669 67.4555C175.119 69.8055 173.499 72.0855 171.809 74.3155ZM185.509 43.4955C185.443 43.0555 185.363 42.6189 185.269 42.1855C185.187 42.4666 185.043 42.726 184.849 42.9455C185.092 43.0882 185.311 43.2669 185.499 43.4755L185.509 43.4955Z" fill="#999A1C"/>
<path d="M171.75 75.1554C172.23 74.2454 172.75 73.3154 173.36 72.3154C174.13 71.0354 174.95 69.7854 175.83 68.5854C176.6 67.4866 177.456 66.4501 178.39 65.4854C179.398 64.4261 180.481 63.4402 181.63 62.5354L182.55 61.8454C182.69 61.7454 182.67 61.7454 182.65 61.7554L182.93 61.5854C183.59 61.1854 184.25 60.7954 184.93 60.4454C187.296 59.2192 189.89 58.4942 192.55 58.3154C190.205 62.5399 186.975 66.2071 183.08 69.0654L182.38 69.5754L181.78 69.9954L181.17 70.3854L180.24 70.9554C179.033 71.6754 177.8 72.3421 176.54 72.9554C174.97 73.7954 173.36 74.5054 171.75 75.1554ZM189.07 62.9454C189.176 62.6854 189.273 62.4254 189.36 62.1654C189.224 62.2885 189.064 62.3806 188.89 62.4354C188.976 62.595 189.037 62.7671 189.07 62.9454Z" fill="#999A1C"/>
<path d="M154.159 116.086L152.749 118.706L149.139 116.846L149.979 114.156L154.159 116.086Z" fill="#F4C2AE"/>
<path d="M147.61 113.916C147.61 113.916 139.26 119.916 137.2 125.766C135.14 131.616 140.2 138.006 140.2 138.006" fill="#F7734F"/>
<path d="M138.47 201.455L134.28 199.455L135.98 195.015L139.26 196.355" fill="#1E3180"/>
<path d="M133.07 189.855H137.75C137.85 191.765 138.28 194.105 139.93 194.855C140.58 195.245 143.11 196.015 143.93 195.705C144.75 195.395 147.33 194.755 147.64 194.995C147.95 195.235 149.15 195.945 146.73 198.115C144.31 200.285 139.1 201.725 138.4 201.495C137.7 201.265 139.26 196.945 137.31 197.605C135.18 198.325 136.41 203.055 136.09 203.435C135.431 203.834 134.712 204.121 133.96 204.285C133.417 204.011 132.889 203.708 132.38 203.375C132.39 198.845 132.75 194.315 133.07 189.855Z" fill="#1E3180"/>
<path d="M163.25 211.895L159.15 209.695L161.05 205.345L164.27 206.825" fill="#1E3180"/>
<path d="M157.819 198.585L163.099 200.315C163.099 203.315 164.019 205.495 167.099 206.215C168.399 206.515 169.419 206.085 170.679 205.915C171.017 205.843 171.369 205.864 171.696 205.975C172.023 206.086 172.315 206.283 172.539 206.545C173.229 207.455 172.409 208.335 171.689 208.925C169.179 210.995 163.899 212.185 163.209 211.925C162.519 211.665 164.279 207.415 162.289 207.985C160.129 208.605 161.139 213.385 160.809 213.755C160.135 214.122 159.406 214.376 158.649 214.505C158.118 214.201 157.604 213.867 157.109 213.505C157.289 209.005 157.279 203.065 157.819 198.585Z" fill="#1E3180"/>
<path d="M142.11 133.176C139.808 142.106 138.062 151.17 136.88 160.316C135 174.976 130.81 192.756 131.17 193.316C131.53 193.876 134.87 197.656 142.55 195.736L151.37 142.596" fill="#BF4225"/>
<path d="M154.889 145.065C154.889 145.065 163.579 162.645 165.509 173.285C167.439 183.925 165.509 201.455 165.509 201.455C165.509 201.455 158.759 204.295 153.139 202.455C153.139 202.455 152.309 176.455 151.379 174.045C150.449 171.635 144.049 161.755 143.769 151.465C143.489 141.175 145.939 135.465 145.939 135.465" fill="#BF4225"/>
<path d="M157.03 132.995C157.51 129.455 157.96 125.685 156.9 122.215C155.18 120.259 153.241 118.507 151.12 116.995C151.12 116.995 148.23 113.525 145.61 115.495C142.7 117.675 139.11 131.435 139.9 136.845C140.63 141.845 144.9 142.995 149.81 144.275C151.474 144.701 153.175 144.966 154.89 145.065C155.75 141.065 156.48 137.045 157.03 132.995Z" fill="#FFB93E"/>
<path d="M158.53 106.205C158.53 106.205 157.66 115.785 155.98 116.535C154.3 117.285 151.33 115.265 150.84 113.615C150.35 111.965 150.84 111.675 152.55 111.615C154.26 111.555 153.05 111.545 154.09 111.145C156.29 110.315 153.15 104.875 158.53 106.205Z" fill="#FFE4D7"/>
<path d="M155.969 101.965C155.125 101.565 154.235 101.266 153.319 101.075C152.287 100.795 151.202 100.769 150.157 100.999C149.113 101.228 148.139 101.708 147.319 102.395C145.579 103.948 144.463 106.081 144.179 108.395C144.009 110.395 144.449 112.875 146.129 114.215C148.219 115.885 151.899 117.215 153.479 114.735C153.764 114.337 153.99 113.899 154.149 113.435C154.93 111.566 156.011 109.836 157.349 108.315C157.846 107.749 158.18 107.058 158.316 106.317C158.451 105.576 158.383 104.811 158.119 104.105C157.688 103.154 156.923 102.392 155.969 101.965Z" fill="#F7734F"/>
<path d="M172.079 122.665C171.815 122.42 171.484 122.258 171.128 122.201C170.772 122.145 170.407 122.195 170.079 122.345L170.279 121.965C170.286 121.919 170.286 121.872 170.279 121.825C170.709 121.605 170.439 120.825 169.869 120.915C168.869 121.075 168.239 121.185 167.789 122.185C167.468 122.987 167.224 123.817 167.059 124.665C165.737 126.204 164.26 127.601 162.649 128.835C162.149 129.245 162.859 129.945 163.359 129.545L163.559 129.385C163.594 129.459 163.644 129.524 163.706 129.576C163.768 129.628 163.841 129.665 163.919 129.685C163.884 129.756 163.865 129.834 163.864 129.912C163.862 129.991 163.878 130.07 163.911 130.141C163.943 130.213 163.992 130.277 164.052 130.328C164.112 130.379 164.183 130.415 164.259 130.435C163.939 130.745 163.609 131.035 163.259 131.345C162.789 131.815 163.469 132.435 163.969 132.055C164.469 131.675 165.089 131.225 165.639 130.805C165.399 131.055 165.139 131.305 164.899 131.565C164.459 132.035 165.169 132.745 165.609 132.275C166.809 130.965 168.079 129.725 169.379 128.515C170.088 128.285 170.777 127.998 171.439 127.655C172.179 127.275 173.199 126.745 173.219 125.785C173.115 124.665 172.722 123.59 172.079 122.665Z" fill="#FFE4D7"/>
<path d="M174.75 121.075C174.4 120.555 174.01 120.545 173.5 120.305L173.94 119.965C174.47 119.625 174.918 119.171 175.25 118.635C175.43 118.285 175.12 117.725 174.69 117.905C173.476 118.376 172.327 118.997 171.27 119.755C170.27 120.335 169.59 121.975 169.15 122.755C168.84 123.315 169.7 123.825 170.01 123.255L170.26 122.755C170.324 122.845 170.415 122.911 170.52 122.945C170.52 123.035 170.44 123.115 170.39 123.205C170.337 123.296 170.316 123.402 170.33 123.505C170.297 123.561 170.277 123.622 170.27 123.685C170.2 124.195 169.77 125.085 170.41 125.415C170.499 125.46 170.599 125.481 170.7 125.475L169.89 126.325C169.826 126.389 169.781 126.468 169.759 126.555C169.738 126.642 169.741 126.734 169.767 126.819C169.794 126.905 169.844 126.982 169.911 127.041C169.979 127.1 170.061 127.14 170.15 127.155C170.153 127.222 170.173 127.287 170.208 127.344C170.242 127.401 170.29 127.449 170.347 127.484C170.404 127.518 170.469 127.538 170.536 127.542C170.602 127.546 170.669 127.533 170.73 127.505C172.13 126.915 174.17 126.055 175.08 124.745C175.323 124.152 175.42 123.509 175.362 122.87C175.305 122.231 175.095 121.616 174.75 121.075Z" fill="#FFE4D7"/>
<path d="M166.439 124.786L159.35 131.036L158.939 128.156C158.639 126.426 158.107 124.744 157.359 123.156C152.719 125.466 149.569 131.346 151.509 136.066C153.229 138.526 155.509 140.966 158.109 141.306C163.469 142.006 170.99 131.566 170.99 131.566C170.66 128.916 166.439 124.786 166.439 124.786Z" fill="#F7734F"/>
<path d="M148.51 102.315C148.51 95.6454 137.21 94.5054 135.51 100.685C135.29 101.522 135.27 102.399 135.453 103.244C135.636 104.09 136.015 104.88 136.561 105.552C137.107 106.223 137.803 106.756 138.593 107.108C139.384 107.459 140.246 107.62 141.11 107.575C143.39 107.421 145.614 106.805 147.65 105.765" fill="#F7734F"/>
</g>
<defs>
<filter id="filter0_d" x="0.749512" y="-25.6846" width="475" height="364" filterUnits="userSpaceOnUse" color-interpolation-filters="sRGB">
<feFlood flood-opacity="0" result="BackgroundImageFix"/>
<feColorMatrix in="SourceAlpha" type="matrix" values="0 0 0 0 0 0 0 0 0 0 0 0 0 0 0 0 0 0 127 0"/>
<feOffset dx="43" dy="6"/>
<feGaussianBlur stdDeviation="16"/>
<feColorMatrix type="matrix" values="0 0 0 0 0 0 0 0 0 0 0 0 0 0 0 0 0 0 0.25 0"/>
<feBlend mode="normal" in2="BackgroundImageFix" result="effect1_dropShadow"/>
<feBlend mode="normal" in="SourceGraphic" in2="effect1_dropShadow" result="shape"/>
</filter>
<linearGradient id="paint0_linear" x1="298.619" y1="163.955" x2="267.369" y2="141.945" gradientUnits="userSpaceOnUse">
<stop stop-color="white" stop-opacity="0"/>
<stop offset="0.98" stop-color="#0800BF"/>
</linearGradient>
<linearGradient id="paint1_linear" x1="-10853.5" y1="3883.9" x2="-11655.8" y2="2970.49" gradientUnits="userSpaceOnUse">
<stop stop-color="white" stop-opacity="0"/>
<stop offset="0.98" stop-color="#0800BF"/>
</linearGradient>
<linearGradient id="paint2_linear" x1="-22911.1" y1="11915.3" x2="-24005.9" y2="9707.14" gradientUnits="userSpaceOnUse">
<stop stop-color="white" stop-opacity="0"/>
<stop offset="0.98" stop-color="#0800BF"/>
</linearGradient>
<linearGradient id="paint3_linear" x1="-15812.6" y1="22199.3" x2="-19229.4" y2="16744.2" gradientUnits="userSpaceOnUse">
<stop stop-color="white" stop-opacity="0"/>
<stop offset="0.98" stop-color="#0800BF"/>
</linearGradient>
<linearGradient id="paint4_linear" x1="-3032.5" y1="7879.13" x2="-3834.9" y2="6966.13" gradientUnits="userSpaceOnUse">
<stop stop-color="white" stop-opacity="0"/>
<stop offset="0.98" stop-color="#0800BF"/>
</linearGradient>
</defs>
</svg>
