<svg width="701" height="468" viewBox="0 0 701 468" fill="none" xmlns="http://www.w3.org/2000/svg">
<path d="M643.143 251.445L544.77 194.477C539.423 191.377 530.086 191.751 523.908 195.308L317.45 314.122C311.273 317.632 310.594 323.072 315.941 326.173L414.35 383.128C419.697 386.229 429.045 385.854 435.222 382.297L641.622 263.484C647.8 259.927 648.478 254.534 643.143 251.445Z" fill="#7DC3EA"/>
<path d="M423.429 373.055C419.957 373.143 416.52 372.337 413.449 370.715L315.075 313.747C312.197 312.086 310.606 309.687 310.618 307.02C310.618 303.931 312.794 300.912 316.596 298.724L523.043 179.911C529.806 176.027 539.727 175.652 545.636 179.08L643.998 236.048C646.887 237.709 648.467 240.096 648.467 242.775C648.467 245.864 646.279 248.882 642.488 251.07L436.03 369.884C432.169 371.999 427.831 373.09 423.429 373.055ZM535.749 180.203C531.934 180.163 528.171 181.089 524.81 182.894L318.316 301.708C315.649 303.241 314.058 305.218 314.058 307.031C314.058 308.845 315.543 310.038 316.807 310.775L415.169 367.731C419.954 370.504 428.718 370.071 434.31 366.9L640.768 248.04C643.424 246.507 645.015 244.53 645.015 242.717C645.015 240.903 643.53 239.698 642.278 238.973L543.904 182.052C541.374 180.741 538.551 180.097 535.702 180.18L535.749 180.203Z" fill="white"/>
<path d="M411.448 348.122L309.05 288.838C305.68 286.896 304.124 284.263 304.23 281.537L304.23 266.69L309.916 273.359C310.29 273.113 310.665 272.867 311.086 272.633L520.516 152.123C528.823 147.338 541.4 146.835 548.596 150.953L649.52 209.43C651.568 207.195 655.85 202.468 655.85 202.468V217C656.002 220.276 653.673 223.762 648.982 226.465L439.552 346.975C431.198 351.784 418.632 352.287 411.448 348.122Z" fill="#396CAA"/>
<path d="M356.084 311.758L361.934 315.163C362.718 315.607 363.362 315.163 363.362 314.086C363.353 313.556 363.219 313.034 362.971 312.565C362.723 312.095 362.368 311.691 361.934 311.384L356.084 307.979C355.3 307.523 354.668 307.979 354.668 309.044C354.677 309.575 354.809 310.097 355.055 310.568C355.301 311.04 355.653 311.447 356.084 311.758Z" fill="#173D7A"/>
<path d="M520.539 152.1C528.846 147.315 541.424 146.812 548.619 150.93L649.52 209.43C651.568 207.195 655.85 202.469 655.85 202.469V217C656.002 220.276 653.674 223.763 648.982 226.465L439.552 346.975C434.907 349.494 429.719 350.844 424.436 350.906L424.634 207.301L520.539 152.1Z" fill="url(#paint0_linear)"/>
<path d="M651.029 195.39L548.654 136.106C541.459 131.953 528.893 132.456 520.574 137.276L311.144 257.786C302.825 262.571 301.913 269.825 309.108 273.991L411.483 333.275C418.667 337.44 431.233 336.937 439.563 332.105L648.993 211.595C657.3 206.751 658.213 199.497 651.029 195.39Z" fill="#D4ECFF"/>
<path d="M411.413 334.772L309.05 275.488C305.341 273.347 303.808 270.375 304.311 267.298C304.498 269.755 306.066 272.084 309.132 273.862L411.507 333.146C418.69 337.311 431.256 336.808 439.587 331.976L649.017 211.466C653.053 209.126 655.323 206.259 655.791 203.416C656.037 206.739 653.72 210.308 648.947 213.057L439.516 333.567C431.163 338.434 418.597 338.937 411.413 334.772Z" fill="white"/>
<path d="M643.143 197.73L544.77 140.763C539.423 137.674 530.086 138.048 523.908 141.605L317.45 260.36C311.273 263.87 310.594 269.311 315.941 272.399L414.35 329.367C419.697 332.456 429.045 332.081 435.222 328.524L641.622 209.723C647.8 206.166 648.478 200.772 643.143 197.73Z" fill="url(#paint1_radial)"/>
<path d="M439.084 299.777L369.667 259.705L374.102 257.143L443.518 297.215L439.084 299.777Z" fill="#D4ECFF"/>
<path d="M390.786 288.101L355.64 267.801L360.074 265.251L395.221 285.538L390.786 288.101Z" fill="#D4ECFF"/>
<path d="M407.845 297.941L396.449 291.365L400.884 288.803L412.279 295.39L407.845 297.941Z" fill="#FF2C9C"/>
<path d="M425.055 307.874L413.66 301.298L418.082 298.736L429.49 305.323L425.055 307.874Z" fill="white"/>
<path d="M391.184 280.227L362.66 263.753L367.094 261.191L395.619 277.664L391.184 280.227Z" fill="white"/>
<path d="M426.003 300.327L397.479 283.854L401.913 281.303L430.437 297.765L426.003 300.327Z" fill="#D4ECFF"/>
<path d="M404.885 265.122C404.083 265.526 403.197 265.737 402.299 265.737C401.401 265.737 400.515 265.526 399.713 265.122C399.403 265.014 399.135 264.813 398.945 264.545C398.755 264.278 398.653 263.958 398.653 263.63C398.653 263.302 398.755 262.983 398.945 262.715C399.135 262.448 399.403 262.246 399.713 262.139C400.514 261.729 401.4 261.515 402.299 261.515C403.198 261.515 404.084 261.729 404.885 262.139C405.194 262.246 405.463 262.448 405.653 262.715C405.843 262.983 405.945 263.302 405.945 263.63C405.945 263.958 405.843 264.278 405.653 264.545C405.463 264.813 405.194 265.014 404.885 265.122Z" fill="#FF2C9C"/>
<path d="M412.607 269.58C411.805 269.984 410.919 270.194 410.021 270.194C409.123 270.194 408.237 269.984 407.435 269.58C407.126 269.472 406.857 269.27 406.667 269.003C406.477 268.736 406.375 268.416 406.375 268.088C406.375 267.76 406.477 267.44 406.667 267.173C406.857 266.906 407.126 266.704 407.435 266.596C408.237 266.192 409.123 265.981 410.021 265.981C410.919 265.981 411.805 266.192 412.607 266.596C412.917 266.704 413.185 266.906 413.375 267.173C413.565 267.44 413.667 267.76 413.667 268.088C413.667 268.416 413.565 268.736 413.375 269.003C413.185 269.27 412.917 269.472 412.607 269.58Z" fill="white"/>
<path d="M420.329 274.037C419.531 274.447 418.646 274.661 417.749 274.661C416.852 274.661 415.968 274.447 415.169 274.037C414.86 273.93 414.591 273.728 414.401 273.461C414.211 273.193 414.109 272.874 414.109 272.546C414.109 272.218 414.211 271.898 414.401 271.63C414.591 271.363 414.86 271.162 415.169 271.054C415.969 270.65 416.853 270.439 417.749 270.439C418.645 270.439 419.529 270.65 420.329 271.054C420.639 271.162 420.907 271.363 421.097 271.63C421.287 271.898 421.389 272.218 421.389 272.546C421.389 272.874 421.287 273.193 421.097 273.461C420.907 273.728 420.639 273.93 420.329 274.037Z" fill="#D4ECFF"/>
<path d="M428.051 278.46C427.252 278.87 426.368 279.083 425.471 279.083C424.574 279.083 423.689 278.87 422.891 278.46C422.581 278.352 422.313 278.151 422.123 277.883C421.933 277.616 421.831 277.296 421.831 276.968C421.831 276.64 421.933 276.32 422.123 276.053C422.313 275.786 422.581 275.584 422.891 275.476C423.691 275.072 424.575 274.862 425.471 274.862C426.367 274.862 427.251 275.072 428.051 275.476C428.36 275.584 428.629 275.786 428.819 276.053C429.009 276.32 429.111 276.64 429.111 276.968C429.111 277.296 429.009 277.616 428.819 277.883C428.629 278.151 428.36 278.352 428.051 278.46Z" fill="#FF2C9C"/>
<path d="M435.784 282.953C434.984 283.362 434.098 283.576 433.199 283.576C432.3 283.576 431.413 283.362 430.613 282.953C430.303 282.845 430.035 282.643 429.845 282.376C429.655 282.109 429.553 281.789 429.553 281.461C429.553 281.133 429.655 280.813 429.845 280.546C430.035 280.279 430.303 280.077 430.613 279.969C431.415 279.565 432.301 279.354 433.199 279.354C434.097 279.354 434.982 279.565 435.784 279.969C436.094 280.077 436.363 280.279 436.553 280.546C436.743 280.813 436.845 281.133 436.845 281.461C436.845 281.789 436.743 282.109 436.553 282.376C436.363 282.643 436.094 282.845 435.784 282.953Z" fill="white"/>
<path d="M591.032 198.116L579.343 191.365L583.883 188.744L595.571 195.495L591.032 198.116Z" fill="#FF2C9C"/>
<path d="M607.306 207.511L595.618 200.76L600.157 198.14L611.846 204.89L607.306 207.511Z" fill="white"/>
<path d="M538.826 167.684L527.138 160.945L531.678 158.324L543.366 165.064L538.826 167.684Z" fill="white"/>
<path d="M588.423 204.914L572.148 195.519L576.688 192.898L592.962 202.293L588.423 204.914Z" fill="white"/>
<path d="M600.111 211.665L592.974 207.535L597.514 204.914L604.651 209.032L600.111 211.665Z" fill="#D4ECFF"/>
<path d="M622.154 301.31C621.897 301.31 621.645 301.25 621.416 301.135C621.043 300.94 620.762 300.606 620.635 300.204C620.508 299.803 620.545 299.368 620.738 298.993C622.206 296.06 624.452 293.587 627.231 291.845C628.605 290.997 630.192 290.559 631.806 290.581C633.889 290.675 636.392 289.142 638.627 286.463C639.779 285.04 641.173 283.831 642.746 282.894C644.112 282.031 645.704 281.591 647.32 281.631C649.391 281.631 651.918 280.192 654.141 277.512C655.296 276.085 656.695 274.873 658.271 273.932C659.635 273.071 661.222 272.631 662.834 272.668C664.917 272.668 667.433 271.229 669.667 268.55C670.819 267.124 672.213 265.912 673.786 264.97C674.734 264.328 675.821 263.92 676.958 263.777C678.094 263.635 679.248 263.763 680.326 264.151C680.531 264.224 680.719 264.339 680.878 264.488C681.037 264.637 681.163 264.816 681.25 265.016C681.337 265.216 681.381 265.432 681.381 265.649C681.381 265.867 681.336 266.083 681.25 266.282C681.163 266.482 681.036 266.662 680.877 266.811C680.719 266.96 680.531 267.074 680.326 267.147C680.121 267.221 679.903 267.251 679.685 267.237C679.468 267.223 679.256 267.164 679.062 267.064C678.439 266.885 677.782 266.852 677.144 266.965C676.505 267.079 675.901 267.337 675.377 267.719C674.128 268.475 673.02 269.441 672.101 270.574C669.199 274.084 665.771 275.991 662.741 275.839C661.736 275.842 660.753 276.135 659.909 276.682C658.665 277.438 657.56 278.403 656.645 279.536C653.744 283.046 650.339 284.942 647.285 284.801C646.28 284.802 645.296 285.095 644.454 285.644C643.207 286.397 642.102 287.363 641.189 288.499C638.276 292.009 634.871 293.916 631.759 293.752C630.757 293.764 629.78 294.06 628.94 294.606C626.677 296.031 624.854 298.056 623.675 300.456C623.531 300.73 623.31 300.956 623.04 301.108C622.77 301.26 622.462 301.33 622.154 301.31Z" fill="#7DC3EA"/>
<path d="M528.916 362.326C528.86 363.387 528.554 364.42 528.023 365.341C527.492 366.261 526.752 367.044 525.863 367.626C524.166 368.597 522.797 367.813 522.797 365.859C522.853 364.798 523.161 363.765 523.693 362.846C524.226 361.926 524.97 361.147 525.863 360.571C527.547 359.588 528.916 360.36 528.916 362.326Z" fill="#572BD6"/>
<path d="M538.814 356.616C538.756 357.675 538.449 358.706 537.919 359.624C537.388 360.543 536.649 361.324 535.761 361.904C534.076 362.875 532.707 362.092 532.707 360.138C532.766 359.078 533.072 358.048 533.603 357.129C534.133 356.21 534.873 355.429 535.761 354.849C537.446 353.878 538.814 354.662 538.814 356.616Z" fill="#572BD6"/>
<path d="M548.724 350.895C548.666 351.954 548.359 352.985 547.829 353.903C547.298 354.822 546.559 355.603 545.671 356.183C543.974 357.166 542.617 356.37 542.617 354.416C542.673 353.357 542.979 352.325 543.509 351.406C544.04 350.487 544.781 349.706 545.671 349.128C547.356 348.157 548.724 348.941 548.724 350.895Z" fill="#572BD6"/>
<path d="M558.634 345.15C558.578 346.211 558.271 347.244 557.738 348.163C557.205 349.082 556.462 349.862 555.569 350.438C553.884 351.421 552.515 350.626 552.515 348.683C552.573 347.622 552.879 346.59 553.41 345.669C553.94 344.748 554.68 343.965 555.569 343.383C557.265 342.436 558.634 343.231 558.634 345.15Z" fill="#572BD6"/>
<path d="M504.779 103.498C504.726 104.563 504.421 105.601 503.888 106.524C503.355 107.448 502.609 108.232 501.713 108.81C500.029 109.793 498.66 108.997 498.66 107.055C498.723 106 499.032 104.974 499.562 104.06C500.092 103.146 500.829 102.369 501.713 101.79C503.41 100.76 504.779 101.556 504.779 103.498Z" fill="#72F7FF"/>
<path d="M513.203 98.6309C513.146 99.6906 512.84 100.722 512.31 101.641C511.779 102.56 511.039 103.34 510.149 103.919C508.465 104.902 507.096 104.107 507.096 102.164C507.153 101.103 507.46 100.071 507.99 99.15C508.521 98.2293 509.26 97.4463 510.149 96.8642C511.834 95.9399 513.203 96.6887 513.203 98.6309Z" fill="#72F7FF"/>
<path d="M504.779 93.7638C504.721 94.8261 504.413 95.8597 503.88 96.7806C503.348 97.7015 502.605 98.4838 501.713 99.0639C500.029 100.035 498.66 99.2394 498.66 97.2972C498.717 96.2361 499.024 95.2035 499.554 94.2828C500.085 93.3621 500.824 92.5791 501.713 91.9971C503.41 91.026 504.779 91.8216 504.779 93.7638Z" fill="#72F7FF"/>
<path d="M513.203 88.92C513.145 89.981 512.839 91.0136 512.309 91.9343C511.778 92.855 511.038 93.638 510.149 94.2201C508.465 95.1912 507.096 94.3956 507.096 92.4534C507.153 91.3923 507.46 90.3598 507.99 89.439C508.521 88.5183 509.26 87.7353 510.149 87.1533C511.834 86.1588 513.203 86.9544 513.203 88.92Z" fill="#72F7FF"/>
<path d="M319.03 215.853L312.911 219.387V212.332L319.03 208.798V215.853Z" fill="#72F7FF"/>
<path d="M328.928 210.144L322.821 213.665V206.61L328.928 203.077V210.144Z" fill="#72F7FF"/>
<path d="M338.838 204.422L332.731 207.944V200.889L338.838 197.367V204.422Z" fill="#72F7FF"/>
<path d="M348.748 198.701L342.629 202.235V195.168L348.748 191.646V198.701Z" fill="#72F7FF"/>
<path d="M464.239 398.245L458.131 401.778V394.723L464.239 391.19V398.245Z" fill="#572BD6"/>
<path d="M472.721 393.284L466.614 396.817V389.762L472.721 386.229V393.284Z" fill="#572BD6"/>
<path d="M464.297 407.406L458.178 410.927V403.872L464.297 400.35V407.406Z" fill="#572BD6"/>
<path d="M472.721 402.538L466.614 406.06V399.005L472.721 395.483V402.538Z" fill="#572BD6"/>
<path d="M606.581 78.1678C605.452 78.8557 604.444 79.7254 603.598 80.7418C603.457 74.8918 599.233 72.5518 594.039 75.5002C592.278 76.5705 590.721 77.9451 589.441 79.5601C587.101 75.5119 582.327 74.5759 576.769 77.7817C568.954 82.2979 562.612 93.2725 562.612 102.352C562.616 103.056 562.663 103.759 562.753 104.458C561.378 104.192 559.953 104.478 558.787 105.253C556.823 106.538 555.187 108.266 554.013 110.299C552.838 112.331 552.157 114.61 552.024 116.953C552.024 121.271 555.054 123.026 558.787 120.861L606.581 93.214C608.482 91.9754 610.064 90.3049 611.196 88.3386C612.329 86.3724 612.981 84.1661 613.098 81.9001C613.098 77.7817 610.185 76.0501 606.581 78.1678Z" fill="#72F7FF"/>
<path opacity="0.4" d="M325.828 364.279C324.63 365 323.562 365.918 322.669 366.994C322.517 360.758 318.047 358.266 312.537 361.448C310.678 362.568 309.031 364.006 307.67 365.695C305.224 361.413 300.146 360.418 294.261 363.811C285.978 368.597 279.274 380.191 279.274 389.774C279.277 390.521 279.324 391.267 279.414 392.008C277.961 391.732 276.458 392.034 275.225 392.851C273.146 394.217 271.417 396.054 270.179 398.213C268.942 400.372 268.229 402.791 268.1 405.276C268.1 409.851 271.306 411.7 275.272 409.418L325.875 380.168C327.884 378.863 329.556 377.102 330.756 375.028C331.956 372.954 332.648 370.626 332.778 368.234C332.731 363.87 329.642 362.08 325.828 364.279Z" fill="#72F7FF"/>
<path d="M401.889 195.881L472.195 155.294C479.8 150.895 478.852 143.22 470.065 138.154C461.279 133.076 447.976 132.526 440.371 136.913L370.065 177.512C362.46 181.9 363.408 189.575 372.195 194.653C380.993 199.719 394.284 200.281 401.889 195.881Z" fill="#7DC3EA"/>
<path d="M388.961 188.183C382.801 188.213 376.735 186.666 371.341 183.69C366.17 180.707 363.209 176.67 363.209 172.505C363.209 168.995 365.339 165.801 369.212 163.566L439.505 122.979C447.695 118.299 461.525 118.778 470.92 124.149C476.091 127.132 479.051 131.169 479.051 135.334C479.051 138.844 476.922 142.038 473.049 144.273L402.755 184.86C398.519 187.134 393.768 188.279 388.961 188.183ZM453.311 123.236C449.124 123.106 444.973 124.057 441.26 125.997L370.955 166.585C368.159 168.199 366.673 170.258 366.673 172.54C366.673 175.395 369.013 178.39 373.084 180.73C381.38 185.527 393.934 186.077 401.059 181.958L471.353 141.371C474.149 139.757 475.635 137.697 475.635 135.416C475.635 132.549 473.295 129.566 469.223 127.226C464.329 124.56 458.837 123.187 453.264 123.236H453.311Z" fill="#72F7FF"/>
<path d="M440.535 133.45V128.349L446.572 97.929L440.617 94.2435L428.682 100.831L428.589 140.002C428.589 142.635 429.572 144.413 431.093 144.998L436.404 148.333L437.071 145.817L437.972 141.219C439.557 138.93 440.447 136.233 440.535 133.45Z" fill="#5793CE"/>
<path d="M440.512 148.251C437.212 150.076 434.556 148.04 434.568 143.711L434.65 104.551L446.584 97.9641L446.502 137.124C446.49 141.453 443.811 146.437 440.512 148.251Z" fill="#5793CE"/>
<path d="M472.721 76.869C472.721 66.9357 465.701 54.8496 457.137 49.8771C452.679 47.3031 448.666 47.151 445.823 48.9645L398.566 76.2489L422.949 112.882L468.099 87.0012L468.217 86.931H468.31C471.036 85.1994 472.721 81.7479 472.721 76.869Z" fill="url(#paint2_linear)"/>
<path d="M412.255 129.355C412.255 109.746 398.485 85.9013 381.496 76.085C373.025 71.1944 365.35 70.7264 359.793 73.9088L354.68 76.904L356.435 76.5413C352.855 80.2736 350.737 86.1704 350.737 93.8456C350.737 113.455 364.508 137.311 381.496 147.116C388.165 150.965 394.366 152.077 399.374 150.825L398.566 151.995L403.246 149.28H403.328L403.492 149.175C408.898 145.876 412.255 139.043 412.255 129.355Z" fill="#D4ECFF"/>
<path d="M408.652 131.461C408.652 111.84 394.881 87.9957 377.893 78.1911C369.539 73.359 361.957 72.8442 356.423 75.8511L355.651 76.3074C355.382 76.4712 355.124 76.6467 354.867 76.8339L356.435 76.5063C352.855 80.2386 350.737 86.1354 350.737 93.8106C350.737 113.42 364.508 137.276 381.496 147.081C388.165 150.93 394.366 152.042 399.374 150.79L398.637 151.854C404.791 148.953 408.652 141.839 408.652 131.461Z" fill="white"/>
<path d="M450.468 90.1486C450.468 79.9228 443.296 67.4974 434.439 62.3845C430.414 60.0445 426.74 59.6467 423.909 60.8518H423.85H423.78L423.417 61.0273C406.686 69.2855 388.16 73.2424 369.515 72.5401L364.227 72.3412L407.236 146.051L409.576 141.547C418.067 125.132 430.477 111.067 445.706 100.597C448.643 98.9119 450.468 95.3083 450.468 90.1486Z" fill="url(#paint3_linear)"/>
<path d="M398.626 151.968C410.635 145.035 410.635 122.552 398.626 101.751C386.617 80.951 367.146 69.7096 355.137 76.643C343.128 83.5765 343.128 106.059 355.137 126.86C367.146 147.66 386.617 158.901 398.626 151.968Z" fill="#5793CE"/>
<path d="M395.958 147.348C406.495 141.264 406.496 121.539 395.96 103.29C385.425 85.0413 368.341 75.1797 357.804 81.2634C347.267 87.3471 347.266 107.072 357.801 125.321C368.337 143.57 385.42 153.431 395.958 147.348Z" fill="#173D7A"/>
<path d="M364.717 108.825L389 93.5C394.32 101.48 398.823 109.975 402.442 118.856L402.5 119L372.135 122.07L364.717 108.825Z" fill="#D4ECFF"/>
<path d="M374.147 118.384C374.147 121.824 371.725 123.216 368.754 121.496C367.183 120.47 365.877 119.087 364.942 117.46C364.007 115.834 363.469 114.01 363.372 112.136C363.372 108.708 365.782 107.316 368.754 109.036C370.325 110.059 371.633 111.439 372.57 113.064C373.507 114.688 374.048 116.511 374.147 118.384Z" fill="#5793CE"/>
<path d="M378.138 144.916C363.233 136.317 351.17 115.385 351.17 98.1863C351.17 89.1422 354.493 82.9763 359.816 80.3204C353.767 82.5317 349.906 88.9901 349.906 98.7245C349.906 115.935 361.981 136.855 376.886 145.454C383.906 149.538 390.4 150.134 395.22 147.794C390.552 149.456 384.608 148.66 378.138 144.916Z" fill="white"/>
<path d="M431.689 133.789L431.467 133.661C431.037 133.351 430.685 132.946 430.439 132.477C430.194 132.008 430.061 131.488 430.051 130.958V123.412C430.051 122.37 430.683 121.891 431.467 122.335L431.678 122.452C432.109 122.767 432.459 123.179 432.701 123.655C432.943 124.13 433.069 124.656 433.07 125.19V132.748C433.07 133.754 432.473 134.234 431.689 133.789Z" fill="white"/>
<path d="M489.815 261.624C512.017 261.624 530.016 251.231 530.016 238.411C530.016 225.591 512.017 215.198 489.815 215.198C467.612 215.198 449.614 225.591 449.614 238.411C449.614 251.231 467.612 261.624 489.815 261.624Z" fill="#092E63"/>
<path d="M539.797 206.915V192.875H537.2C534.252 188.154 530.117 184.289 525.207 181.666C505.692 170.387 474.043 170.387 454.528 181.666C449.581 184.281 445.409 188.15 442.43 192.886H439.786V206.844C439.786 214.25 444.618 221.668 454.411 227.319C473.938 238.598 505.575 238.598 525.102 227.319C534.918 221.692 539.797 214.309 539.797 206.915Z" fill="#572BD6"/>
<path d="M525.149 181.678C515.391 176.038 502.603 173.219 489.815 173.219V235.778C502.603 235.778 515.391 232.959 525.161 227.331C534.93 221.703 539.797 214.309 539.797 206.915V192.875H537.2C534.234 188.15 530.078 184.289 525.149 181.678Z" fill="#230088"/>
<path d="M489.815 221.738C517.419 221.738 539.797 208.821 539.797 192.886C539.797 176.952 517.419 164.034 489.815 164.034C462.21 164.034 439.833 176.952 439.833 192.886C439.833 208.821 462.21 221.738 489.815 221.738Z" fill="url(#paint4_linear)"/>
<path d="M525.161 213.291C505.633 224.558 473.997 224.558 454.469 213.291C445.109 207.886 440.301 200.877 439.915 193.799C439.493 201.497 444.314 209.254 454.469 215.128C473.997 226.395 505.633 226.395 525.161 215.128C535.316 209.278 540.137 201.497 539.716 193.81C539.329 200.877 534.509 207.886 525.161 213.291Z" fill="white"/>
<path d="M469.89 194.15L489.452 182.848C491.663 181.572 495.442 182.134 496.332 183.866L504.522 199.906C505.446 201.72 502.533 203.416 499.397 202.866L471.68 198.116C468.638 197.613 467.678 195.39 469.89 194.15Z" fill="white"/>
<path d="M481.988 282.578L402.194 236.516L404.312 235.287L484.106 281.362L481.988 282.578Z" fill="#79B1E0"/>
<path d="M427.933 252.708L401.035 237.182L405.469 234.62L432.356 250.146L427.933 252.708Z" fill="#D4ECFF"/>
<path d="M426.881 253.551L425.746 252.919L432.696 248.894L433.831 249.538L426.881 253.551Z" fill="white"/>
<path d="M222.108 365.274C221.85 365.275 221.597 365.21 221.371 365.087C221.184 364.989 221.018 364.856 220.883 364.694C220.748 364.533 220.646 364.346 220.583 364.145C220.52 363.944 220.497 363.733 220.516 363.523C220.534 363.313 220.594 363.109 220.692 362.922C222.173 359.967 224.44 357.478 227.244 355.727C228.619 354.878 230.215 354.454 231.83 354.51C233.901 354.627 236.51 353.047 238.71 350.345C239.874 348.907 241.285 347.686 242.875 346.741C244.251 345.867 245.856 345.423 247.485 345.466C249.603 345.559 252.165 344.015 254.376 341.301C255.541 339.862 256.951 338.642 258.542 337.697C259.919 336.827 261.523 336.384 263.151 336.422C265.234 336.515 267.831 334.971 270.043 332.268C271.198 330.818 272.61 329.593 274.208 328.653C275.165 328.005 276.262 327.592 277.409 327.45C278.556 327.308 279.72 327.439 280.807 327.834C281.196 328.005 281.502 328.323 281.656 328.719C281.811 329.115 281.802 329.556 281.632 329.946C281.461 330.335 281.142 330.641 280.746 330.796C280.35 330.95 279.909 330.941 279.52 330.771C278.892 330.592 278.232 330.558 277.59 330.671C276.947 330.785 276.339 331.043 275.811 331.426C274.548 332.19 273.428 333.168 272.5 334.316C269.575 337.826 266.147 339.78 262.999 339.616C261.987 339.634 261 339.93 260.144 340.47C258.886 341.23 257.769 342.204 256.845 343.348C253.908 346.858 250.48 348.835 247.333 348.66C246.321 348.68 245.335 348.975 244.478 349.514C243.219 350.274 242.103 351.248 241.179 352.392C238.254 355.902 234.814 357.868 231.667 357.704C230.655 357.72 229.666 358.016 228.812 358.558C226.548 359.992 224.716 362.014 223.512 364.408C223.376 364.665 223.175 364.88 222.928 365.032C222.681 365.185 222.398 365.268 222.108 365.274Z" fill="#572BD6"/>
<path d="M626.646 152.1C625.461 152.113 624.294 151.81 623.265 151.223C620.925 149.842 619.544 147.057 619.544 143.372C619.544 136.352 624.33 128.057 630.425 124.535C633.62 122.686 636.685 122.441 639.084 123.821C641.482 125.202 642.792 127.986 642.792 131.672C642.792 138.692 638.019 146.987 631.923 150.509C630.335 151.494 628.515 152.043 626.646 152.1ZM635.691 125.927C634.355 125.985 633.057 126.388 631.923 127.097C626.74 130.092 622.563 137.381 622.563 143.36C622.563 145.934 623.359 147.806 624.786 148.625C626.213 149.444 628.238 149.198 630.461 147.911C635.632 144.928 639.821 137.639 639.821 131.66C639.821 129.086 639.037 127.214 637.598 126.395C637.023 126.047 636.363 125.865 635.691 125.869V125.927Z" fill="#72F7FF"/>
<defs>
<linearGradient id="paint0_linear" x1="424.4" y1="249.549" x2="669.34" y2="249.549" gradientUnits="userSpaceOnUse">
<stop stop-color="#86B8E0"/>
<stop offset="0.12" stop-color="#98C4E7"/>
<stop offset="0.33" stop-color="#B2D6F2"/>
<stop offset="0.54" stop-color="#C5E2F9"/>
<stop offset="0.76" stop-color="#D0EAFE"/>
<stop offset="1" stop-color="#D4ECFF"/>
</linearGradient>
<radialGradient id="paint1_radial" cx="0" cy="0" r="1" gradientUnits="userSpaceOnUse" gradientTransform="translate(645.425 201.743) scale(238.586)">
<stop stop-color="#173D7A"/>
<stop offset="0.42" stop-color="#153B76"/>
<stop offset="0.82" stop-color="#0E336B"/>
<stop offset="1" stop-color="#092E63"/>
</radialGradient>
<linearGradient id="paint2_linear" x1="425.863" y1="61.2027" x2="456.247" y2="100.913" gradientUnits="userSpaceOnUse">
<stop stop-color="#572BD6"/>
<stop offset="1" stop-color="#B760FB"/>
</linearGradient>
<linearGradient id="paint3_linear" x1="361.782" y1="74.845" x2="440.581" y2="113.981" gradientUnits="userSpaceOnUse">
<stop stop-color="#D4ECFF"/>
<stop offset="0.24" stop-color="#D0EAFE"/>
<stop offset="0.46" stop-color="#C5E2F9"/>
<stop offset="0.67" stop-color="#B2D6F2"/>
<stop offset="0.88" stop-color="#98C4E7"/>
<stop offset="1" stop-color="#86B8E0"/>
</linearGradient>
<linearGradient id="paint4_linear" x1="38104.6" y1="9677.19" x2="46645.6" y2="9677.19" gradientUnits="userSpaceOnUse">
<stop stop-color="#572BD6"/>
<stop offset="0.31" stop-color="#FB289B"/>
<stop offset="0.6" stop-color="#F01D97"/>
<stop offset="0.88" stop-color="#DD0A91"/>
<stop offset="1" stop-color="#D3008D"/>
</linearGradient>
</defs>
</svg>
