<svg width="363" height="312" viewBox="0 0 363 312" fill="none" xmlns="http://www.w3.org/2000/svg">
<g filter="url(#filter0_d)">
<circle cx="181.519" cy="151.383" r="132.279" fill="#E6E6E6" fill-opacity="0.6"/>
</g>
<path d="M187.441 157.612C187.441 157.612 188.926 154.307 190.937 154.954C192.947 155.601 194.731 164.221 187.64 163.769L187.441 157.612Z" fill="#F4A28C"/>
<path d="M177.118 87.5085H63.0603V199.091H177.118V87.5085Z" fill="#24285B"/>
<path d="M133.034 136.474H96.3945V140.487H133.034V136.474Z" fill="#40006B"/>
<path d="M139.654 125.302H106.899V129.315H139.654V125.302Z" fill="#FFD200"/>
<path d="M155.212 167.641H138.124V171.654H155.212V167.641Z" fill="#FFD200"/>
<path d="M137.951 156.363H120.863V160.376H137.951V156.363Z" fill="#FFD200"/>
<path d="M150.557 146.166H106.899V150.179H150.557V146.166Z" fill="#40006B"/>
<path d="M99.2199 146.166H82.8018V150.179H99.2199V146.166Z" fill="white"/>
<path d="M115.575 156.699H99.1565V160.713H115.575V156.699Z" fill="white"/>
<path d="M100.017 178.21H83.5986V182.223H100.017V178.21Z" fill="white"/>
<path d="M88.7152 136.474H72.2971V140.487H88.7152V136.474Z" fill="white"/>
<path d="M70.5312 96.1552C71.5965 96.1552 72.4601 95.3103 72.4601 94.2682C72.4601 93.226 71.5965 92.3811 70.5312 92.3811C69.4659 92.3811 68.6023 93.226 68.6023 94.2682C68.6023 95.3103 69.4659 96.1552 70.5312 96.1552Z" fill="white"/>
<path d="M76.2726 96.1552C77.3379 96.1552 78.2015 95.3103 78.2015 94.2682C78.2015 93.226 77.3379 92.3811 76.2726 92.3811C75.2073 92.3811 74.3438 93.226 74.3438 94.2682C74.3438 95.3103 75.2073 96.1552 76.2726 96.1552Z" fill="#40006B"/>
<path d="M81.6969 96.1552C82.7622 96.1552 83.6258 95.3103 83.6258 94.2682C83.6258 93.226 82.7622 92.3811 81.6969 92.3811C80.6317 92.3811 79.7681 93.226 79.7681 94.2682C79.7681 95.3103 80.6317 96.1552 81.6969 96.1552Z" fill="#FFD200"/>
<path d="M88.7152 105.971H72.2971V109.985H88.7152V105.971Z" fill="white"/>
<path d="M99.2199 116H82.8018V120.013H99.2199V116Z" fill="white"/>
<path d="M139.654 116H106.899V120.013H139.654V116Z" fill="#FFD200"/>
<path d="M99.2199 125.302H82.8018V129.315H99.2199V125.302Z" fill="white"/>
<path d="M129.104 105.971H95.2805V109.985H129.104V105.971Z" fill="#40006B"/>
<path d="M89.1771 167.641H72.759V171.654H89.1771V167.641Z" fill="white"/>
<path d="M129.566 167.641H95.7424V171.654H129.566V167.641Z" fill="#40006B"/>
<path d="M140.342 178.192H106.519V182.205H140.342V178.192Z" fill="#40006B"/>
<path d="M160.192 105.971H136.177V109.985H160.192V105.971Z" fill="#40006B"/>
<path d="M269.894 87.2693H215.496V123.858H269.894V87.2693Z" fill="#FFD200"/>
<path opacity="0.08" d="M162.891 138.476C162.891 138.476 152.359 141.231 156.986 156.363C161.614 171.495 164.711 195.264 150.557 198.755H181.156L178.648 160.367L162.891 138.476Z" fill="black"/>
<path d="M235.383 112.749C235.1 112.747 234.826 112.653 234.604 112.483L226.454 106.175C226.303 106.063 226.182 105.918 226.099 105.752C226.015 105.586 225.973 105.403 225.974 105.218C225.974 105.033 226.017 104.851 226.098 104.684C226.18 104.517 226.298 104.369 226.445 104.253L234.595 97.8295C234.724 97.7277 234.872 97.6518 235.031 97.6061C235.19 97.5603 235.357 97.5457 235.522 97.5629C235.686 97.5802 235.846 97.6291 235.992 97.7067C236.137 97.7844 236.266 97.8894 236.37 98.0156C236.474 98.1418 236.551 98.2869 236.598 98.4424C236.645 98.598 236.66 98.7611 236.642 98.9223C236.625 99.0836 236.575 99.2398 236.495 99.3822C236.416 99.5245 236.309 99.6502 236.18 99.752L229.252 105.2L236.17 110.516C236.376 110.675 236.526 110.893 236.598 111.139C236.671 111.385 236.664 111.647 236.577 111.889C236.49 112.131 236.329 112.341 236.115 112.488C235.9 112.636 235.645 112.715 235.383 112.713V112.749Z" fill="white"/>
<path d="M175.017 172.549L170.878 194.325H185.965L183.294 172.549H175.017Z" fill="#F4A28C"/>
<path d="M250.152 112.749C249.891 112.748 249.636 112.668 249.424 112.52C249.211 112.372 249.051 112.162 248.965 111.921C248.88 111.679 248.873 111.418 248.946 111.172C249.019 110.927 249.169 110.71 249.373 110.552L256.283 105.236L249.364 99.7875C249.235 99.6863 249.128 99.5612 249.048 99.4194C248.969 99.2776 248.918 99.1218 248.9 98.961C248.882 98.8001 248.897 98.6374 248.943 98.4821C248.989 98.3267 249.066 98.1818 249.17 98.0555C249.273 97.9293 249.401 97.8242 249.546 97.7464C249.691 97.6685 249.85 97.6193 250.015 97.6016C250.179 97.5839 250.345 97.5981 250.504 97.6433C250.663 97.6885 250.811 97.7638 250.94 97.8651L259.09 104.288C259.239 104.402 259.359 104.548 259.442 104.715C259.525 104.881 259.568 105.064 259.568 105.249C259.568 105.434 259.525 105.617 259.442 105.784C259.359 105.95 259.239 106.096 259.09 106.21L250.94 112.518C250.711 112.678 250.434 112.759 250.152 112.749Z" fill="white"/>
<path d="M239.349 112.749C239.168 112.748 238.99 112.712 238.824 112.642C238.519 112.505 238.283 112.256 238.166 111.949C238.049 111.642 238.06 111.302 238.199 111.003L244.148 98.2814C244.207 98.1209 244.299 97.974 244.419 97.8501C244.539 97.7261 244.683 97.6279 244.844 97.5615C245.005 97.4952 245.177 97.4622 245.352 97.4646C245.526 97.467 245.698 97.5048 245.856 97.5756C246.015 97.6464 246.157 97.7486 246.273 97.8758C246.389 98.003 246.477 98.1524 246.531 98.3146C246.585 98.4767 246.604 98.648 246.586 98.8177C246.569 98.9874 246.516 99.1517 246.431 99.3003L240.49 112.031C240.391 112.245 240.23 112.427 240.028 112.554C239.825 112.682 239.59 112.749 239.349 112.749Z" fill="white"/>
<path d="M169.592 153.236C169.592 153.236 166.395 175.756 177.244 177.776C188.093 179.796 189.578 153.236 189.578 153.236C189.578 153.236 191.326 145.112 185.322 139.831C179.318 134.551 166.821 139.796 169.592 153.236Z" fill="#F4A28C"/>
<path d="M169.357 157.612L168.243 154.635C167.433 152.473 166.477 150.366 165.381 148.327C163.452 144.731 160.681 137.546 166.232 133.267C173.857 127.384 176.402 134.861 181.256 129.315C186.11 123.77 192.82 131.229 193.744 134.17C194.668 137.112 201.142 139.149 199.06 145.253C196.977 151.357 196.913 157.745 189.451 156.682C181.989 155.619 173.939 149.763 173.939 149.763C173.939 149.763 171.793 153.005 169.357 157.612Z" fill="#FFD200"/>
<path d="M174.283 166.365C176.569 166.365 178.422 164.552 178.422 162.316C178.422 160.08 176.569 158.268 174.283 158.268C171.997 158.268 170.145 160.08 170.145 162.316C170.145 164.552 171.997 166.365 174.283 166.365Z" fill="white"/>
<path d="M183.402 166.719C185.688 166.719 187.541 164.907 187.541 162.671C187.541 160.435 185.688 158.622 183.402 158.622C181.117 158.622 179.264 160.435 179.264 162.671C179.264 164.907 181.117 166.719 183.402 166.719Z" fill="white"/>
<path d="M136.176 271.471C136.176 271.471 104.309 200.092 170.878 194.325H185.965C185.965 194.325 249.772 203.317 218.022 269.965L136.176 271.471Z" fill="#40006B"/>
<path opacity="0.08" d="M149.298 228.451H138.124L146.663 261.071L144.725 271.471L159.296 271.02L162.963 240.934L149.298 228.451Z" fill="black"/>
<path d="M169.357 157.612C169.357 157.612 167.871 154.307 165.861 154.954C163.851 155.601 162.764 164.699 169.864 164.265L169.357 157.612Z" fill="#F4A28C"/>
<path d="M156.579 259.361L147.387 220.327H210.814L200.5 262.426L199.603 270.763H158.254L156.579 259.361Z" fill="#FFD200"/>
<path d="M179.662 244.203C182.698 244.203 185.159 241.795 185.159 238.825C185.159 235.855 182.698 233.447 179.662 233.447C176.627 233.447 174.166 235.855 174.166 238.825C174.166 241.795 176.627 244.203 179.662 244.203Z" fill="white"/>
<path d="M310.509 146.166H217.561V198.755H310.509V146.166Z" fill="#E6E6E6"/>
<path d="M233.435 168.172C236.416 168.172 238.833 165.808 238.833 162.892C238.833 159.976 236.416 157.612 233.435 157.612C230.455 157.612 228.038 159.976 228.038 162.892C228.038 165.808 230.455 168.172 233.435 168.172Z" fill="#24285B"/>
<path d="M233.435 186.564C236.416 186.564 238.833 184.2 238.833 181.284C238.833 178.368 236.416 176.004 233.435 176.004C230.455 176.004 228.038 178.368 228.038 181.284C228.038 184.2 230.455 186.564 233.435 186.564Z" fill="#40006B"/>
<path d="M294.625 159.286H245.923V165.709H294.625V159.286Z" fill="#C9C9C9"/>
<path d="M294.625 177.882H245.923V184.305H294.625V177.882Z" fill="#C9C9C9"/>
<path opacity="0.08" d="M174.274 176.5C174.274 176.5 178.802 179.158 182.424 176.287C182.424 176.287 182.678 183.012 173.368 181.284L174.274 176.5Z" fill="black"/>
<path opacity="0.2" d="M27.0075 114.837C16.5285 114.837 8.03357 106.517 8.03357 96.2537C8.03357 85.9905 16.5285 77.6705 27.0075 77.6705C37.4865 77.6705 45.9814 85.9905 45.9814 96.2537C45.9814 106.517 37.4865 114.837 27.0075 114.837Z" fill="#FFD200"/>
<path d="M15.2577 98.3959C14.7733 96.5484 14.7584 94.6128 15.2143 92.7583C15.6703 90.9039 16.5832 89.1871 17.8732 87.7582C19.1633 86.3292 20.7912 85.2316 22.6146 84.5613C24.4379 83.891 26.4012 83.6685 28.3327 83.9133C30.2641 84.158 32.1049 84.8625 33.6941 85.9651C35.2833 87.0678 36.5724 88.535 37.4487 90.2384C38.3251 91.9419 38.7619 93.8297 38.721 95.7367C38.6801 97.6437 38.1628 99.5119 37.2142 101.178C36.0208 103.3 35.7088 105.791 36.3432 108.133L36.4378 108.522L25.0099 111.387L24.9341 111.1C24.2902 108.724 22.7285 106.685 20.5788 105.416C17.9438 103.839 16.0362 101.322 15.2577 98.3959Z" fill="#FFD200"/>
<path d="M33.7111 109.255C33.8071 109.233 33.8916 109.177 33.9491 109.099C34.0065 109.02 34.033 108.924 34.0235 108.828L32.698 93.9077C32.6932 93.854 32.6777 93.8018 32.6522 93.754C32.6268 93.7063 32.5919 93.664 32.5496 93.6295C32.5074 93.595 32.4586 93.569 32.406 93.5531C32.3535 93.5372 32.2983 93.5316 32.2435 93.5367C32.1895 93.5401 32.1367 93.5543 32.0885 93.5784C32.0402 93.6024 31.9975 93.6359 31.963 93.6767C31.9284 93.7175 31.9027 93.7648 31.8874 93.8157C31.8722 93.8666 31.8677 93.9199 31.8743 93.9726L33.1998 108.893C33.2033 108.946 33.2178 108.998 33.2422 109.046C33.2667 109.094 33.3007 109.136 33.3422 109.171C33.3837 109.205 33.4318 109.231 33.4838 109.247C33.5358 109.263 33.5905 109.269 33.6448 109.264L33.7111 109.255Z" fill="white"/>
<path d="M27.6893 110.766H27.7555C27.8558 110.722 27.9339 110.64 27.9729 110.539C28.0119 110.438 28.0087 110.327 27.9638 110.228L21.8097 96.5227C21.7891 96.4724 21.7583 96.4268 21.7191 96.3886C21.6799 96.3504 21.6333 96.3204 21.5819 96.3005C21.5305 96.2805 21.4755 96.271 21.4202 96.2725C21.365 96.2741 21.3106 96.2866 21.2605 96.3094C21.1603 96.3539 21.0821 96.4355 21.0431 96.5362C21.0041 96.637 21.0074 96.7488 21.0522 96.8472L27.2064 110.553C27.2505 110.637 27.3222 110.703 27.4099 110.742C27.4976 110.781 27.596 110.789 27.6893 110.766Z" fill="white"/>
<path d="M23.5954 109.898L36.6841 106.616L39.3282 116.731L26.2394 120.013L23.5954 109.898Z" fill="#24285B"/>
<path d="M26.3638 98.5906C26.656 98.4877 26.9195 98.3192 27.1332 98.0986C27.347 97.8779 27.505 97.6114 27.5946 97.3202C27.7177 97.0327 27.8786 96.8751 28.0491 96.8473C28.4467 96.7823 29.0527 97.2924 29.2799 97.5427C29.3545 97.6171 29.4554 97.6607 29.5618 97.6645C29.6682 97.6683 29.7721 97.6321 29.8521 97.5632C29.932 97.4944 29.9821 97.3982 29.9919 97.2944C30.0017 97.1905 29.9705 97.0869 29.9048 97.0049C29.8006 96.8936 28.8728 95.8921 27.9165 96.0776C27.6692 96.1281 27.4392 96.2398 27.2486 96.4022C27.058 96.5645 26.9131 96.772 26.8277 97.0049C26.6762 97.3387 26.4395 97.756 26.0987 97.8024C25.7578 97.8487 25.2655 97.4407 25.1519 97.2924C25.1199 97.2437 25.0777 97.2023 25.0282 97.1708C24.9786 97.1394 24.9228 97.1186 24.8644 97.1098C24.806 97.1011 24.7464 97.1047 24.6895 97.1202C24.6326 97.1358 24.5797 97.163 24.5344 97.2001C24.4891 97.2372 24.4523 97.2834 24.4266 97.3354C24.4009 97.3875 24.3867 97.4443 24.3851 97.5022C24.3835 97.56 24.3945 97.6175 24.4173 97.6709C24.4401 97.7242 24.4743 97.7722 24.5175 97.8117C24.7218 98.0665 24.9839 98.2712 25.283 98.4097C25.5821 98.5481 25.91 98.6164 26.2407 98.6091L26.3638 98.5906Z" fill="white"/>
<path opacity="0.2" d="M313.599 39.2516C324.078 39.2516 332.573 30.9316 332.573 20.6685C332.573 10.4053 324.078 2.08533 313.599 2.08533C303.12 2.08533 294.625 10.4053 294.625 20.6685C294.625 30.9316 303.12 39.2516 313.599 39.2516Z" fill="#FFD200"/>
<path d="M325.349 22.8107C325.833 20.9632 325.848 19.0276 325.392 17.1732C324.936 15.3187 324.023 13.6019 322.733 12.173C321.443 10.744 319.815 9.64638 317.992 8.97611C316.169 8.30584 314.205 8.08333 312.274 8.32805C310.342 8.57277 308.501 9.27727 306.912 10.3799C305.323 11.4826 304.034 12.9498 303.158 14.6532C302.281 16.3567 301.845 18.2445 301.885 20.1515C301.926 22.0586 302.444 23.9267 303.392 25.5927C304.586 27.7147 304.898 30.2058 304.263 32.5475L304.169 32.937L315.597 35.8024L315.672 35.5149C316.316 33.1385 317.878 31.1002 320.028 29.8305C322.663 28.2539 324.57 25.7373 325.349 22.8107Z" fill="#FFD200"/>
<path d="M306.895 33.6695C306.799 33.6475 306.715 33.5921 306.657 33.5136C306.6 33.4352 306.573 33.339 306.583 33.2429L307.908 18.3226C307.913 18.2689 307.929 18.2167 307.954 18.169C307.98 18.1212 308.015 18.0789 308.057 18.0444C308.099 18.0099 308.148 17.984 308.2 17.968C308.253 17.9521 308.308 17.9466 308.363 17.9517C308.417 17.9551 308.47 17.9692 308.518 17.9933C308.566 18.0174 308.609 18.0508 308.643 18.0916C308.678 18.1324 308.704 18.1797 308.719 18.2306C308.734 18.2815 308.739 18.3349 308.732 18.3875L307.407 33.3078C307.403 33.3611 307.389 33.4131 307.364 33.4608C307.34 33.5085 307.306 33.5509 307.264 33.5855C307.223 33.62 307.175 33.6461 307.123 33.6621C307.071 33.6782 307.016 33.6838 306.962 33.6787L306.895 33.6695Z" fill="white"/>
<path d="M312.917 35.1808H312.851C312.751 35.1363 312.673 35.0547 312.634 34.954C312.595 34.8532 312.598 34.7414 312.643 34.643L318.797 20.9377C318.817 20.8874 318.848 20.8418 318.887 20.8036C318.926 20.7654 318.973 20.7354 319.025 20.7155C319.076 20.6955 319.131 20.686 319.186 20.6875C319.241 20.6891 319.296 20.7016 319.346 20.7244C319.446 20.7689 319.524 20.8505 319.563 20.9512C319.602 21.052 319.599 21.1638 319.554 21.2622L313.4 34.9675C313.356 35.0512 313.284 35.1179 313.197 35.1566C313.109 35.1953 313.01 35.2038 312.917 35.1808Z" fill="white"/>
<path d="M317.011 34.3126L303.922 31.0306L301.278 41.1461L314.367 44.4281L317.011 34.3126Z" fill="#24285B"/>
<path d="M314.243 23.0055C313.95 22.9026 313.687 22.7341 313.473 22.5135C313.259 22.2929 313.101 22.0263 313.012 21.7352C312.889 21.4477 312.728 21.2901 312.557 21.2623C312.16 21.1974 311.554 21.7074 311.327 21.9577C311.252 22.0321 311.151 22.0756 311.045 22.0795C310.938 22.0833 310.834 22.047 310.754 21.9782C310.674 21.9094 310.624 21.8132 310.615 21.7093C310.605 21.6055 310.636 21.502 310.702 21.4199C310.806 21.3086 311.734 20.3072 312.69 20.4927C312.937 20.5432 313.167 20.6549 313.358 20.8172C313.548 20.9796 313.693 21.1871 313.779 21.4199C313.93 21.7537 314.167 22.171 314.508 22.2173C314.849 22.2637 315.341 21.8557 315.455 21.7074C315.487 21.6587 315.529 21.6173 315.578 21.5858C315.628 21.5544 315.684 21.5336 315.742 21.5249C315.8 21.5161 315.86 21.5197 315.917 21.5352C315.974 21.5508 316.027 21.578 316.072 21.6151C316.117 21.6522 316.154 21.6983 316.18 21.7504C316.206 21.8025 316.22 21.8593 316.221 21.9171C316.223 21.975 316.212 22.0325 316.189 22.0858C316.166 22.1392 316.132 22.1872 316.089 22.2266C315.885 22.4814 315.623 22.6861 315.323 22.8246C315.024 22.963 314.696 23.0313 314.366 23.024L314.243 23.0055Z" fill="white"/>
<defs>
<filter id="filter0_d" x="26.2402" y="0.104309" width="310.558" height="310.558" filterUnits="userSpaceOnUse" color-interpolation-filters="sRGB">
<feFlood flood-opacity="0" result="BackgroundImageFix"/>
<feColorMatrix in="SourceAlpha" type="matrix" values="0 0 0 0 0 0 0 0 0 0 0 0 0 0 0 0 0 0 127 0"/>
<feOffset dy="4"/>
<feGaussianBlur stdDeviation="11.5"/>
<feColorMatrix type="matrix" values="0 0 0 0 0 0 0 0 0 0 0 0 0 0 0 0 0 0 0.25 0"/>
<feBlend mode="normal" in2="BackgroundImageFix" result="effect1_dropShadow"/>
<feBlend mode="normal" in="SourceGraphic" in2="effect1_dropShadow" result="shape"/>
</filter>
</defs>
</svg>
