<svg width="122" height="138" viewBox="0 0 122 138" fill="none" xmlns="http://www.w3.org/2000/svg">
<g opacity="0.7" filter="url(#filter0_d)">
<path d="M30.5947 35.1729C30.5947 32.4114 32.8333 30.1729 35.5947 30.1729L86.1211 30.1729C88.8826 30.1729 91.1211 32.4114 91.1211 35.1729V85.0765C91.1211 86.746 90.2879 88.3054 88.9 89.2332L64.025 105.863C61.2198 107.738 57.5396 107.652 54.8255 105.647L32.6239 89.2473C31.3478 88.3046 30.5947 86.8121 30.5947 85.2255V35.1729Z" fill="#6D28FE"/>
<path d="M31.0947 35.1729C31.0947 32.6876 33.1094 30.6729 35.5947 30.6729L86.1211 30.6729C88.6064 30.6729 90.6211 32.6876 90.6211 35.1729V85.0765C90.6211 86.5791 89.8712 87.9825 88.6221 88.8175L63.7471 105.447C61.1173 107.205 57.6671 107.124 55.1226 105.245L32.921 88.8451C31.7725 87.9967 31.0947 86.6535 31.0947 85.2255V35.1729Z" stroke="white" stroke-opacity="0.5"/>
</g>
<path d="M72.9634 66.9407C72.9601 66.9296 72.9562 66.9186 72.9517 66.9078C72.9517 66.9032 72.9491 66.8978 72.9469 66.8932C72.9268 66.8556 72.9008 66.8212 72.8698 66.7911C72.8628 66.784 72.8542 66.779 72.8468 66.7724C72.8169 66.7468 72.7835 66.7252 72.7476 66.7082C72.7346 66.7024 72.7224 66.6965 72.709 66.692C72.6612 66.6737 72.6105 66.6638 72.5591 66.6628H54.7393L54.6253 66.5261L60.2166 64.838L60.2847 64.8176L60.3848 64.7876L65.7586 63.165L66.8988 62.8208L68.5863 62.3116L72.6891 61.0735C72.9174 61.0045 73.0443 60.7706 72.9725 60.551V60.551L71.9341 57.3703C71.9315 57.3628 71.9255 57.3578 71.9224 57.3503C71.9081 57.3136 71.8884 57.2791 71.8639 57.2478C71.8561 57.2378 71.8501 57.227 71.8414 57.2178C71.8386 57.2137 71.8355 57.2098 71.8323 57.2061C71.8019 57.1761 71.7668 57.1508 71.7283 57.1311C71.7183 57.1257 71.707 57.1232 71.6966 57.1186C71.6613 57.1033 71.624 57.0925 71.5857 57.0865C71.571 57.0844 71.5575 57.0828 71.5424 57.0819C71.4911 57.0782 71.4395 57.0836 71.3902 57.0978L59.2801 60.7531L58.1594 61.0915L56.2353 61.6723L50.7466 63.3292H49.157C48.9177 63.3292 48.7236 63.5157 48.7236 63.7459V80.8307C48.7236 81.5211 49.3057 82.0808 50.0237 82.0808H71.6923C72.4104 82.0808 72.9924 81.5211 72.9924 80.8307V67.0795C72.9924 67.0716 72.9881 67.0649 72.9877 67.057C72.9854 67.0173 72.9772 66.9781 72.9634 66.9407ZM71.6923 67.4962L69.7421 69.9964H67.3586L69.3088 67.4962H71.6923ZM68.2253 67.4962L66.2752 69.9964H63.8916L65.8418 67.4962H68.2253ZM64.7584 67.4962L62.8082 69.9964H60.4247L62.3748 67.4962H64.7584ZM61.2914 67.4962L59.3412 69.9964H56.9577L58.9079 67.4962H61.2914ZM57.8244 67.4962L55.8743 69.9964H55.6576V67.9129C55.6576 67.8182 55.6241 67.7264 55.5627 67.6525L55.437 67.5016L57.8244 67.4962ZM71.4964 58.8142L72.0165 60.4047L70.7753 60.7789L71.4964 58.8142ZM69.2446 58.6196L70.8256 58.1429L69.7421 61.0894L68.2994 61.5248L67.4678 61.7749L68.5512 58.8279L69.2446 58.6196ZM65.5211 59.7438L67.5155 59.1413L66.432 62.0882L64.1582 62.7745L65.2416 59.8272L65.5211 59.7438ZM64.2093 60.1397L63.1259 63.0862L60.8524 63.7725L61.9358 60.826L64.2093 60.1397ZM58.6275 61.8257L60.9014 61.1381L59.8179 64.0863L57.544 64.7726L58.6275 61.8257ZM57.596 62.1353L56.5126 65.0818L55.112 65.5052L54.2387 65.7685L55.3221 62.8216L57.596 62.1353ZM54.2842 63.135L53.525 65.2043L52.302 63.7334L54.2842 63.135ZM49.5904 64.1626H51.5492L53.5527 66.5711L54.1915 67.3383L54.4948 67.7041L54.5473 67.767L54.7882 68.0562V69.9964H49.5904V64.1626ZM72.1257 80.8307C72.1257 81.0608 71.9316 81.2474 71.6923 81.2474H50.0237C49.7844 81.2474 49.5904 81.0608 49.5904 80.8307V70.8298H72.1257V80.8307ZM72.1257 69.9964H70.8256L72.1257 68.3296V69.9964Z" fill="white"/>
<path d="M64.0398 75.4507C63.9768 75.3291 63.8744 75.2306 63.748 75.1701L58.548 72.6701C58.2269 72.5158 57.8365 72.641 57.676 72.9498C57.6308 73.0366 57.6074 73.1324 57.6074 73.2294V78.2295C57.6073 78.5747 57.8981 78.8546 58.2571 78.8548C58.3581 78.8548 58.4577 78.8322 58.548 78.7888L63.748 76.2888C64.0693 76.1349 64.1999 75.7596 64.0398 75.4507ZM58.9074 77.2182V74.2407L62.0041 75.7295L58.9074 77.2182Z" fill="white"/>
<defs>
<filter id="filter0_d" x="0.594727" y="0.172852" width="120.526" height="137.039" filterUnits="userSpaceOnUse" color-interpolation-filters="sRGB">
<feFlood flood-opacity="0" result="BackgroundImageFix"/>
<feColorMatrix in="SourceAlpha" type="matrix" values="0 0 0 0 0 0 0 0 0 0 0 0 0 0 0 0 0 0 127 0"/>
<feOffset/>
<feGaussianBlur stdDeviation="15"/>
<feColorMatrix type="matrix" values="0 0 0 0 0 0 0 0 0 0 0 0 0 0 0 0 0 0 0.25 0"/>
<feBlend mode="normal" in2="BackgroundImageFix" result="effect1_dropShadow"/>
<feBlend mode="normal" in="SourceGraphic" in2="effect1_dropShadow" result="shape"/>
</filter>
</defs>
</svg>
