<svg width="380" height="312" viewBox="0 0 380 312" fill="none" xmlns="http://www.w3.org/2000/svg">
<g filter="url(#filter0_d)">
<circle cx="190.317" cy="151.902" r="132.279" fill="#E6E6E6" fill-opacity="0.6"/>
</g>
<path opacity="0.2" d="M49.4986 83.9975C59.9776 83.9975 68.4725 75.5026 68.4725 65.0236C68.4725 54.5445 59.9776 46.0496 49.4986 46.0496C39.0196 46.0496 30.5247 54.5445 30.5247 65.0236C30.5247 75.5026 39.0196 83.9975 49.4986 83.9975Z" fill="#FFD200"/>
<path d="M282.829 72.8157H99.7927V200.549H282.829V72.8157Z" fill="#E6E6E6"/>
<path opacity="0.08" d="M257.994 88.6937C257.994 88.6937 254.927 88.4096 255.002 95.0467C255.078 101.684 260.38 106.456 260.38 106.456L259.026 118.49C259.026 118.49 228.842 111.568 224.818 132.209C220.794 152.849 222.735 167.856 209.433 160.897C196.13 153.938 190.071 125.325 190.071 125.325C190.071 125.325 181.502 124.312 184.342 134.207C187.183 144.101 186.946 181.121 207.776 182.844C228.606 184.567 242.334 187.72 239.967 200.577H284.741V154.364L267.699 105.13L265.834 92.2536L257.994 88.6937Z" fill="black"/>
<path opacity="0.08" d="M108.466 130.817C108.466 130.817 114.639 128.923 115.434 138.23C116.229 147.537 123.406 152.565 125.536 162.402C127.667 172.24 142.096 161.739 148.828 175.885C148.828 175.885 160.123 165.318 168.607 171.7C177.09 178.081 160.085 178.668 160.085 178.668L152.606 197.443L174.931 197.737L182.099 172.931L188.168 173.878L182.364 200.558L117.46 199.46L108.437 158.378L103.627 143.381L108.466 130.817Z" fill="black"/>
<path d="M137.372 203.891L156.715 172.031C156.715 172.031 163.939 172.031 165.141 169.106C165.889 167.278 161.402 166.805 157.927 166.701C156.758 166.67 155.596 166.882 154.514 167.324C153.432 167.766 152.453 168.427 151.64 169.267L127.828 193.666C127.828 193.666 123.16 208.256 137.372 203.891Z" fill="#F4A28C"/>
<path opacity="0.08" d="M137.372 203.891L156.715 172.031C156.715 172.031 163.939 172.031 165.141 169.106C165.889 167.278 161.402 166.805 157.927 166.701C156.758 166.67 155.596 166.882 154.514 167.324C153.432 167.766 152.453 168.427 151.64 169.267L127.828 193.666C127.828 193.666 123.16 208.256 137.372 203.891Z" fill="black"/>
<path d="M163.996 218.406C163.996 218.406 170.964 224.977 161.932 224.711C152.899 224.446 156.232 217.421 163.996 218.406Z" fill="#40006B"/>
<path d="M108.664 143.835C108.664 143.835 122.166 153.928 115.803 157.829C109.441 161.73 104.517 142.889 104.517 142.889L108.664 143.835Z" fill="#24285B"/>
<path opacity="0.45" d="M184.257 273.727C260.115 273.727 321.61 267.098 321.61 258.919C321.61 250.741 260.115 244.111 184.257 244.111C108.399 244.111 46.9045 250.741 46.9045 258.919C46.9045 267.098 108.399 273.727 184.257 273.727Z" fill="#E6E6E6"/>
<path d="M108.598 135.22C109.158 137.604 109.397 140.053 109.308 142.5C109.278 142.79 109.19 143.071 109.05 143.326C108.911 143.582 108.722 143.807 108.495 143.989C108.268 144.171 108.007 144.307 107.727 144.388C107.448 144.468 107.155 144.493 106.865 144.46C105.927 144.417 105.022 144.103 104.258 143.557C103.493 143.011 102.903 142.257 102.558 141.383L100.664 137.766C100.366 137.006 100.313 136.171 100.511 135.379C100.71 134.586 101.15 133.875 101.772 133.345C104.006 131.215 108.115 132.578 108.598 135.22Z" fill="#F4A28C"/>
<path d="M101.062 140.01L102.416 154.364L110.274 153.048L106.137 143.135L101.062 140.01Z" fill="#F4A28C"/>
<path d="M104.518 139.594C104.518 139.594 104.243 137.927 103.003 138.24C101.762 138.552 102.151 140.976 103.893 140.948L104.518 139.594Z" fill="#F4A28C"/>
<path d="M109.1 137.956L110.558 139.452C110.641 139.536 110.702 139.641 110.734 139.755C110.766 139.869 110.768 139.99 110.74 140.105C110.713 140.221 110.657 140.327 110.577 140.415C110.497 140.503 110.396 140.569 110.284 140.607L108.665 141.165L109.1 137.956Z" fill="#F4A28C"/>
<path d="M138.006 206.656C138.006 206.656 164.886 199.839 168.389 211.721C171.892 223.604 130.801 222.43 130.801 222.43L121.446 215.026L138.006 206.656Z" fill="#24285B"/>
<path d="M110.274 153.048C110.274 153.048 125.925 154.648 136.832 167.108C143.317 174.512 140.865 180.676 137.779 184.463C136.5 186.085 135.644 187.998 135.287 190.033C134.93 192.067 135.083 194.158 135.734 196.118L138.972 206.22C138.972 206.22 121.692 217.364 110.785 216.2C99.8781 215.035 65.405 154.743 110.274 153.048Z" fill="#40006B"/>
<path opacity="0.08" d="M89.0088 165.716C87.8477 169.492 87.5246 173.476 88.062 177.39C89.1034 183.128 94.5381 221.246 130.412 210.954L138.981 206.22L129.892 198.532L112.508 180.306L104.934 165.688L89.0088 165.716Z" fill="black"/>
<path d="M101.26 191.469C93.5723 168.168 59.2222 171.984 56.2872 196.345C53.2479 221.502 56.6848 256.212 97.1796 260.728C161.562 267.886 171.721 238.8 162.632 223.471C153.543 208.142 108.352 216.2 101.601 192.567C101.488 192.189 101.383 191.829 101.26 191.469Z" fill="#E6E6E6"/>
<path d="M154.338 204.601C154.338 204.601 163.314 206.779 163.967 201.06L154.158 200.539L154.338 204.601Z" fill="#F4A28C"/>
<path d="M99.793 166.379C99.7717 165.154 100.081 163.945 100.689 162.881C101.296 161.817 102.179 160.936 103.245 160.331C104.311 159.726 105.521 159.42 106.746 159.445C107.971 159.469 109.167 159.824 110.208 160.471C113.285 162.506 116.324 166.701 118.152 174.928C121.721 191.024 130.63 197.945 154.338 200.028V204.601C154.338 204.601 100.749 218.235 99.793 166.379Z" fill="#F4A28C"/>
<path d="M107.708 136.271C108.221 136.056 108.668 135.711 109.007 135.271C109.346 134.831 109.564 134.31 109.641 133.759C109.717 133.209 109.649 132.649 109.443 132.133C109.237 131.617 108.9 131.163 108.466 130.817C107.983 130.433 107.451 130.115 106.884 129.87C103.097 128.308 94.1784 129.406 94.7654 137.918C95.3524 146.43 81.1504 165.773 93.9795 171.056C106.809 176.339 117.489 169.361 117.489 163.131C117.489 156.901 105.322 155.405 104.517 149.952C104.196 147.727 103.883 145.369 103.627 143.324C103.451 141.865 103.754 140.388 104.49 139.116C105.226 137.843 106.355 136.845 107.708 136.271Z" fill="#24285B"/>
<path d="M176.399 197.443H148.61V201.439H176.399V197.443Z" fill="#FFD200"/>
<path d="M172.744 199.451L181.72 169.958L184.295 170.545L176.399 201.439L172.744 199.451Z" fill="#FFD200"/>
<path opacity="0.45" d="M78.6412 227.732C74.1155 223.594 67.0145 228.129 68.9743 233.943C71.7485 242.151 78.1205 250.218 92.1237 252.604C123.586 257.954 120.528 246.317 118.492 241.243C116.835 237.114 95.9961 243.562 78.6412 227.732Z" fill="white"/>
<path opacity="0.39" d="M201.527 123.299H178.52V127.285H201.527V123.299Z" fill="#A5A5A5"/>
<path opacity="0.18" d="M201.527 132.171H178.52V136.157H201.527V132.171Z" fill="#A5A5A5"/>
<path opacity="0.39" d="M242.012 123.299H219.005V127.285H242.012V123.299Z" fill="#A5A5A5"/>
<path opacity="0.18" d="M242.012 132.171H219.005V136.157H242.012V132.171Z" fill="#A5A5A5"/>
<path d="M254.576 120.734C253.639 119.661 252.485 118.798 251.19 118.203C249.896 117.609 248.49 117.295 247.065 117.282C245.64 117.27 244.229 117.559 242.924 118.131C241.619 118.703 240.45 119.545 239.494 120.601C232.988 127.78 229.322 137.084 229.183 146.771C228.511 169.219 212.652 166.994 196.168 130.249L188.196 134.604C188.196 134.604 210.029 207.196 243.385 166.029C263.694 140.976 260.324 127.465 254.576 120.734Z" fill="#40006B"/>
<path opacity="0.08" d="M251.121 117.552C249.801 116.576 248.185 116.085 246.546 116.165C244.906 116.244 243.345 116.888 242.126 117.988C238.109 121.64 234.887 126.081 232.66 131.033C230.433 135.984 229.25 141.342 229.183 146.771C228.511 169.219 212.652 166.994 196.168 130.249L188.196 134.604C188.196 134.604 210.029 207.196 243.385 166.029C267.633 136.119 258.127 122.665 251.121 117.552Z" fill="black"/>
<path d="M261.014 92.7176C261.014 92.7176 260.323 97.9534 261.014 101.494C261.084 101.838 261.221 102.163 261.418 102.453C261.615 102.743 261.868 102.99 262.161 103.182C262.454 103.373 262.783 103.504 263.127 103.567C263.472 103.63 263.825 103.624 264.167 103.549C265.277 103.377 266.314 102.89 267.153 102.144C267.993 101.398 268.6 100.427 268.901 99.3452L270.691 94.8006C270.951 93.8504 270.909 92.8425 270.569 91.9175C270.23 90.9926 269.611 90.1966 268.797 89.6405C266.061 87.3681 261.27 89.4985 261.014 92.7176Z" fill="#F4A28C"/>
<path d="M270.445 95.6242L272.404 112.837L262.842 113.244L265.256 100.557L270.445 95.6242Z" fill="#F4A28C"/>
<path d="M262.274 92.9921C263.903 93.133 265.543 93.0789 267.159 92.8312C266.656 93.529 266.368 94.3584 266.329 95.2178C266.29 96.0771 266.503 96.9291 266.941 97.6693C267.354 98.393 268.007 98.9504 268.786 99.2458C269.565 99.5412 270.422 99.5563 271.212 99.2884L271.429 92.4998C271.494 91.5294 271.294 90.5597 270.85 89.6942C270.407 88.8287 269.736 88.1 268.911 87.5859C268.201 87.1316 267.461 86.7267 266.695 86.374C264.802 85.5029 261.857 86.6864 260.162 85.2851C259.991 85.1474 259.787 85.0562 259.57 85.0204C259.353 84.9845 259.131 85.0052 258.924 85.0804C258.718 85.1555 258.534 85.2827 258.391 85.4496C258.248 85.6165 258.151 85.8175 258.108 86.0331C257.71 88.0782 257.937 91.3447 260.683 92.5945C261.187 92.8162 261.725 92.9507 262.274 92.9921Z" fill="#24285B"/>
<path d="M266.421 97.4894C266.421 97.4894 266.553 95.4538 268.078 95.681C269.602 95.9083 269.422 98.8339 267.339 99.0232L266.421 97.4894Z" fill="#F4A28C"/>
<path d="M260.749 96.0408L259.187 98.0102C259.099 98.122 259.041 98.2541 259.017 98.3944C258.993 98.5347 259.005 98.6788 259.051 98.8134C259.097 98.948 259.176 99.069 259.281 99.1652C259.386 99.2614 259.513 99.3298 259.651 99.3641L261.658 99.828L260.749 96.0408Z" fill="#F4A28C"/>
<path opacity="0.31" d="M264.603 103.312C265.806 103.064 266.911 102.472 267.784 101.608C267.784 101.608 267.5 104.761 263.893 107.734L264.603 103.312Z" fill="#CE8172"/>
<path d="M252.976 113.083C252.976 113.083 288.51 105.121 301.263 112.26C314.017 119.398 289.012 186.64 289.012 186.64L249.776 185.4C249.776 185.4 215.416 119.872 252.976 113.083Z" fill="#40006B"/>
<path d="M260.91 249.745C260.91 249.745 259.083 253.04 255.873 252.794C252.664 252.547 251.348 255.501 254.056 256.761C256.763 258.02 264.688 255.568 264.688 255.568L265.37 249.745H260.91Z" fill="#40006B"/>
<path d="M289.655 249.016C289.655 249.016 290.952 252.547 294.153 252.803C297.353 253.059 298.224 256.174 295.355 257.016C292.486 257.859 284.997 254.157 284.997 254.157L285.215 248.296L289.655 249.016Z" fill="#40006B"/>
<path d="M194.492 131.167C194.492 131.167 194.985 123.053 189.758 121.017C184.532 118.982 189.758 133.743 189.758 133.743L194.492 131.167Z" fill="#F4A28C"/>
<path opacity="0.08" d="M283.823 118.452C283.823 118.452 272.603 125.733 278.313 142.34C284.022 158.946 284.94 170.867 271.477 166.701C258.013 162.535 258.979 143.978 258.979 143.978L245.231 146.06L243.906 172.457L249.748 185.362L283.832 183.222L297.722 179.672L302.892 162.317L293.424 132.815L283.823 118.452Z" fill="black"/>
<path d="M249.748 185.362L259.784 249.745H266.345C266.345 249.745 260.267 201.325 270.88 195.484C281.494 189.642 283.577 249.745 283.577 249.745L290.536 249.186L290.46 182.806L249.748 185.362Z" fill="#24285B"/>
<path d="M290.754 110.11C290.754 110.11 312.861 106.38 312.861 141.166C312.861 175.951 307.54 206.912 256.527 175.885L260.409 169.958C260.409 169.958 287.866 182.058 293.727 171.435C299.587 160.812 270.795 116.009 290.754 110.11Z" fill="#40006B"/>
<path opacity="0.46" d="M290.754 110.11C290.754 110.11 312.861 106.38 312.861 141.166C312.861 175.951 307.54 206.912 256.527 175.885L260.409 169.958C260.409 169.958 287.866 182.058 293.727 171.435C299.587 160.812 270.795 116.009 290.754 110.11Z" fill="white"/>
<path d="M201.527 95.0467H178.52V115.28H201.527V95.0467Z" fill="#FFD200"/>
<path opacity="0.46" d="M193.025 89.9812H187.467V101.277H193.025V89.9812Z" fill="white"/>
<path d="M160.114 95.0467H137.106V115.28H160.114V95.0467Z" fill="#A5A5A5"/>
<path opacity="0.46" d="M151.602 89.9812H146.044V101.277H151.602V89.9812Z" fill="white"/>
<path d="M242.012 95.0467H219.005V115.28H242.012V95.0467Z" fill="#A5A5A5"/>
<path d="M250.344 141.054L231.632 145.762L238.679 173.776L257.392 169.069L250.344 141.054Z" fill="#FFD200"/>
<path opacity="0.46" d="M233.51 89.9812H227.952V101.277H233.51V89.9812Z" fill="white"/>
<path d="M260.38 169.958C260.38 169.958 251.168 162.667 249.719 168.244C248.271 173.821 257.824 173.859 257.824 173.859L260.38 169.958Z" fill="#F4A28C"/>
<path opacity="0.39" d="M160.114 123.299H137.106V127.285H160.114V123.299Z" fill="#A5A5A5"/>
<path opacity="0.18" d="M160.114 132.171H137.106V136.157H160.114V132.171Z" fill="#A5A5A5"/>
<path opacity="0.2" d="M337.374 63.7453C347.853 63.7453 356.348 55.2504 356.348 44.7714C356.348 34.2924 347.853 25.7975 337.374 25.7975C326.895 25.7975 318.4 34.2924 318.4 44.7714C318.4 55.2504 326.895 63.7453 337.374 63.7453Z" fill="#FFD200"/>
<path d="M349.124 46.9586C349.609 45.0722 349.623 43.0959 349.168 41.2025C348.712 39.3091 347.799 37.5562 346.509 36.0972C345.219 34.6382 343.591 33.5175 341.767 32.8332C339.944 32.1488 337.981 31.9216 336.049 32.1715C334.118 32.4213 332.277 33.1406 330.688 34.2665C329.099 35.3923 327.809 36.8904 326.933 38.6296C326.057 40.3689 325.62 42.2964 325.661 44.2435C325.702 46.1906 326.219 48.098 327.168 49.799C328.361 51.9657 328.673 54.5091 328.039 56.9L327.944 57.2977L339.372 60.2233L339.448 59.9298C340.092 57.5034 341.653 55.4223 343.803 54.1259C346.438 52.5161 348.346 49.9467 349.124 46.9586Z" fill="#FFD200"/>
<path d="M330.671 58.0456C330.575 58.0231 330.49 57.9666 330.433 57.8865C330.375 57.8064 330.349 57.7082 330.358 57.6101L331.684 42.376C331.689 42.3212 331.704 42.2679 331.73 42.2192C331.755 42.1704 331.79 42.1272 331.832 42.092C331.874 42.0568 331.923 42.0303 331.976 42.014C332.028 41.9978 332.084 41.9921 332.138 41.9973C332.192 42.0008 332.245 42.0152 332.293 42.0398C332.342 42.0644 332.384 42.0985 332.419 42.1402C332.453 42.1819 332.479 42.2301 332.494 42.2821C332.51 42.334 332.514 42.3886 332.508 42.4423L331.182 57.6764C331.178 57.7307 331.164 57.7838 331.14 57.8325C331.115 57.8812 331.081 57.9245 331.04 57.9598C330.998 57.9952 330.95 58.0218 330.898 58.0381C330.846 58.0545 330.791 58.0603 330.737 58.0551L330.671 58.0456Z" fill="white"/>
<path d="M336.693 59.5889H336.626C336.526 59.5434 336.448 59.4601 336.409 59.3573C336.37 59.2544 336.373 59.1402 336.418 59.0397L342.572 45.046C342.593 44.9947 342.624 44.9481 342.663 44.9091C342.702 44.8701 342.749 44.8395 342.8 44.8191C342.851 44.7987 342.906 44.789 342.962 44.7906C343.017 44.7922 343.071 44.805 343.121 44.8282C343.222 44.8737 343.3 44.957 343.339 45.0598C343.378 45.1627 343.374 45.2769 343.33 45.3774L337.175 59.3711C337.131 59.4566 337.06 59.5246 336.972 59.5642C336.884 59.6037 336.786 59.6124 336.693 59.5889Z" fill="white"/>
<path d="M340.786 58.7025L327.698 55.3516L325.054 65.6795L338.142 69.0304L340.786 58.7025Z" fill="#24285B"/>
<path d="M338.018 47.1574C337.726 47.0523 337.462 46.8803 337.249 46.655C337.035 46.4298 336.877 46.1576 336.787 45.8603C336.664 45.5668 336.503 45.4058 336.333 45.3774C335.935 45.3111 335.329 45.8319 335.102 46.0875C335.027 46.1635 334.926 46.2079 334.82 46.2118C334.714 46.2157 334.61 46.1787 334.53 46.1084C334.45 46.0382 334.4 45.9399 334.39 45.8339C334.38 45.7279 334.411 45.6221 334.477 45.5384C334.581 45.4247 335.509 44.4022 336.465 44.5916C336.713 44.6431 336.943 44.7572 337.133 44.923C337.324 45.0887 337.469 45.3006 337.554 45.5384C337.706 45.8792 337.942 46.3053 338.283 46.3526C338.624 46.4 339.116 45.9834 339.23 45.8319C339.262 45.7822 339.304 45.7399 339.354 45.7078C339.403 45.6756 339.459 45.6544 339.517 45.6455C339.576 45.6366 339.635 45.6402 339.692 45.6561C339.749 45.672 339.802 45.6998 339.847 45.7377C339.893 45.7756 339.93 45.8227 339.955 45.8758C339.981 45.929 339.995 45.987 339.997 46.0461C339.998 46.1051 339.987 46.1638 339.965 46.2183C339.942 46.2728 339.908 46.3218 339.864 46.3621C339.66 46.6223 339.398 46.8313 339.099 46.9727C338.8 47.114 338.472 47.1837 338.141 47.1763L338.018 47.1574Z" fill="white"/>
<path opacity="0.21" d="M346.182 40.9763C347.163 39.7122 346.648 37.6713 345.033 36.4179C343.418 35.1645 341.313 35.1732 340.332 36.4373C339.351 37.7015 339.865 39.7423 341.481 40.9958C343.096 42.2492 345.201 42.2405 346.182 40.9763Z" fill="white"/>
<path d="M61.3336 63.3194C61.1988 61.3733 60.5888 59.49 59.5571 57.8344C58.5254 56.1788 57.1035 54.8015 55.4158 53.8231C53.7282 52.8447 51.8264 52.2951 49.8771 52.2224C47.9277 52.1497 45.9902 52.5561 44.2344 53.4061C42.4786 54.2561 40.958 55.5236 39.8058 57.0977C38.6537 58.6718 37.9051 60.5045 37.6257 62.4351C37.3463 64.3657 37.5446 66.3354 38.2032 68.1716C38.8618 70.0077 39.9606 71.6544 41.4034 72.9673C43.2353 74.6406 44.3482 76.9581 44.5089 79.4339V79.8411L56.2777 78.9984V78.7049C56.1175 76.1982 56.9431 73.7282 58.5784 71.8216C60.5674 69.4536 61.5557 66.4039 61.3336 63.3194Z" fill="#FFD200"/>
<path d="M47.3494 79.6611C47.2525 79.6703 47.1556 79.6435 47.077 79.5859C46.9985 79.5283 46.9438 79.4439 46.9234 79.3487L43.3445 64.4649C43.3318 64.4127 43.3296 64.3585 43.338 64.3054C43.3464 64.2523 43.3652 64.2014 43.3934 64.1557C43.4216 64.1099 43.4585 64.0701 43.5021 64.0387C43.5457 64.0073 43.5951 63.9848 43.6474 63.9726C43.7541 63.9468 43.8667 63.9642 43.9606 64.0209C44.0546 64.0776 44.1224 64.1692 44.1492 64.2756L47.6903 79.1499C47.7029 79.2033 47.7048 79.2588 47.696 79.313C47.6871 79.3672 47.6675 79.4191 47.6385 79.4658C47.6095 79.5124 47.5715 79.5529 47.5267 79.5848C47.482 79.6167 47.4314 79.6394 47.3778 79.6517L47.3494 79.6611Z" fill="white"/>
<path d="M53.5226 79.2256H53.4469C53.3379 79.2137 53.2381 79.1593 53.169 79.0742C53.0998 78.9891 53.067 78.8802 53.0776 78.7711L54.5073 63.5465C54.512 63.4921 54.5276 63.4392 54.5532 63.3909C54.5788 63.3426 54.6138 63.3 54.6562 63.2655C54.6986 63.231 54.7475 63.2055 54.8 63.1903C54.8525 63.1752 54.9075 63.1707 54.9618 63.1773C55.0707 63.1892 55.1706 63.2436 55.2397 63.3287C55.3088 63.4138 55.3416 63.5227 55.331 63.6318L53.9014 78.8563C53.8925 78.9529 53.8496 79.0432 53.7801 79.1109C53.7107 79.1785 53.6194 79.2192 53.5226 79.2256Z" fill="white"/>
<path d="M57.1138 77.1124L43.636 78.0572L44.3815 88.6921L57.8593 87.7473L57.1138 77.1124Z" fill="#24285B"/>
<path d="M50.862 67.0119C50.5533 67.0045 50.2506 66.9255 49.9778 66.7808C49.705 66.6362 49.4696 66.43 49.2903 66.1787C49.0725 65.942 48.8737 65.8283 48.7033 65.8568C48.3056 65.923 47.889 66.6047 47.7565 66.9266C47.7358 66.9768 47.7054 67.0222 47.6669 67.0604C47.6284 67.0986 47.5827 67.1287 47.5324 67.149C47.4822 67.1693 47.4284 67.1793 47.3742 67.1785C47.32 67.1778 47.2665 67.1661 47.2168 67.1444C47.1659 67.1247 47.1194 67.0949 47.0802 67.0568C47.041 67.0187 47.0099 66.9731 46.9887 66.9228C46.9675 66.8724 46.9566 66.8183 46.9568 66.7637C46.9569 66.709 46.9681 66.655 46.9896 66.6047C47.0558 66.4627 47.6145 65.194 48.5707 65.0425C48.8255 65.0105 49.0842 65.0482 49.3193 65.1516C49.5544 65.2549 49.7571 65.4201 49.9057 65.6295C50.1614 65.9136 50.5211 66.2355 50.8525 66.1787C51.1839 66.1219 51.5248 65.5632 51.6005 65.3739C51.6204 65.3229 51.6501 65.2763 51.688 65.2369C51.7259 65.1974 51.7712 65.1657 51.8213 65.1438C51.8714 65.1218 51.9254 65.1099 51.9801 65.1088C52.0348 65.1076 52.0892 65.1173 52.1402 65.1372C52.1912 65.1571 52.2377 65.1868 52.2772 65.2247C52.3167 65.2626 52.3483 65.3079 52.3703 65.358C52.3923 65.4081 52.4042 65.4621 52.4053 65.5168C52.4064 65.5715 52.3968 65.6259 52.3769 65.6769C52.3769 65.7905 51.9035 66.832 50.9945 66.9929L50.862 67.0119Z" fill="white"/>
<path opacity="0.21" d="M56.6365 58.5593C57.1688 57.0503 56.0373 55.2757 54.1091 54.5956C52.181 53.9155 50.1865 54.5874 49.6542 56.0963C49.1219 57.6053 50.2535 59.3799 52.1816 60.06C54.1097 60.7401 56.1043 60.0682 56.6365 58.5593Z" fill="white"/>
<path opacity="0.32" d="M289.153 101.608C289.153 101.608 332.905 125.278 330.358 70.676" stroke="#A5A5A5" stroke-width="2" stroke-linecap="round" stroke-linejoin="round" stroke-dasharray="2 10"/>
<path opacity="0.32" d="M50.1898 95.094C50.1898 95.094 31.4052 147.822 83.9528 151.164" stroke="#A5A5A5" stroke-width="2" stroke-linecap="round" stroke-linejoin="round" stroke-dasharray="2 10"/>
<defs>
<filter id="filter0_d" x="35.0381" y="0.623291" width="310.558" height="310.558" filterUnits="userSpaceOnUse" color-interpolation-filters="sRGB">
<feFlood flood-opacity="0" result="BackgroundImageFix"/>
<feColorMatrix in="SourceAlpha" type="matrix" values="0 0 0 0 0 0 0 0 0 0 0 0 0 0 0 0 0 0 127 0"/>
<feOffset dy="4"/>
<feGaussianBlur stdDeviation="11.5"/>
<feColorMatrix type="matrix" values="0 0 0 0 0 0 0 0 0 0 0 0 0 0 0 0 0 0 0.25 0"/>
<feBlend mode="normal" in2="BackgroundImageFix" result="effect1_dropShadow"/>
<feBlend mode="normal" in="SourceGraphic" in2="effect1_dropShadow" result="shape"/>
</filter>
</defs>
</svg>
