<svg width="412" height="322" viewBox="0 0 412 322" fill="none" xmlns="http://www.w3.org/2000/svg">
<g filter="url(#filter0_d)">
<path d="M331.575 220.158L225.885 281.858C224.52 282.655 222.967 283.076 221.385 283.076C219.804 283.076 218.251 282.655 216.885 281.858L90.7554 209.038C89.3947 208.256 88.2642 207.129 87.4781 205.771C86.6919 204.413 86.278 202.872 86.278 201.303C86.278 199.733 86.6919 198.192 87.4781 196.834C88.2642 195.476 89.3947 194.349 90.7554 193.568L197.755 132.568C199.107 131.792 200.637 131.384 202.195 131.384C203.753 131.384 205.284 131.792 206.635 132.568L331.535 204.688C332.898 205.466 334.032 206.589 334.821 207.945C335.611 209.301 336.029 210.842 336.033 212.411C336.037 213.98 335.627 215.523 334.844 216.883C334.062 218.243 332.934 219.373 331.575 220.158Z" fill="#AA29A4"/>
<path d="M236.955 26.9776C250.805 35.1876 285.075 55.4676 295.325 61.4276C296.199 61.9356 296.923 62.6657 297.424 63.5438C297.924 64.4219 298.183 65.4168 298.175 66.4276V207.138C298.385 210.008 295.175 212.668 292.495 211.138L234.865 178.328C232.545 176.998 231.065 175.128 231.065 172.458V30.3276C231.066 29.6394 231.249 28.9636 231.595 28.369C231.941 27.7743 232.439 27.2818 233.037 26.9416C233.635 26.6014 234.313 26.4255 235.001 26.4318C235.689 26.4381 236.363 26.6264 236.955 26.9776Z" fill="#172D51"/>
<path d="M231.455 28.6876L249.755 39.2276V43.1476C249.755 43.4779 249.842 43.8025 250.007 44.0886C250.172 44.3748 250.409 44.6124 250.695 44.7776L264.695 52.8876C264.883 52.9962 265.097 53.0535 265.314 53.0537C265.532 53.0539 265.745 52.9969 265.934 52.8885C266.122 52.7802 266.279 52.6242 266.388 52.4362C266.497 52.2483 266.555 52.0349 266.555 51.8176V48.9476L292.965 64.3876C293.215 64.5355 293.423 64.7461 293.566 64.9987C293.71 65.2512 293.786 65.5369 293.785 65.8276V206.468C293.788 206.669 293.736 206.867 293.637 207.042C293.538 207.217 293.394 207.363 293.221 207.464C293.047 207.566 292.85 207.62 292.648 207.62C292.447 207.621 292.249 207.568 292.075 207.468L231.075 172.108C230.978 173.193 231.176 174.284 231.648 175.266C232.119 176.248 232.847 177.085 233.755 177.688C236.915 179.688 292.495 211.148 292.495 211.148C292.495 211.148 296.885 213.148 298.175 207.888V66.4176C298.179 65.4932 297.961 64.5815 297.54 63.7586C297.119 62.9357 296.507 62.2256 295.755 61.6876C293.205 59.8376 236.915 26.9376 236.915 26.9376C236.443 26.6866 235.926 26.5327 235.394 26.485C234.861 26.4373 234.325 26.4967 233.816 26.6599C233.307 26.823 232.836 27.0865 232.43 27.4348C232.025 27.783 231.693 28.209 231.455 28.6876Z" fill="#40006B"/>
<path d="M169.975 200.298C169.865 200.86 169.88 201.44 170.018 201.996C170.156 202.553 170.415 203.072 170.775 203.518C171.995 204.828 176.635 208.938 177.075 209.828C177.515 210.718 178.135 213.148 177.075 213.988C176.015 214.828 173.955 214.928 171.435 213.988C167.944 212.388 164.674 210.344 161.705 207.908C160.585 206.688 161.705 194.158 161.705 194.158C161.705 194.158 168.215 192.568 170.405 194.158L169.975 200.298Z" fill="#F96156"/>
<path d="M177.575 211.538C177.699 211.952 177.717 212.39 177.628 212.812C177.539 213.235 177.345 213.629 177.065 213.958C176.005 214.798 173.945 214.898 171.425 213.958C167.934 212.358 164.664 210.314 161.695 207.878C161.309 206.987 161.144 206.016 161.215 205.048C165.435 209.078 174.355 215.798 177.575 211.538Z" fill="#391A3A"/>
<path d="M167.305 205.068C167.692 204.486 168.232 204.022 168.865 203.728C169.607 203.475 170.397 203.393 171.175 203.488C171.815 203.488 171.815 204.488 171.175 204.488C170.624 204.367 170.051 204.405 169.52 204.596C168.989 204.787 168.523 205.124 168.175 205.568C167.755 206.078 166.915 205.578 167.305 205.068Z" fill="#391A3A"/>
<path d="M168.755 206.798C169.269 206.19 169.936 205.731 170.687 205.467C171.437 205.204 172.245 205.145 173.025 205.298C173.655 205.428 173.385 206.388 172.755 206.298C172.145 206.194 171.519 206.255 170.94 206.475C170.362 206.694 169.853 207.065 169.465 207.548C168.995 207.978 168.285 207.268 168.755 206.798Z" fill="#391A3A"/>
<path d="M154.535 207.968C154.425 208.53 154.44 209.11 154.578 209.666C154.716 210.223 154.975 210.742 155.335 211.188C156.555 212.498 161.195 216.608 161.635 217.498C162.075 218.388 162.695 220.818 161.635 221.658C160.575 222.498 158.515 222.598 155.995 221.658C152.504 220.058 149.234 218.014 146.265 215.578C145.145 214.358 146.265 201.828 146.265 201.828C146.265 201.828 152.775 200.238 154.965 201.828L154.535 207.968Z" fill="#F96156"/>
<path d="M162.135 219.197C162.259 219.611 162.277 220.05 162.188 220.472C162.099 220.895 161.906 221.289 161.625 221.617C160.565 222.457 158.505 222.557 155.985 221.617C152.494 220.018 149.224 217.974 146.255 215.538C145.859 214.643 145.687 213.664 145.755 212.688C149.995 216.738 158.915 223.467 162.135 219.197Z" fill="#391A3A"/>
<path d="M151.865 212.737C152.252 212.156 152.792 211.692 153.425 211.397C154.168 211.145 154.957 211.063 155.735 211.157C156.375 211.157 156.375 212.157 155.735 212.157C155.184 212.037 154.611 212.075 154.08 212.266C153.549 212.457 153.083 212.794 152.735 213.237C152.345 213.747 151.475 213.247 151.865 212.737Z" fill="#391A3A"/>
<path d="M153.285 214.468C153.799 213.86 154.466 213.401 155.217 213.137C155.967 212.873 156.775 212.815 157.555 212.968C158.185 213.098 157.915 214.058 157.285 213.968C156.675 213.864 156.049 213.925 155.47 214.144C154.892 214.364 154.383 214.735 153.995 215.218C153.555 215.688 152.845 214.938 153.285 214.468Z" fill="#391A3A"/>
<path d="M168.665 122.627C172.145 130.588 174.063 139.143 174.315 147.827C174.535 161.607 172.905 198.637 172.905 198.637C172.905 198.637 169.085 202.307 160.695 201.017V149.637C160.695 149.637 157.755 150.687 157.755 152.897C157.755 155.107 155.075 207.637 155.075 207.637C155.075 207.637 153.575 210.427 142.595 206.167C142.595 206.167 141.095 137.357 149.155 123.847" fill="#5B434D"/>
<path d="M208.985 145.128V224.328L186.195 237.368L160.455 222.168V142.958" fill="#40006B"/>
<path d="M208.985 145.127L182.535 130.067L160.455 142.957L186.195 158.167L208.985 145.127Z" fill="#40006B"/>
<path d="M186.195 158.168V237.368L160.455 222.168V142.958L186.195 158.168Z" fill="#40006B"/>
<path opacity="0.1" d="M208.985 145.128V224.328L186.195 237.368L160.455 222.168V142.958" fill="#2E90A0"/>
<path d="M208.985 145.127L182.535 130.067L160.455 142.957L186.195 158.167L208.985 145.127Z" fill="#40006B"/>
<path opacity="0.47" d="M186.195 158.168V237.368L160.455 222.168V142.958L186.195 158.168Z" fill="#2E90A0"/>
<path d="M186.635 144.417L199.515 150.547V229.747L263.865 194.937" stroke="#1B1464" stroke-miterlimit="10"/>
<path d="M174.385 153.978L155.185 142.708L185.695 125.548L203.545 136.828L174.385 153.978Z" fill="#5B434D"/>
<path d="M169.815 126.267C164.565 128.087 159.205 128.187 153.715 127.867C151.535 125.575 149.705 122.974 148.285 120.147C143.595 110.447 141.905 94.1475 141.905 94.1475C141.905 94.1475 148.905 88.7375 153.545 87.4375C158.185 86.1375 168.435 88.4375 170.115 91.2475C171.795 94.0575 172.415 106.697 170.115 124.667C170.045 124.987 169.865 125.957 169.815 126.267Z" fill="#A5DD73"/>
<path d="M160.965 89.1374C162.605 89.4874 162.915 84.9474 162.215 84.5274C161.515 84.1074 153.835 84.0574 152.655 84.5874C150.065 85.7374 152.655 89.5874 152.655 89.5874" fill="#A5DD73"/>
<path d="M151.095 70.1475C152.575 69.8875 152.525 67.4175 155.275 66.2975C158.025 65.1775 161.275 66.7875 162.475 67.6575C163.675 68.5275 164.555 66.7575 165.875 68.1175C167.195 69.4775 166.355 71.5575 167.125 72.2975L167.235 72.3775C167.568 72.937 167.753 73.5723 167.772 74.2232C167.792 74.8741 167.645 75.5192 167.345 76.0975C166.742 76.9056 166.032 77.6288 165.235 78.2475L152.895 84.6875C151.405 83.6375 148.555 73.6875 148.715 72.4975C148.772 71.8883 149.042 71.3188 149.477 70.889C149.913 70.4591 150.485 70.1966 151.095 70.1475Z" fill="#200904"/>
<path d="M164.635 73.9175C165.195 74.5175 163.345 86.4175 159.735 86.8375C156.125 87.2575 151.855 82.4775 151.475 81.0575C151.095 79.6375 151.315 72.0575 152.785 71.2975C154.255 70.5375 161.245 70.2675 164.635 73.9175Z" fill="#F67770"/>
<path d="M162.945 70.4874C162.945 70.4874 163.655 73.2574 159.335 73.7774C155.015 74.2974 154.715 75.2674 154.205 76.7774C153.205 79.6274 150.205 82.9374 149.205 74.3874C149.155 73.9774 152.265 68.1174 155.625 67.6574C158.985 67.1974 162.945 70.4874 162.945 70.4874Z" fill="#200904"/>
<path d="M153.815 78.2976C153.815 78.2976 152.455 75.9576 151.405 77.0676C150.355 78.1776 151.115 80.7876 152.535 81.6076" fill="#F67770"/>
<path d="M186.575 127.688C186.575 127.688 190.095 130.467 191.025 131.027C191.955 131.587 187.025 133.188 186.945 133.738C186.865 134.288 182.125 130.007 182.125 130.007L186.575 127.688Z" fill="#F67770"/>
<path d="M174.385 153.978L181.895 134.688L211.055 117.468L203.545 136.828L174.385 153.978Z" fill="#172D51"/>
<path d="M170.115 91.2476C170.115 91.2476 172.015 93.9676 172.895 101.138C173.775 108.308 176.305 114.548 177.765 116.808C179.225 119.068 188.915 128.128 188.515 129.028C188.115 129.928 185.515 131.528 183.825 132.128C179.1 129.169 174.875 125.48 171.305 121.198C166.305 114.828 166.475 103.538 166.475 103.538" fill="#A5DD73"/>
<path d="M166.845 146.577C166.828 145.819 166.672 145.07 166.385 144.367C166.122 144.003 165.78 143.702 165.385 143.487C164.904 143.184 164.443 142.85 164.005 142.487L160.605 138.887L165.735 138.117C166.865 138.868 168.033 139.559 169.235 140.187C169.465 140.187 172.735 142.187 172.575 142.687C172.415 143.187 170.215 141.507 170.215 141.507C171.439 142.054 172.617 142.699 173.735 143.437C174.135 143.907 174.655 146.297 174.295 146.627C173.935 146.957 173.375 146.627 173.005 146.447C172.635 146.267 173.255 147.447 172.685 147.637C172.258 147.787 171.808 147.865 171.355 147.867C171.134 147.983 170.882 148.027 170.635 147.993C170.388 147.959 170.157 147.849 169.975 147.677C169.307 146.866 168.81 145.927 168.515 144.917C168.515 144.917 168.645 147.787 167.825 147.597C167.535 147.487 167.185 147.087 166.845 146.577Z" fill="#F67770"/>
<path d="M170.445 142.347C171.068 142.622 171.64 143.001 172.135 143.467C172.766 144.265 173.155 145.226 173.255 146.237C173.315 146.517 172.865 146.577 172.815 146.297C172.739 145.293 172.322 144.344 171.635 143.607C171.135 143.209 170.587 142.873 170.005 142.607C170.163 142.542 170.311 142.454 170.445 142.347Z" fill="#5B434D"/>
<path d="M169.235 142.857C169.737 143.218 170.2 143.63 170.615 144.087C171.295 144.957 171.365 146.537 171.615 147.577C171.685 147.857 171.235 147.917 171.175 147.637C170.865 146.347 170.765 144.887 169.785 143.937C169.425 143.587 169.045 143.247 168.655 142.937C168.85 142.921 169.044 142.895 169.235 142.857Z" fill="#5B434D"/>
<path d="M141.895 94.1474C141.895 94.1474 139.895 94.5774 140.155 101.847C140.415 109.117 142.215 123.537 145.515 127.037C148.815 130.537 163.955 143.037 163.955 143.037C163.955 143.037 168.645 141.037 168.275 139.267C167.905 137.497 151.875 121.687 151.875 121.687C151.875 121.687 149.455 89.5274 141.895 94.1474Z" fill="#A5DD73"/>
<path d="M169.095 96.6875L170.215 126.067C170.215 126.707 169.215 126.707 169.215 126.067L168.095 96.6875C168.065 96.0875 169.065 96.0975 169.095 96.6875Z" fill="#75A542"/>
<path d="M151.805 104.167L153.345 113.607C153.865 116.807 153.985 120.537 155.565 123.437C157.145 126.337 159.565 128.577 161.625 130.967L168.435 138.967C168.855 139.457 168.145 140.167 167.725 139.677L160.595 131.317C158.595 128.977 156.195 126.677 154.705 123.967C153.215 121.257 153.025 117.867 152.535 114.847L150.845 104.457C150.755 103.797 151.705 103.527 151.805 104.167Z" fill="#75A542"/>
<path d="M286.395 84.6575V88.6375L240.125 61.7275V58.4575L286.395 84.6575Z" fill="#8CC63F"/>
<path d="M262.095 82.3274L286.395 96.0874V100.067L262.095 85.9274V82.3274Z" fill="#F7931E"/>
<path d="M258.685 80.3975V83.9475L253.475 80.9175V77.4475L258.685 80.3975Z" fill="#00A99D"/>
<path d="M250.075 75.5174V78.9374L240.125 73.1574V69.8774L250.075 75.5174Z" fill="#F15A24"/>
<path d="M264.905 93.7776L286.395 105.948V109.928L264.905 97.4276V93.7776Z" fill="#F15A24"/>
<path d="M285.795 116.998V120.978L239.525 94.0676V90.7876L285.795 116.998Z" fill="#8CC63F"/>
<path d="M270.815 119.947V123.697L259.635 117.187V113.607L270.815 119.947Z" fill="#00A99D"/>
<path d="M274.225 121.877L285.795 128.427V132.407L274.225 125.677V121.877Z" fill="#F15A24"/>
<path d="M256.225 111.678V115.208L239.525 105.488V102.218L256.225 111.678Z" fill="#F7931E"/>
<path d="M247.155 116.397L285.795 138.287V142.267L247.155 119.787V116.397Z" fill="#F7931E"/>
<path d="M243.745 114.467V117.807L239.525 115.347V112.077L243.745 114.467Z" fill="#00A99D"/>
<path d="M285.795 150.258V154.228L239.525 127.318V124.048L285.795 150.258Z" fill="#00A99D"/>
<path d="M268.705 152.008V155.728L239.525 138.748V135.478L268.705 152.008Z" fill="#F7931E"/>
<path d="M272.115 153.938L285.795 161.678V165.658L272.115 157.708V153.938Z" fill="#F15A24"/>
<path d="M257.175 155.337L285.795 171.537V175.517L257.175 158.877V155.337Z" fill="#00A99D"/>
<path d="M253.765 153.407V156.897L239.525 148.607V145.337L253.765 153.407Z" fill="#8CC63F"/>
<path d="M225.645 246.978L218.275 255.868L219.245 256.808L226.615 247.928L225.645 246.978Z" fill="white"/>
<path d="M244.485 251.588C244.288 252.089 243.938 252.516 243.485 252.808C243.66 253.004 243.786 253.238 243.856 253.491C243.925 253.744 243.935 254.01 243.885 254.268L244.485 251.588Z" fill="#C46200"/>
<path d="M228.175 251.578L226.325 252.848L227.315 256.678L222.895 255.188L221.045 256.448L228.465 258.868L229.735 257.998L228.175 251.578Z" fill="white"/>
<path d="M198.025 252.428C198.01 252.654 198.041 252.881 198.115 253.096C198.188 253.31 198.304 253.508 198.455 253.678C198.608 253.853 198.787 254.005 198.985 254.128L216.985 265.428C217.659 265.818 218.442 265.98 219.215 265.888C219.772 265.837 220.313 265.674 220.805 265.408L243.215 252.978L243.495 252.808C243.948 252.516 244.298 252.089 244.495 251.588C244.641 251.184 244.637 250.741 244.485 250.339C244.333 249.938 244.042 249.604 243.665 249.398L226.665 238.398C225.988 237.996 225.198 237.827 224.415 237.918C223.896 237.965 223.39 238.111 222.925 238.348L199.515 250.428C199.113 250.601 198.763 250.876 198.502 251.228C198.24 251.579 198.076 251.993 198.025 252.428ZM219.255 256.808L218.255 255.868L225.615 246.988L226.615 247.928L219.245 256.808H219.255ZM228.465 258.868L221.045 256.448L222.895 255.178L227.315 256.688L226.315 252.858L228.165 251.588L229.755 257.998L228.485 258.868H228.465ZM216.485 251.968L214.915 245.558L216.195 244.688L223.605 247.108L221.755 248.368L217.325 246.868L218.325 250.708L216.475 251.978" fill="#F7931E"/>
<path d="M216.185 244.688L223.595 247.098L221.755 248.357L217.315 246.857L218.325 250.697L216.475 251.967L214.905 245.548L216.185 244.688Z" fill="white"/>
<path d="M198.445 253.688C198.294 253.518 198.178 253.32 198.105 253.106C198.031 252.891 198 252.664 198.015 252.438L197.405 255.008C197.59 254.461 197.957 253.995 198.445 253.688Z" fill="#C46200"/>
<path d="M198.445 253.687C197.972 254.002 197.62 254.467 197.445 255.007C197.425 255.076 197.408 255.146 197.395 255.217C197.338 255.589 197.398 255.97 197.567 256.307C197.735 256.643 198.004 256.92 198.335 257.097L216.335 268.397C217.008 268.791 217.791 268.956 218.565 268.867C219.123 268.815 219.665 268.648 220.155 268.377L242.565 255.947C242.9 255.785 243.195 255.551 243.43 255.262C243.664 254.974 243.834 254.638 243.925 254.277C243.975 254.02 243.965 253.754 243.896 253.501C243.826 253.248 243.7 253.014 243.525 252.817L243.245 252.987L220.755 265.407C220.263 265.674 219.722 265.837 219.165 265.887C218.392 265.979 217.609 265.818 216.935 265.427L198.935 254.127C198.752 254.005 198.587 253.857 198.445 253.687Z" fill="#C46200"/>
</g>
<defs>
<filter id="filter0_d" x="0.755371" y="-22.3125" width="475" height="364" filterUnits="userSpaceOnUse" color-interpolation-filters="sRGB">
<feFlood flood-opacity="0" result="BackgroundImageFix"/>
<feColorMatrix in="SourceAlpha" type="matrix" values="0 0 0 0 0 0 0 0 0 0 0 0 0 0 0 0 0 0 127 0"/>
<feOffset dx="43" dy="6"/>
<feGaussianBlur stdDeviation="16"/>
<feColorMatrix type="matrix" values="0 0 0 0 0 0 0 0 0 0 0 0 0 0 0 0 0 0 0.25 0"/>
<feBlend mode="normal" in2="BackgroundImageFix" result="effect1_dropShadow"/>
<feBlend mode="normal" in="SourceGraphic" in2="effect1_dropShadow" result="shape"/>
</filter>
</defs>
</svg>
