<svg width="151" height="57" viewBox="0 0 151 57" fill="none" xmlns="http://www.w3.org/2000/svg">
<g filter="url(#filter0_d)">
<rect x="8.52539" y="1.80676" width="136.119" height="42.0686" rx="14" fill="#6D28FE"/>
</g>
<path d="M34.4259 23.9759H38.4759V21.9209H34.4259V23.9759ZM49.0859 26.8409H51.0659V24.6809H52.4009V22.8659H51.0659V16.0559H49.3409L44.6909 22.8809V24.6809H49.0859V26.8409ZM49.0859 22.8659H46.6109L49.0859 19.2059V22.8659ZM54.2258 24.0809C54.3658 25.0209 54.7558 25.7509 55.3958 26.2709C56.0158 26.7709 56.8108 27.0209 57.7808 27.0209C59.0108 27.0209 59.9808 26.5459 60.6908 25.5959C61.2008 24.9059 61.4558 24.1209 61.4558 23.2409C61.4558 22.2609 61.1608 21.4209 60.5708 20.7209C59.9508 20.0109 59.1558 19.6559 58.1858 19.6559C57.7258 19.6559 57.2558 19.7709 56.7758 20.0009L57.0908 18.1709H60.9758V16.2509H55.5308L54.4808 21.8459L56.1458 22.0859C56.6258 21.5559 57.1558 21.2909 57.7358 21.2909C58.2758 21.2909 58.6908 21.4909 58.9808 21.8909C59.2208 22.2409 59.3408 22.7009 59.3408 23.2709C59.3408 23.8409 59.2258 24.3109 58.9958 24.6809C58.7258 25.1409 58.3258 25.3709 57.7958 25.3709C57.3758 25.3709 57.0308 25.2209 56.7608 24.9209C56.5008 24.6609 56.3408 24.3109 56.2808 23.8709L54.2258 24.0809ZM63.3708 18.7559C63.3708 20.6459 64.1708 21.5909 65.7708 21.5909C67.3308 21.5909 68.1108 20.6459 68.1108 18.7559C68.1108 16.8659 67.3158 15.9209 65.7258 15.9209C64.1558 15.9209 63.3708 16.8659 63.3708 18.7559ZM64.9758 18.7409C64.9758 17.6309 65.2258 17.0759 65.7258 17.0759C66.2258 17.0759 66.4758 17.6309 66.4758 18.7409C66.4758 19.4509 66.3958 19.9209 66.2358 20.1509C66.1258 20.3209 65.9558 20.4059 65.7258 20.4059C65.2258 20.4059 64.9758 19.8509 64.9758 18.7409ZM67.3008 27.2459L72.9708 15.9209H71.4858L65.7708 27.2459H67.3008ZM70.6158 24.4259C70.6158 26.3259 71.4158 27.2759 73.0158 27.2759C74.5758 27.2759 75.3558 26.3259 75.3558 24.4259C75.3558 22.5359 74.5658 21.5909 72.9858 21.5909C71.4058 21.5909 70.6158 22.5359 70.6158 24.4259ZM72.2208 24.4259C72.2208 23.3159 72.4708 22.7609 72.9708 22.7609C73.2008 22.7609 73.3708 22.8459 73.4808 23.0159C73.6408 23.2459 73.7208 23.7159 73.7208 24.4259C73.7208 25.5359 73.4708 26.0909 72.9708 26.0909C72.4708 26.0909 72.2208 25.5359 72.2208 24.4259ZM88.2407 22.8509C88.2407 23.1409 88.2057 23.4359 88.1357 23.7359C88.0757 24.0359 87.9757 24.3109 87.8357 24.5609C87.6957 24.8109 87.5107 25.0159 87.2807 25.1759C87.0607 25.3259 86.7857 25.4009 86.4557 25.4009C85.8557 25.4009 85.4307 25.1609 85.1807 24.6809C84.9207 24.1909 84.7907 23.6209 84.7907 22.9709C84.7907 22.3009 84.9207 21.7159 85.1807 21.2159C85.4507 20.7359 85.9007 20.4959 86.5307 20.4959C86.8407 20.4959 87.1057 20.5659 87.3257 20.7059C87.5457 20.8359 87.7207 21.0159 87.8507 21.2459C87.9907 21.4659 88.0907 21.7209 88.1507 22.0109C88.2107 22.2909 88.2407 22.5709 88.2407 22.8509ZM90.2357 28.7759V19.0559H88.3307V20.2109C87.7507 19.3309 86.9707 18.8909 85.9907 18.8909C85.4307 18.8909 84.9407 19.0009 84.5207 19.2209C84.1107 19.4409 83.7707 19.7359 83.5007 20.1059C83.2307 20.4759 83.0257 20.9009 82.8857 21.3809C82.7557 21.8509 82.6907 22.3459 82.6907 22.8659C82.6907 23.5459 82.8057 24.2059 83.0357 24.8459C83.2657 25.4959 83.6157 26.0209 84.0857 26.4209C84.5557 26.8209 85.1507 27.0209 85.8707 27.0209C86.8207 27.0209 87.5957 26.6459 88.1957 25.8959V30.5909H91.9007V28.7759H90.2357ZM95.8738 20.8709H100.914V19.0559H95.8738V15.3059H93.8338V23.9909C93.8338 24.4509 93.8788 24.8659 93.9688 25.2359C94.0588 25.6059 94.2038 25.9259 94.4038 26.1959C94.6138 26.4559 94.8788 26.6559 95.1988 26.7959C95.5288 26.9359 95.9338 27.0059 96.4138 27.0059C96.9538 27.0059 97.4388 26.8959 97.8688 26.6759C98.3088 26.4459 98.6738 26.1109 98.9638 25.6709V26.8409H100.869V21.8759H98.8288V22.5809C98.8288 23.1509 98.7988 23.6309 98.7388 24.0209C98.6988 24.3909 98.5538 24.7209 98.3038 25.0109C98.0538 25.2909 97.6738 25.4309 97.1638 25.4309C96.6238 25.4309 96.2738 25.2509 96.1138 24.8909C95.9538 24.5309 95.8738 24.0459 95.8738 23.4359V20.8709ZM108.824 30.5909H112.529V28.7759H110.864V21.9059C110.864 20.9659 110.669 20.2259 110.279 19.6859C109.869 19.1559 109.204 18.8909 108.284 18.8909C107.754 18.8909 107.269 19.0059 106.829 19.2359C106.389 19.4659 106.024 19.7959 105.734 20.2259V19.0559H103.829V26.8409H105.869V23.3159C105.869 23.0259 105.874 22.7659 105.884 22.5359C105.904 22.2959 105.924 22.0759 105.944 21.8759C106.004 21.5059 106.154 21.1759 106.394 20.8859C106.634 20.6059 107.014 20.4659 107.534 20.4659C108.054 20.4659 108.399 20.6459 108.569 21.0059C108.739 21.3759 108.824 21.8609 108.824 22.4609V30.5909ZM116.343 21.4109C116.343 21.2809 116.473 20.8859 116.733 20.2259C116.863 19.8959 116.968 19.6309 117.048 19.4309C117.138 19.2309 117.198 19.1009 117.228 19.0409H115.308C115.158 19.3109 115.013 19.5809 114.873 19.8509C114.733 20.1109 114.603 20.3809 114.483 20.6609C114.233 21.2009 114.108 21.6559 114.108 22.0259C114.108 22.3659 114.238 22.6659 114.498 22.9259C114.738 23.1459 115.108 23.4459 115.608 23.8259C116.088 24.1759 116.328 24.4259 116.328 24.5759C116.328 24.7259 116.223 24.9509 116.013 25.2509C115.913 25.4009 115.783 25.5859 115.623 25.8059C115.463 26.0259 115.268 26.2809 115.038 26.5709C114.598 27.1709 114.258 27.6659 114.018 28.0559C113.788 28.4559 113.673 28.7859 113.673 29.0459C113.673 29.4959 113.823 29.8309 114.123 30.0509C114.433 30.2809 114.788 30.4259 115.188 30.4859C115.398 30.5259 115.613 30.5509 115.833 30.5609C116.053 30.5809 116.278 30.5909 116.508 30.5909H119.133V28.8059H118.173C117.673 28.8059 117.258 28.7759 116.928 28.7159C116.598 28.6559 116.433 28.5309 116.433 28.3409C116.433 28.1809 116.503 27.9759 116.643 27.7259C116.723 27.6059 116.833 27.4359 116.973 27.2159C117.113 26.9959 117.293 26.7209 117.513 26.3909C117.733 26.0509 117.918 25.7559 118.068 25.5059C118.228 25.2459 118.358 25.0209 118.458 24.8309C118.668 24.4609 118.773 24.1559 118.773 23.9159C118.773 23.7159 118.663 23.5209 118.443 23.3309C118.233 23.1309 117.923 22.9009 117.513 22.6409C117.123 22.3909 116.828 22.1759 116.628 21.9959C116.438 21.8059 116.343 21.6109 116.343 21.4109Z" fill="white"/>
<defs>
<filter id="filter0_d" x="0.525391" y="0.806763" width="150.119" height="56.0686" filterUnits="userSpaceOnUse" color-interpolation-filters="sRGB">
<feFlood flood-opacity="0" result="BackgroundImageFix"/>
<feColorMatrix in="SourceAlpha" type="matrix" values="0 0 0 0 0 0 0 0 0 0 0 0 0 0 0 0 0 0 127 0"/>
<feOffset dx="-1" dy="6"/>
<feGaussianBlur stdDeviation="3.5"/>
<feColorMatrix type="matrix" values="0 0 0 0 0 0 0 0 0 0 0 0 0 0 0 0 0 0 0.25 0"/>
<feBlend mode="normal" in2="BackgroundImageFix" result="effect1_dropShadow"/>
<feBlend mode="normal" in="SourceGraphic" in2="effect1_dropShadow" result="shape"/>
</filter>
</defs>
</svg>
