<svg width="425" height="315" viewBox="0 0 425 315" fill="none" xmlns="http://www.w3.org/2000/svg">
<g filter="url(#filter0_d)">
<path d="M322.865 205.793L199.685 276.913L82.9852 209.533L207.005 139.043L322.865 205.793Z" fill="#EFEFEF"/>
<path style="mix-blend-mode:multiply" d="M201.565 226.063C209.455 230.663 233.885 243.223 246.025 250.153C236.835 255.733 225.425 262.073 224.385 262.683L182.605 236.003C184.735 234.883 191.735 230.923 201.565 226.063Z" fill="url(#paint0_linear)"/>
<path style="mix-blend-mode:multiply" d="M119.735 190.593C134.465 199.183 144.995 204.953 167.655 217.893C150.505 228.313 137.215 237.893 135.285 239.033L84.3653 209.143C88.3153 207.063 101.395 199.663 119.735 190.593Z" fill="url(#paint1_linear)"/>
<path d="M349.135 98.233L217.425 29.323L205.485 125.363L334.885 196.693L349.135 98.233Z" fill="#40006B"/>
<path d="M314.085 168.773L321.095 119.163L314.995 116.463L308.105 165.553L314.085 168.773Z" fill="white"/>
<path d="M303.895 123.013L298.715 160.343L304.715 163.543L309.915 126.233C307.835 125.233 305.875 124.043 303.895 123.013Z" fill="#5ED18D"/>
<path d="M275.825 145.843L282.455 96.893L276.305 94.283L269.795 142.713L275.825 145.843Z" fill="white"/>
<path d="M265.205 100.813L260.315 137.643L266.315 140.753L271.235 103.983C269.135 102.963 267.205 101.823 265.205 100.813Z" fill="#5ED18D"/>
<path d="M241.495 126.093L247.775 77.7329L241.575 75.2029L235.415 123.043L241.495 126.093Z" fill="white"/>
<path d="M230.485 81.7329L225.855 118.113L231.945 121.113L236.605 84.7829C234.495 83.8229 232.505 82.7129 230.485 81.7329Z" fill="#5ED18D"/>
<path d="M312.815 175.093C307.702 172.26 302.585 169.436 297.465 166.623C296.675 166.193 297.605 164.943 298.395 165.373C303.522 168.186 308.642 171.01 313.755 173.843C314.545 174.283 313.605 175.533 312.815 175.093Z" fill="#F2F2F2"/>
<path d="M273.825 150.733C268.665 147.986 263.499 145.246 258.325 142.513C257.525 142.093 258.455 140.853 259.255 141.273C264.429 144 269.595 146.736 274.755 149.483C275.555 149.913 274.625 151.153 273.825 150.723V150.733Z" fill="#F2F2F2"/>
<path d="M239.255 132.233C234.055 129.566 228.849 126.9 223.635 124.233C222.825 123.823 223.755 122.593 224.555 123.003C229.769 125.67 234.975 128.336 240.175 131.003C240.975 131.413 240.055 132.653 239.255 132.233Z" fill="#F2F2F2"/>
<path d="M299.645 85.3529L289.135 162.093C289.075 162.533 288.365 162.533 288.425 162.093L298.925 85.3729C298.985 84.9429 299.705 84.9129 299.645 85.3529Z" fill="#F2F2F2"/>
<path d="M258.925 63.3329L249.005 138.993C248.945 139.423 248.235 139.433 248.285 138.993L258.195 63.3429C258.255 62.9429 258.975 62.9029 258.925 63.3329Z" fill="#F2F2F2"/>
<path d="M344.115 100.493L220.275 35.4929L208.775 122.943L331.195 190.153L344.115 100.493Z" stroke="#F2F2F2" stroke-miterlimit="10"/>
<path d="M84.3554 209.153L116.505 190.593L134.025 200.533L101.565 219.323L84.3554 209.153Z" fill="#FFB164"/>
<path d="M118.135 201.723V205.443L102.735 214.123L94.2653 209.123V205.863" fill="#DBDBDB"/>
<path d="M94.2653 205.863L109.715 196.953L118.135 201.723L102.535 210.753L94.2653 205.863Z" fill="#606060"/>
<path d="M116.115 125.293L133.975 116.523V200.683L116.115 190.593V125.293Z" fill="#E87F18"/>
<path d="M84.3554 151.903L116.505 133.343L134.025 143.283L101.565 162.073L84.3554 151.903Z" fill="#FFB164"/>
<path d="M105.985 142.363L96.1154 136.653L92.9353 138.383L102.805 144.713L105.985 142.363Z" fill="#19847E"/>
<path d="M102.945 143.913V156.423L92.9353 150.843V138.383L102.945 143.913Z" fill="#04AAA8"/>
<path d="M102.945 143.913L105.985 142.363V154.743L102.945 156.423" fill="#2252A4"/>
<path d="M84.3054 125.143L116.455 106.583L133.975 116.523L101.505 135.313L84.3054 125.143Z" fill="#FFB164"/>
<path d="M84.3054 180.343L116.455 161.783L133.975 171.723L101.505 190.513L84.3054 180.343Z" fill="#FFB164"/>
<path d="M101.505 135.313L84.3052 125.143L84.3552 209.153L101.565 219.323L101.505 135.313Z" fill="#FF9C28"/>
<path d="M131.215 159.233L122.535 154.203L119.735 155.723L128.425 161.293L131.215 159.233Z" fill="#19847E"/>
<path d="M128.545 160.593V171.593L119.735 166.683V155.723L128.545 160.593Z" fill="#04AAA8"/>
<path d="M128.545 160.593L131.215 159.233V170.123L128.545 171.593" fill="#2252A4"/>
<path d="M127.935 159.853L118.075 154.143L114.885 155.863L124.765 162.193L127.935 159.853Z" fill="#19847E"/>
<path d="M124.895 161.403V173.913L114.885 168.323V155.863L124.895 161.403Z" fill="#04AAA8"/>
<path d="M124.895 161.403L127.935 159.853V172.233L124.895 173.913" fill="#2252A4"/>
<path d="M191.705 216.493C191.705 216.493 189.895 226.373 191.345 227.373C191.345 227.373 200.675 223.653 202.175 227.223C203.355 230.043 196.675 233.083 193.175 234.303C189.675 235.523 182.995 237.563 181.675 234.773C180.355 231.983 184.965 211.073 184.965 211.073" fill="#352118"/>
<path d="M194.935 223.743C196.255 202.633 200.285 146.883 195.245 133.363C188.895 116.313 180.985 130.873 180.405 138.563C179.865 145.653 180.975 215.343 181.125 225.333C182.725 230.683 192.625 229.313 194.935 223.743Z" fill="#487A31"/>
<path d="M229.235 111.273L234.705 87.763L219.255 80.533L211.665 104.433L229.235 111.273Z" fill="#352118"/>
<path d="M210.975 96.3431C210.975 96.3431 217.535 88.5131 219.035 89.8931C220.535 91.2731 216.735 94.8031 216.735 94.8031C216.858 95.4789 216.843 96.1725 216.692 96.8425C216.54 97.5125 216.256 98.1453 215.855 98.7031C214.475 100.883 212.465 102.003 211.665 101.753C210.865 101.503 207.825 103.833 207.825 103.833L203.755 100.103L210.975 96.3431Z" fill="#FFC799"/>
<path d="M212.475 102.973C212.475 102.973 213.665 97.283 209.075 94.793L198.535 98.883L205.535 106.483L212.475 102.973Z" fill="#47BF78"/>
<path d="M224.065 109.313C224.065 109.313 225.735 106.013 225.295 104.313C224.855 102.613 222.725 100.183 223.505 98.953C224.285 97.723 227.075 101.493 227.635 102.003C228.195 102.513 232.785 96.603 232.785 96.603C232.785 96.603 234.305 102.903 233.785 106.063C233.265 109.223 228.985 110.423 227.425 113.453" fill="#FFC799"/>
<path d="M207.645 223.553C207.645 223.553 205.835 233.433 207.285 234.433C207.285 234.433 216.615 230.713 218.115 234.283C219.295 237.103 212.615 240.143 209.115 241.363C205.615 242.583 198.935 244.623 197.615 241.833C196.295 239.043 200.905 218.133 200.905 218.133" fill="#352118"/>
<path d="M212.475 227.493C212.205 206.343 212.025 150.493 205.985 137.353C198.365 120.833 190.315 137.593 190.315 145.353C190.315 152.463 196.135 223.153 197.035 233.103C202.395 235.653 210.585 233.233 212.475 227.493Z" fill="#487A31"/>
<path d="M206.135 138.153C207.025 129.643 209.375 104.153 206.045 101.743C199.965 97.2431 185.125 88.5131 182.045 96.8331C179.625 103.283 180.215 122.713 181.675 133.393C188.815 137.643 198.025 140.233 206.135 138.153Z" fill="#5ED18D"/>
<path d="M197.135 89.6931C196.975 89.9331 197.135 96.3431 197.135 96.3431C197.135 96.3431 194.805 96.5131 190.375 93.4631L190.735 86.6931L197.135 89.6931Z" fill="#FFC799"/>
<path d="M200.955 77.0529C200.92 79.8254 201.094 82.5965 201.475 85.3429C202.295 89.1829 201.475 92.9529 197.755 94.1229C194.385 95.1829 187.895 87.0429 189.075 83.5829C190.255 80.1229 194.635 72.2329 200.955 77.0529Z" fill="#FFC799"/>
<path d="M184.505 75.0729C184.605 74.0494 184.964 73.0681 185.548 72.2216C186.132 71.375 186.922 70.691 187.843 70.2338C188.764 69.7767 189.786 69.5616 190.814 69.6086C191.841 69.6557 192.84 69.9635 193.715 70.5029C195.165 69.7324 196.856 69.5532 198.435 70.0029C199.252 70.2342 199.996 70.6695 200.598 71.2678C201.199 71.8661 201.639 72.6078 201.875 73.4229C201.904 73.5614 201.925 73.7017 201.935 73.8429C202.469 74.7022 202.684 75.7211 202.545 76.7229C202.444 77.4559 202.186 78.1586 201.789 78.7832C201.392 79.4078 200.866 79.9397 200.245 80.3429C199.999 80.5324 199.734 80.6965 199.455 80.8329C198.879 81.1391 198.277 81.3935 197.655 81.5929C197.467 81.6524 197.272 81.6893 197.075 81.7029C196.624 81.8294 196.236 82.1178 195.985 82.5129C195.907 82.6908 195.843 82.8747 195.795 83.0629C196.275 85.8829 196.905 89.9829 194.575 91.8229C192.765 93.2529 190.385 92.7329 188.525 91.5129L188.265 91.3929C187.751 91.0994 187.302 90.7048 186.945 90.2329C186.805 90.0829 186.675 89.9329 186.555 89.7729L186.495 89.6829C182.005 85.3829 177.945 77.7829 184.505 75.0729Z" fill="#352118"/>
<path d="M206.135 101.743C206.135 101.743 208.715 103.813 211.065 109.593C213.235 114.923 218.375 114.243 221.765 107.943C222.007 107.471 222.426 107.114 222.93 106.951C223.435 106.788 223.983 106.832 224.455 107.073C226.455 108.143 229.455 110.073 229.625 112.553C229.875 116.253 218.485 126.553 211.015 127.773C203.545 128.993 197.835 117.233 197.835 117.233" fill="#5ED18D"/>
<path d="M104.985 111.143C107.945 111.013 110.782 109.921 113.065 108.033V116.613C113.066 117.786 112.836 118.947 112.388 120.03C111.94 121.114 111.282 122.098 110.452 122.927C109.622 123.756 108.637 124.412 107.553 124.86C106.469 125.307 105.308 125.536 104.135 125.533C101.772 125.533 99.5058 124.594 97.8349 122.923C96.1639 121.252 95.2252 118.986 95.2252 116.623V107.893C98.2952 109.133 101.745 111.423 104.985 111.143Z" fill="#40006B"/>
<path d="M104.165 112.703C99.2443 112.703 95.2552 110.59 95.2552 107.983C95.2552 105.376 99.2443 103.263 104.165 103.263C109.086 103.263 113.075 105.376 113.075 107.983C113.075 110.59 109.086 112.703 104.165 112.703Z" fill="#5ED18D"/>
<path d="M104.135 108.783C104.135 108.783 110.195 107.893 111.795 98.093C111.825 98.093 106.665 100.943 104.135 108.783Z" fill="#5ED18D"/>
<path d="M103.275 107.533C103.275 107.533 110.225 95.0631 103.275 86.6931C101.155 93.478 101.155 100.748 103.275 107.533Z" fill="#5ED18D"/>
<path d="M104.135 99.6929C104.135 99.6929 110.195 98.8029 111.795 89.0029C111.825 89.0029 106.665 91.8529 104.135 99.6929Z" fill="#5ED18D"/>
<path d="M103.435 103.693C103.435 103.693 104.955 97.7629 96.5353 92.5029C96.5253 92.4929 97.1353 98.3629 103.435 103.693Z" fill="#5ED18D"/>
<path d="M104.165 112.703C99.2443 112.703 95.2552 110.59 95.2552 107.983C95.2552 105.376 99.2443 103.263 104.165 103.263C109.086 103.263 113.075 105.376 113.075 107.983C113.075 110.59 109.086 112.703 104.165 112.703Z" fill="#146666"/>
<path d="M104.135 108.783C104.135 108.783 110.195 107.893 111.795 98.093C111.825 98.093 106.665 100.943 104.135 108.783Z" fill="#5ED18D"/>
<path d="M103.275 107.533C103.275 107.533 110.225 95.0631 103.275 86.6931C101.155 93.478 101.155 100.748 103.275 107.533Z" fill="#5ED18D"/>
<path d="M104.135 99.6929C104.135 99.6929 110.195 98.8029 111.795 89.0029C111.825 89.0029 106.665 91.8529 104.135 99.6929Z" fill="#5ED18D"/>
<path d="M103.435 103.693C103.435 103.693 104.955 97.7629 96.5353 92.5029C96.5253 92.4929 97.1353 98.3629 103.435 103.693Z" fill="#5ED18D"/>
</g>
<defs>
<filter id="filter0_d" x="0.135254" y="-25.7671" width="475" height="364" filterUnits="userSpaceOnUse" color-interpolation-filters="sRGB">
<feFlood flood-opacity="0" result="BackgroundImageFix"/>
<feColorMatrix in="SourceAlpha" type="matrix" values="0 0 0 0 0 0 0 0 0 0 0 0 0 0 0 0 0 0 127 0"/>
<feOffset dx="43" dy="6"/>
<feGaussianBlur stdDeviation="16"/>
<feColorMatrix type="matrix" values="0 0 0 0 0 0 0 0 0 0 0 0 0 0 0 0 0 0 0.25 0"/>
<feBlend mode="normal" in2="BackgroundImageFix" result="effect1_dropShadow"/>
<feBlend mode="normal" in="SourceGraphic" in2="effect1_dropShadow" result="shape"/>
</filter>
<linearGradient id="paint0_linear" x1="188.725" y1="226.263" x2="225.185" y2="250.213" gradientUnits="userSpaceOnUse">
<stop stop-color="#808080"/>
<stop offset="1" stop-color="white"/>
</linearGradient>
<linearGradient id="paint1_linear" x1="-23979.8" y1="10065.6" x2="-21905.3" y2="12196.1" gradientUnits="userSpaceOnUse">
<stop stop-color="#808080"/>
<stop offset="1" stop-color="white"/>
</linearGradient>
</defs>
</svg>
