<svg width="451" height="344" viewBox="0 0 451 344" fill="none" xmlns="http://www.w3.org/2000/svg">
<g filter="url(#filter0_d)">
<path d="M222.602 100.357L370.492 186.357C371.93 187.193 373.121 188.394 373.945 189.839C374.768 191.283 375.194 192.92 375.18 194.583C375.166 196.246 374.711 197.875 373.864 199.306C373.016 200.736 371.804 201.917 370.352 202.727L189.352 304.037C187.165 305.261 184.704 305.914 182.198 305.935C179.691 305.956 177.22 305.344 175.012 304.157L35.9223 229.347C34.15 228.393 32.6638 226.983 31.6165 225.264C30.5691 223.545 29.9983 221.578 29.9627 219.565C29.927 217.552 30.4279 215.566 31.4137 213.811C32.3996 212.056 33.8349 210.594 35.5723 209.577L222.602 100.357Z" fill="#AAACF9"/>
<path opacity="0.32" d="M243.942 232.377C235.662 223.877 226.762 216.007 218.882 207.177L250.732 190.317L318.302 226.437C305.672 233.057 287.182 247.217 269.132 259.487C260.732 250.447 252.552 241.217 243.942 232.377Z" fill="url(#paint0_linear)"/>
<path opacity="0.32" d="M295.312 194.477C281.402 184.187 267.542 173.817 253.032 164.417L282.852 148.637L345.672 187.417C336.142 192.417 328.002 199.047 314.502 208.587C308.122 203.847 301.732 199.187 295.312 194.477Z" fill="url(#paint1_linear)"/>
<path opacity="0.32" d="M216.212 254.947C201.212 246.877 169.032 215.537 154.212 207.287L210.732 177.377L278.232 213.507C262.562 221.687 237.882 241.537 216.212 254.947Z" fill="url(#paint2_linear)"/>
<path d="M185.792 165.548L204.792 174.698C205.506 175.043 206.113 175.576 206.548 176.239C206.983 176.903 207.23 177.672 207.261 178.465C207.293 179.257 207.109 180.044 206.729 180.74C206.349 181.436 205.786 182.016 205.102 182.418L160.052 208.688C159.078 209.256 157.922 209.427 156.824 209.165C155.727 208.902 154.774 208.226 154.162 207.278L143.212 190.278" fill="#56403D"/>
<path d="M90.3123 116.817L245.502 27.4175C246.267 26.9591 247.14 26.7136 248.032 26.7062C248.923 26.6989 249.801 26.9301 250.573 27.3758C251.345 27.8215 251.984 28.4656 252.423 29.2413C252.863 30.017 253.087 30.8961 253.072 31.7875V126.787C253.072 127.471 252.892 128.142 252.549 128.734C252.207 129.326 251.715 129.817 251.122 130.158L85.9423 225.508C85.6564 225.673 85.332 225.759 85.0019 225.759C84.6717 225.759 84.3474 225.672 84.0615 225.507C83.7757 225.342 83.5384 225.104 83.3735 224.818C83.2086 224.532 83.122 224.208 83.1224 223.878V129.257C83.1217 126.735 83.7859 124.257 85.0482 122.073C86.3105 119.889 88.1262 118.076 90.3123 116.817Z" fill="#40006B"/>
<path d="M242.802 35.8275L95.8024 120.407C94.2321 121.311 92.9275 122.611 92.0199 124.179C91.1122 125.747 90.6337 127.526 90.6324 129.337V197.447C90.6319 198.1 90.803 198.741 91.1284 199.306C91.4538 199.871 91.922 200.341 92.4863 200.668C93.0505 200.995 93.6909 201.168 94.3431 201.17C94.9953 201.172 95.6365 201.002 96.2024 200.678L246.132 114.687C246.691 114.366 247.156 113.903 247.479 113.344C247.802 112.786 247.972 112.152 247.972 111.507V38.8175C247.972 38.2124 247.813 37.6181 247.511 37.094C247.208 36.5699 246.773 36.1346 246.25 35.8317C245.726 35.5287 245.132 35.3689 244.527 35.3682C243.922 35.3674 243.327 35.5258 242.802 35.8275Z" fill="white"/>
<path d="M179.384 164.008C178.516 163.841 177.814 163.701 177.815 163.695C177.816 163.69 178.52 163.821 179.388 163.988C180.255 164.155 180.958 164.295 180.957 164.3C180.956 164.306 180.252 164.175 179.384 164.008Z" fill="#AB643C"/>
<path d="M101.792 124.228C100.909 124.228 100.192 123.449 100.192 122.488C100.192 121.527 100.909 120.748 101.792 120.748C102.676 120.748 103.392 121.527 103.392 122.488C103.392 123.449 102.676 124.228 101.792 124.228Z" fill="#659FE4"/>
<path d="M106.892 121.698C106.009 121.698 105.292 120.919 105.292 119.958C105.292 118.997 106.009 118.218 106.892 118.218C107.776 118.218 108.492 118.997 108.492 119.958C108.492 120.919 107.776 121.698 106.892 121.698Z" fill="#C5E9FF"/>
<path d="M266.982 200.528L266.992 201.478L266.512 202.078" fill="#ADCEE1"/>
<path d="M247.822 189.028L266.442 200.458C266.619 200.558 266.766 200.703 266.868 200.879C266.971 201.055 267.024 201.254 267.024 201.458C267.024 201.661 266.971 201.86 266.868 202.036C266.766 202.212 266.619 202.357 266.442 202.458L238.322 218.518C237.93 218.744 237.485 218.863 237.032 218.863C236.579 218.863 236.135 218.744 235.742 218.518L217.182 207.688C215.832 206.588 215.922 204.508 217.182 204.418L245.182 188.988C245.586 188.76 246.044 188.644 246.508 188.651C246.972 188.658 247.425 188.788 247.822 189.028Z" fill="#88D3D8"/>
<path d="M247.822 188.238L266.442 199.688C266.619 199.788 266.766 199.933 266.868 200.109C266.971 200.285 267.024 200.484 267.024 200.688C267.024 200.891 266.971 201.09 266.868 201.266C266.766 201.442 266.619 201.587 266.442 201.688L238.292 217.688C237.9 217.914 237.455 218.033 237.002 218.033C236.549 218.033 236.105 217.914 235.712 217.688L217.182 206.898C216.964 206.772 216.783 206.592 216.657 206.374C216.531 206.156 216.465 205.909 216.465 205.658C216.465 205.406 216.531 205.159 216.657 204.941C216.783 204.723 216.964 204.543 217.182 204.418L245.182 188.198C245.586 187.97 246.044 187.854 246.508 187.861C246.972 187.868 247.425 187.998 247.822 188.238Z" fill="white"/>
<path d="M247.062 186.687C247.062 186.687 239.252 161.827 239.292 161.827C239.332 161.827 239.052 160.717 237.672 161.357L208.152 178.898C208.152 178.898 206.722 179.487 207.002 180.817C207.282 182.147 214.642 205.147 214.642 205.147C214.794 205.366 215.012 205.531 215.264 205.617C215.515 205.703 215.788 205.707 216.042 205.627C216.942 205.347 246.372 188.087 246.372 188.087C246.645 187.988 246.869 187.786 246.998 187.526C247.126 187.265 247.149 186.965 247.062 186.687Z" fill="#053855"/>
<path d="M238.813 163.617L208.573 181.407L214.943 202.487L245.573 185.217L238.813 163.617Z" fill="#40006B"/>
<path d="M248.972 190.868L255.782 195.068C255.905 195.14 256.006 195.243 256.076 195.367C256.147 195.491 256.184 195.63 256.184 195.773C256.184 195.915 256.147 196.055 256.076 196.178C256.006 196.302 255.905 196.405 255.782 196.478L231.462 210.478C231.098 210.688 230.684 210.799 230.262 210.799C229.841 210.799 229.427 210.688 229.062 210.478C227.492 209.568 224.792 207.938 223.132 206.928C222.985 206.838 222.864 206.713 222.78 206.563C222.695 206.413 222.651 206.244 222.651 206.073C222.651 205.901 222.695 205.732 222.78 205.582C222.864 205.432 222.985 205.307 223.132 205.218L247.602 190.858C247.81 190.735 248.047 190.671 248.289 190.673C248.53 190.674 248.766 190.742 248.972 190.868Z" fill="#40006B"/>
<path d="M248.652 202.347L240.162 207.167C240.031 207.241 239.922 207.349 239.846 207.479C239.771 207.609 239.731 207.757 239.731 207.907C239.731 208.058 239.771 208.206 239.846 208.336C239.922 208.466 240.031 208.573 240.162 208.647L245.162 211.557C245.334 211.657 245.529 211.709 245.727 211.709C245.926 211.709 246.121 211.657 246.292 211.557L254.982 206.557C255.093 206.496 255.185 206.406 255.249 206.297C255.313 206.188 255.346 206.064 255.346 205.937C255.346 205.811 255.313 205.687 255.249 205.578C255.185 205.469 255.093 205.379 254.982 205.317L249.762 202.317C249.59 202.226 249.398 202.181 249.203 202.187C249.009 202.192 248.819 202.247 248.652 202.347Z" fill="#40006B"/>
<path opacity="0.1" d="M248.972 190.868L255.782 195.068C255.905 195.14 256.006 195.243 256.076 195.367C256.147 195.491 256.184 195.63 256.184 195.773C256.184 195.915 256.147 196.055 256.076 196.178C256.006 196.302 255.905 196.405 255.782 196.478L231.462 210.478C231.098 210.688 230.684 210.799 230.262 210.799C229.841 210.799 229.427 210.688 229.062 210.478C227.492 209.568 224.792 207.938 223.132 206.928C222.985 206.838 222.864 206.713 222.78 206.563C222.695 206.413 222.651 206.244 222.651 206.073C222.651 205.901 222.695 205.732 222.78 205.582C222.864 205.432 222.985 205.307 223.132 205.218L247.602 190.858C247.81 190.735 248.047 190.671 248.289 190.673C248.53 190.674 248.766 190.742 248.972 190.868Z" fill="#053855"/>
<path opacity="0.1" d="M248.652 202.347L240.162 207.167C240.031 207.241 239.922 207.349 239.846 207.479C239.771 207.609 239.731 207.757 239.731 207.907C239.731 208.058 239.771 208.206 239.846 208.336C239.922 208.466 240.031 208.573 240.162 208.647L245.162 211.557C245.334 211.657 245.529 211.709 245.727 211.709C245.926 211.709 246.121 211.657 246.292 211.557L254.982 206.557C255.093 206.496 255.185 206.406 255.249 206.297C255.313 206.188 255.346 206.064 255.346 205.937C255.346 205.811 255.313 205.687 255.249 205.578C255.185 205.469 255.093 205.379 254.982 205.317L249.762 202.317C249.59 202.226 249.398 202.181 249.203 202.187C249.009 202.192 248.819 202.247 248.652 202.347Z" fill="#053855"/>
<path d="M281.482 186.407C285.477 189.846 288.498 194.274 290.242 199.247C293.322 207.737 285.632 221.627 285.632 221.627L273.632 212.167" fill="#FF8F6F"/>
<path d="M291.102 232.687C291.097 234.58 290.499 236.423 289.392 237.958C288.286 239.494 286.726 240.644 284.932 241.247C282.478 242.072 279.886 242.411 277.302 242.247C272.002 241.907 267.362 239.427 263.462 236.007C264.202 226.607 266.852 220.007 269.122 216.857L283.602 209.857C283.672 211.167 291.302 220.007 291.122 230.777C291.116 231.451 291.109 232.087 291.102 232.687Z" fill="#3E2928"/>
<path d="M269.382 200.688L284.732 199.938L287.382 218.387C282.812 221.537 270.742 219.637 268.002 219.167C268.812 213.057 268.732 206.787 269.382 200.688Z" fill="#FF8F6F"/>
<path d="M246.733 198.147L248.273 199.497C246.978 198.756 245.642 198.088 244.273 197.497C243.343 197.077 242.833 198.577 243.753 198.997L244.223 199.217C243.729 199.031 243.233 198.851 242.733 198.677C242.534 198.608 242.315 198.621 242.126 198.713C241.937 198.805 241.791 198.969 241.723 199.167C241.654 199.366 241.666 199.585 241.758 199.774C241.85 199.963 242.014 200.108 242.213 200.177C243.514 200.623 244.792 201.134 246.043 201.707C244.918 201.349 243.773 201.062 242.613 200.847C241.613 200.657 241.523 202.247 242.513 202.427C243.832 202.673 245.129 203.024 246.393 203.477C245.988 203.48 245.586 203.548 245.203 203.677C244.743 203.797 243.563 203.867 243.353 204.327C243.301 204.443 243.278 204.569 243.285 204.695C243.292 204.821 243.329 204.944 243.392 205.053C243.455 205.162 243.544 205.255 243.65 205.324C243.756 205.392 243.877 205.435 244.003 205.447L249.953 206.057C250.543 206.395 251.082 206.816 251.553 207.307C252.154 206.592 252.792 205.908 253.463 205.257C254.055 204.677 254.68 204.13 255.333 203.617C254.746 203.057 254.146 202.514 253.533 201.987C253.403 201.807 253.083 201.897 252.723 201.597C250.723 199.877 250.253 199.757 248.073 197.707C246.463 196.107 245.793 197.327 246.733 198.147Z" fill="#FFB5A9"/>
<path d="M274.342 189.748C274.342 189.748 268.752 191.258 266.482 194.878C265.064 197.367 263.814 199.95 262.742 202.608L252.582 200.238C252.582 200.238 249.632 203.688 247.642 206.158C247.642 206.158 257.562 213.158 262.742 214.308C267.922 215.458 273.422 206.608 273.422 206.608C273.422 206.608 274.562 210.268 274.342 206.358" fill="#FF8F6F"/>
<path d="M270.252 201.508C271.869 200.198 273.094 198.468 273.792 196.508C274.462 194.228 273.622 192.218 272.792 190.088C271.947 187.982 271.454 185.753 271.332 183.488C271.262 181.258 271.522 179.038 271.672 176.818C271.695 176.722 271.695 176.623 271.672 176.528C272.412 174.018 273.952 171.898 276.972 171.648C284.782 170.988 285.222 179.648 285.162 183.148C285.102 186.648 284.732 189.038 287.322 190.518C289.912 191.998 291.782 195.838 289.322 198.958C286.862 202.078 289.072 200.958 290.712 203.708C292.352 206.458 291.932 209.938 288.552 211.188C285.172 212.438 269.452 210.088 268.002 208.628C267.491 208.043 267.225 207.283 267.262 206.508C267.617 204.532 268.68 202.755 270.252 201.508Z" fill="#007F68"/>
<path d="M267.343 221.637C265.453 221.227 247.133 219.767 242.863 226.137C238.593 232.507 261.863 241.577 277.303 242.307C292.743 243.037 275.633 223.417 267.343 221.637Z" fill="#3E2928"/>
<path d="M290.552 127.278V158.728L266.192 172.798L246.352 160.998V131.778" fill="#3ACEB2"/>
<path d="M266.192 172.797V141.757L246.352 130.137V160.997L266.192 172.797Z" fill="#4BE2C5"/>
<path d="M270.492 115.397L290.552 127.277L266.192 141.757L246.352 130.137L270.492 115.397Z" fill="#52EFD1"/>
<path d="M287.372 132.448V138.958L269.122 149.378V142.988L287.372 132.448Z" fill="#7374B7"/>
<path d="M270.965 145.851C270.706 145.772 270.599 145.374 270.725 144.962C270.852 144.55 271.164 144.281 271.422 144.36C271.681 144.439 271.788 144.838 271.662 145.249C271.536 145.661 271.223 145.931 270.965 145.851Z" fill="#F7931E"/>
<path d="M272.533 144.939C272.274 144.86 272.167 144.462 272.294 144.05C272.42 143.638 272.732 143.368 272.991 143.448C273.249 143.527 273.357 143.925 273.23 144.337C273.104 144.749 272.792 145.019 272.533 144.939Z" fill="#D9E021"/>
<path d="M274.472 143.468L285.752 136.988" stroke="#F2F2F2" stroke-width="0.25" stroke-miterlimit="10"/>
<path d="M287.802 141.577V148.087L269.552 158.497V152.117L287.802 141.577Z" fill="#7374B7"/>
<path d="M271.397 154.976C271.139 154.896 271.031 154.498 271.158 154.086C271.284 153.675 271.596 153.405 271.855 153.484C272.114 153.564 272.221 153.962 272.095 154.374C271.968 154.786 271.656 155.055 271.397 154.976Z" fill="#F7931E"/>
<path d="M272.956 154.073C272.697 153.994 272.59 153.596 272.716 153.184C272.843 152.772 273.155 152.503 273.413 152.582C273.672 152.661 273.779 153.06 273.653 153.472C273.527 153.883 273.214 154.153 272.956 154.073Z" fill="#D9E021"/>
<path d="M274.902 152.597L286.182 146.117" stroke="#F2F2F2" stroke-width="0.25" stroke-miterlimit="10"/>
<path d="M287.802 150.688V157.197L269.552 167.607V161.227L287.802 150.688Z" fill="#7374B7"/>
<path d="M271.405 164.095C271.146 164.016 271.039 163.617 271.165 163.205C271.291 162.794 271.604 162.524 271.862 162.604C272.121 162.683 272.228 163.081 272.102 163.493C271.976 163.905 271.663 164.174 271.405 164.095Z" fill="#F7931E"/>
<path d="M272.963 163.183C272.704 163.103 272.597 162.705 272.723 162.293C272.85 161.881 273.162 161.612 273.421 161.691C273.679 161.771 273.787 162.169 273.66 162.581C273.534 162.992 273.222 163.262 272.963 163.183Z" fill="#D9E021"/>
<path d="M274.902 161.708L286.182 155.228" stroke="#F2F2F2" stroke-width="0.25" stroke-miterlimit="10"/>
<path d="M246.352 140.947L266.102 152.597L290.552 138.387" stroke="#1B1464" stroke-width="0.25" stroke-miterlimit="10"/>
<path d="M246.352 150.058L266.102 161.708L290.552 147.508" stroke="#1B1464" stroke-width="0.25" stroke-miterlimit="10"/>
<path d="M66.1225 115.048V165.268C66.122 166.256 66.3837 167.228 66.8812 168.082C67.3786 168.937 68.0938 169.645 68.9539 170.133C69.814 170.621 70.7882 170.872 71.777 170.86C72.7658 170.849 73.7339 170.575 74.5825 170.068L122.312 141.598C123.144 141.102 123.833 140.4 124.312 139.558C124.79 138.717 125.042 137.766 125.042 136.798V87.4976C125.039 86.5167 124.777 85.5542 124.283 84.7067C123.789 83.8591 123.081 83.1563 122.23 82.6689C121.379 82.1816 120.415 81.9267 119.434 81.93C118.453 81.9332 117.49 82.1945 116.642 82.6876L68.9125 110.248C68.0696 110.735 67.3688 111.435 66.8795 112.277C66.3901 113.119 66.1292 114.074 66.1225 115.048Z" fill="#A5DD73"/>
<path opacity="0.32" d="M138.232 276.547C130.002 271.067 121.632 265.787 113.312 260.457L125.132 251.827L170.902 270.937C165.372 273.837 157.902 279.267 150.042 284.797C146.142 281.997 142.232 279.207 138.232 276.547Z" fill="url(#paint3_linear)"/>
<path d="M108.822 228.118C108.89 227.835 109.016 227.569 109.192 227.338C109.515 226.944 109.9 226.607 110.332 226.338C116.142 222.408 124.192 221.338 130.332 225.168C131.732 226.048 133.822 228.038 132.992 229.918C132.512 231.008 131.052 231.648 129.992 232.088C126.614 233.426 123.084 234.346 119.482 234.828C118.182 235.048 116.862 235.268 115.552 235.388C114.646 235.475 113.732 235.333 112.895 234.975C112.058 234.616 111.325 234.053 110.762 233.338C109.882 232.178 108.412 229.828 108.822 228.118Z" fill="#754C24"/>
<path d="M133.162 229.057C133.162 229.057 127.862 233.857 118.702 233.157C109.542 232.457 108.832 228.157 108.832 228.157C108.832 228.157 111.202 258.517 112.452 259.037C113.702 259.557 118.382 261.817 120.642 261.987C122.902 262.157 130.042 259.297 130.222 258.507C130.402 257.717 133.162 229.057 133.162 229.057Z" fill="#FF8F6F"/>
<path d="M131.493 184.818C131.773 184.248 132.642 184.748 132.352 185.318C126.082 197.958 124.862 212.188 123.732 226.008C123.682 226.638 122.682 226.648 122.732 226.008C123.872 211.998 125.133 197.618 131.493 184.818Z" fill="#007F68"/>
<path d="M132.293 184.938C132.293 184.938 130.543 191.497 132.353 194.777C134.163 198.057 135.653 198.707 133.493 202.777C131.333 206.847 125.553 207.398 125.173 210.518C124.793 213.638 127.933 190.508 132.293 184.938Z" fill="#007F68"/>
<path d="M112.242 196.778C117.071 206.876 119.793 217.853 120.242 229.038C120.242 229.818 119.052 229.808 119.022 229.038C118.599 218.065 115.948 207.294 111.232 197.378C110.852 196.688 111.902 196.068 112.242 196.778Z" fill="#007F68"/>
<path d="M111.382 199.977C111.382 199.317 111.532 197.977 111.462 196.867L112.162 197.307C114.542 203.097 118.102 216.697 119.162 220.857C117.712 217.737 111.782 217.307 110.042 212.857C109.275 210.969 109.239 208.861 109.942 206.947C110.801 204.719 111.287 202.364 111.382 199.977Z" fill="#007F68"/>
<path d="M100.192 109.387L115.662 120.757L101.792 140.227" stroke="#006837" stroke-width="4" stroke-miterlimit="10"/>
<path d="M86.5023 117.597L75.1223 139.837L91.1323 147.307" stroke="#006837" stroke-width="4" stroke-miterlimit="10"/>
<path d="M239.732 49.1274L149.572 100.357" stroke="#00A99D" stroke-width="4" stroke-miterlimit="10"/>
<path d="M239.402 62.5276L224.812 70.8176" stroke="#D4145A" stroke-width="4" stroke-miterlimit="10"/>
<path d="M220.482 73.6174L139.352 118.217" stroke="#29ABE2" stroke-width="4" stroke-miterlimit="10"/>
<path d="M239.732 74.7375L208.572 91.9275" stroke="#F7931E" stroke-width="4" stroke-miterlimit="10"/>
<path d="M203.402 95.1875L135.082 131.728" stroke="#00A99D" stroke-width="4" stroke-miterlimit="10"/>
</g>
<defs>
<filter id="filter0_d" x="0.732422" y="-11.3125" width="475" height="364" filterUnits="userSpaceOnUse" color-interpolation-filters="sRGB">
<feFlood flood-opacity="0" result="BackgroundImageFix"/>
<feColorMatrix in="SourceAlpha" type="matrix" values="0 0 0 0 0 0 0 0 0 0 0 0 0 0 0 0 0 0 127 0"/>
<feOffset dx="43" dy="6"/>
<feGaussianBlur stdDeviation="16"/>
<feColorMatrix type="matrix" values="0 0 0 0 0 0 0 0 0 0 0 0 0 0 0 0 0 0 0.25 0"/>
<feBlend mode="normal" in2="BackgroundImageFix" result="effect1_dropShadow"/>
<feBlend mode="normal" in="SourceGraphic" in2="effect1_dropShadow" result="shape"/>
</filter>
<linearGradient id="paint0_linear" x1="296.612" y1="245.227" x2="248.792" y2="207.897" gradientUnits="userSpaceOnUse">
<stop stop-color="white" stop-opacity="0"/>
<stop offset="0.98" stop-color="#0800BF"/>
</linearGradient>
<linearGradient id="paint1_linear" x1="-7364.76" y1="10921.7" x2="-9893.19" y2="6946.52" gradientUnits="userSpaceOnUse">
<stop stop-color="white" stop-opacity="0"/>
<stop offset="0.98" stop-color="#0800BF"/>
</linearGradient>
<linearGradient id="paint2_linear" x1="-21522" y1="17396.4" x2="-22728.3" y2="11609.6" gradientUnits="userSpaceOnUse">
<stop stop-color="white" stop-opacity="0"/>
<stop offset="0.98" stop-color="#0800BF"/>
</linearGradient>
<linearGradient id="paint3_linear" x1="-14401.1" y1="8675.99" x2="-15151.9" y2="7618.78" gradientUnits="userSpaceOnUse">
<stop stop-color="white" stop-opacity="0"/>
<stop offset="0.98" stop-color="#0800BF"/>
</linearGradient>
</defs>
</svg>
